<svg id="图层_2" data-name="图层 2" xmlns="http://www.w3.org/2000/svg" viewBox="0 0 128 128"><defs><style>.cls-1{fill:none;}.cls-1,.cls-2{stroke:#333;stroke-linejoin:round;}.cls-2,.cls-3{fill:#333;}.cls-4{opacity:0.16;}</style></defs><title>g</title><g id="运行水电厂"><circle class="cls-1" cx="113.86" cy="14.73" r="13.38"/><circle class="cls-1" cx="14.61" cy="14.73" r="13.38"/><circle class="cls-1" cx="14.61" cy="113.98" r="13.38"/><circle class="cls-2" cx="113.72" cy="113.85" r="13.38"/><line class="cls-1" x1="26.11" y1="26.49" x2="101.97" y2="102.35"/><line class="cls-1" x1="100.95" y1="28.51" x2="64.62" y2="64.83"/><path class="cls-3" d="M35.6,17.16h-.74l-.73-2.05H31.94l-.73,2.05h-.73l2.2-6.08h.72ZM33,12.09l-.84,2.36H33.9l-.84-2.36Z"/><path class="cls-3" d="M95,14a1.64,1.64,0,0,1,1,.46,1.32,1.32,0,0,1,.36,1,1.51,1.51,0,0,1-.63,1.3,2.94,2.94,0,0,1-1.79.46H92.12V11.08H94a2.65,2.65,0,0,1,1.58.41,1.33,1.33,0,0,1,.55,1.15,1.22,1.22,0,0,1-.28.82,1.49,1.49,0,0,1-.78.48Zm-2.21-2.25v1.91h1.07A2,2,0,0,0,95,13.39a.88.88,0,0,0,.38-.75A.73.73,0,0,0,95,12a2.06,2.06,0,0,0-1.1-.24Zm1,4.77a2.45,2.45,0,0,0,1.33-.3,1,1,0,0,0,.47-.85.85.85,0,0,0-.46-.78,2.65,2.65,0,0,0-1.32-.27H92.81v2.2Z"/><path class="cls-3" d="M96.74,115.33a2.31,2.31,0,0,1-.86.78,2.49,2.49,0,0,1-1.19.28,2.56,2.56,0,0,1-1.44-.4,2.66,2.66,0,0,1-1-1.12,3.93,3.93,0,0,1-.34-1.66,3.84,3.84,0,0,1,.34-1.64,2.6,2.6,0,0,1,1-1.1,2.71,2.71,0,0,1,1.44-.38,2.53,2.53,0,0,1,1.2.28,2.37,2.37,0,0,1,.85.78l-.56.38a1.67,1.67,0,0,0-.66-.57,1.76,1.76,0,0,0-.84-.22,1.83,1.83,0,0,0-1.06.31,2,2,0,0,0-.7.87,3.06,3.06,0,0,0-.26,1.29,3.19,3.19,0,0,0,.26,1.31,2,2,0,0,0,.7.89,1.77,1.77,0,0,0,1.06.32,1.69,1.69,0,0,0,.83-.22,1.88,1.88,0,0,0,.67-.58Z"/><g class="cls-4"><path d="M45.78,68.79c-.17.37-.39.79-.65,1.25s-.54.95-.84,1.44-.6,1-.9,1.43-.59.88-.85,1.25L40.2,73c.27-.37.56-.77.87-1.22s.61-.9.89-1.36.55-.91.79-1.36.44-.83.59-1.18Zm4-1.85v4.12a4.1,4.1,0,0,1-.13,1.17,1.74,1.74,0,0,1-.45.73,2.42,2.42,0,0,1-.81.46c-.33.11-.73.23-1.21.34L46,74.05l-.83-2.59.9-.22a2.73,2.73,0,0,0,.72-.27.65.65,0,0,0,.2-.55V67.31l-5.59.74L42,60.31c.62-.08,1.28-.18,2-.29s1.4-.22,2.11-.34l2.14-.39c.71-.13,1.4-.27,2.06-.41s1.29-.27,1.87-.41,1.11-.26,1.57-.39l.55,2.63-2.08.48c-.76.17-1.57.34-2.41.5l-2.6.49-2.58.45-.17,2.55L47,64.84V62.63l2.78-.31v2.15l4.93-.65v2.47Zm2.72-.22c.17.19.39.45.65.78s.54.69.83,1.08.58.79.86,1.2.54.81.77,1.18l-2.36,1.82c-.18-.35-.4-.74-.65-1.15s-.51-.83-.79-1.24L51,69.25c-.27-.36-.51-.66-.73-.91Z"/><path d="M71.3,61.9v2.21L56.66,66V63.82l3.27-.43.25-1-2.39.31V60.84l2.84-.37.21-.87-3.4.44V57.85l13.08-1.73v2.2l-6.85.9-.21.88,6-.79-.15,2.85ZM58.11,66.56,69.86,65v5.63L58.11,72.19Zm2.59,3.09,6.44-.84V67.52l-6.44.85ZM62.78,63l3.87-.51.07-.95L63,62.05Z"/><path d="M78,64.55c-.17.37-.39.79-.65,1.25s-.54,1-.84,1.44-.6,1-.9,1.43-.59.88-.85,1.25l-2.34-1.13c.27-.36.56-.76.87-1.21s.61-.9.9-1.36.55-.91.79-1.36.43-.83.58-1.18Zm4-1.85v4.12A4.05,4.05,0,0,1,81.84,68a1.56,1.56,0,0,1-.45.73,2.12,2.12,0,0,1-.8.45c-.33.12-.74.23-1.22.35l-1.17.29-.83-2.6.9-.21a2.17,2.17,0,0,0,.72-.28.6.6,0,0,0,.21-.54V63.07l-5.6.74.58-7.74c.62-.08,1.28-.18,2-.29s1.4-.22,2.11-.34l2.14-.39c.72-.13,1.4-.27,2.07-.41s1.28-.27,1.87-.41,1.1-.26,1.56-.39l.55,2.63L84.38,57c-.77.17-1.57.34-2.42.5s-1.71.33-2.59.49l-2.58.45-.18,2.55,2.59-.34V58.38l2.78-.3v2.15l4.93-.65v2.47Zm2.71-.22q.27.29.66.78l.83,1.08c.29.39.58.79.86,1.2s.53.81.76,1.18l-2.36,1.82c-.18-.35-.4-.74-.65-1.16s-.51-.82-.79-1.23-.54-.78-.81-1.14-.51-.66-.72-.91Z"/></g></g></svg>