<svg id="图层_2" data-name="图层 2" xmlns="http://www.w3.org/2000/svg" viewBox="0 0 128 128"><defs><style>.cls-1{fill:none;}.cls-1,.cls-2{stroke:#333;stroke-linejoin:round;}.cls-2,.cls-3{fill:#333;}.cls-4{opacity:0.16;}</style></defs><title>g</title><g id="运行水电厂"><circle class="cls-1" cx="115.44" cy="14.84" r="13.38"/><circle class="cls-1" cx="16.2" cy="14.84" r="13.38"/><circle class="cls-1" cx="16.2" cy="114.08" r="13.38"/><circle class="cls-2" cx="115.31" cy="113.95" r="13.38"/><line class="cls-1" x1="103.56" y1="102.45" x2="27.7" y2="26.59"/><line class="cls-1" x1="28.72" y1="100.43" x2="65.04" y2="64.1"/><path class="cls-3" d="M37.18,17.27h-.73l-.73-2.06H33.53l-.73,2.06h-.74l2.2-6.08H35ZM34.6,12.2l-.84,2.36h1.73l-.84-2.36Z"/><path class="cls-3" d="M96.61,14.09a1.65,1.65,0,0,1,1,.47,1.3,1.3,0,0,1,.36.94,1.52,1.52,0,0,1-.62,1.31,3,3,0,0,1-1.79.46H93.71V11.19h1.83a2.66,2.66,0,0,1,1.58.4,1.36,1.36,0,0,1,.55,1.15,1.25,1.25,0,0,1-.28.83,1.54,1.54,0,0,1-.78.47ZM94.4,11.84v1.92h1.07a1.89,1.89,0,0,0,1.09-.27.85.85,0,0,0,.38-.74.74.74,0,0,0-.39-.67,2.09,2.09,0,0,0-1.1-.24Zm1,4.77a2.55,2.55,0,0,0,1.33-.29,1,1,0,0,0,.46-.86.85.85,0,0,0-.46-.78,2.59,2.59,0,0,0-1.31-.27H94.4v2.2Z"/><path class="cls-3" d="M98.32,115.43a2.21,2.21,0,0,1-.85.78,2.52,2.52,0,0,1-1.19.29A2.61,2.61,0,0,1,93.87,115a4.17,4.17,0,0,1,0-3.3,2.57,2.57,0,0,1,1-1.09,2.63,2.63,0,0,1,1.44-.39,2.59,2.59,0,0,1,1.2.29,2.16,2.16,0,0,1,.84.77l-.55.39a1.78,1.78,0,0,0-.66-.58,1.86,1.86,0,0,0-.84-.21,1.83,1.83,0,0,0-1.06.31,2,2,0,0,0-.71.86,3.3,3.3,0,0,0-.25,1.29,3.38,3.38,0,0,0,.25,1.32,2.12,2.12,0,0,0,.71.89,1.84,1.84,0,0,0,1.06.32,1.69,1.69,0,0,0,.83-.22,1.91,1.91,0,0,0,.67-.59Z"/><g class="cls-4"><path d="M45.78,68.79c-.17.37-.39.79-.65,1.25s-.54.95-.84,1.44-.6,1-.9,1.43-.59.88-.85,1.25L40.2,73c.27-.37.56-.77.87-1.22s.61-.9.89-1.36.55-.91.79-1.36.44-.83.59-1.18Zm4-1.85v4.12a4.1,4.1,0,0,1-.13,1.17,1.74,1.74,0,0,1-.45.73,2.42,2.42,0,0,1-.81.46c-.33.11-.73.23-1.21.34L46,74.05l-.83-2.59.9-.22a2.73,2.73,0,0,0,.72-.27.65.65,0,0,0,.2-.55V67.31l-5.59.74L42,60.31c.62-.08,1.28-.18,2-.29s1.4-.22,2.11-.34l2.14-.39c.71-.13,1.4-.27,2.06-.41s1.29-.27,1.87-.41,1.11-.26,1.57-.39l.55,2.63-2.08.48c-.76.17-1.57.34-2.41.5l-2.6.49-2.58.45-.17,2.55L47,64.84V62.63l2.78-.31v2.15l4.93-.65v2.47Zm2.72-.22c.17.19.39.45.65.78s.54.69.83,1.08.58.79.86,1.2.54.81.77,1.18l-2.36,1.82c-.18-.35-.4-.74-.65-1.15s-.51-.83-.79-1.24L51,69.25c-.27-.36-.51-.66-.73-.91Z"/><path d="M71.3,61.9v2.21L56.66,66V63.82l3.27-.43.25-1-2.39.31V60.84l2.84-.37.21-.87-3.4.44V57.85l13.08-1.73v2.2l-6.85.9-.21.88,6-.79-.15,2.85ZM58.11,66.56,69.86,65v5.63L58.11,72.19Zm2.59,3.09,6.44-.84V67.52l-6.44.85ZM62.78,63l3.87-.51.07-.95L63,62.05Z"/><path d="M78,64.55c-.17.37-.39.79-.65,1.25s-.54,1-.84,1.44-.6,1-.9,1.43-.59.88-.85,1.25l-2.34-1.13c.27-.36.56-.76.87-1.21s.61-.9.9-1.36.55-.91.79-1.36.43-.83.58-1.18Zm4-1.85v4.12A4.05,4.05,0,0,1,81.84,68a1.56,1.56,0,0,1-.45.73,2.12,2.12,0,0,1-.8.45c-.33.12-.74.23-1.22.35l-1.17.29-.83-2.6.9-.21a2.17,2.17,0,0,0,.72-.28.6.6,0,0,0,.21-.54V63.07l-5.6.74.58-7.74c.62-.08,1.28-.18,2-.29s1.4-.22,2.11-.34l2.14-.39c.72-.13,1.4-.27,2.07-.41s1.28-.27,1.87-.41,1.1-.26,1.56-.39l.55,2.63L84.38,57c-.77.17-1.57.34-2.42.5s-1.71.33-2.59.49l-2.58.45-.18,2.55,2.59-.34V58.38l2.78-.3v2.15l4.93-.65v2.47Zm2.71-.22q.27.29.66.78l.83,1.08c.29.39.58.79.86,1.2s.53.81.76,1.18l-2.36,1.82c-.18-.35-.4-.74-.65-1.16s-.51-.82-.79-1.23-.54-.78-.81-1.14-.51-.66-.72-.91Z"/></g></g></svg>