<svg id="图层_2" data-name="图层 2" xmlns="http://www.w3.org/2000/svg" viewBox="0 0 128 128"><defs><style>.cls-1{fill:none;stroke:#fb3433;stroke-linejoin:round;}.cls-2{fill:#fbfd40;}.cls-3{fill:#20fdfd;}.cls-4{fill:#fb3433;}.cls-5{opacity:0.16;}</style></defs><title>g</title><g id="运行水电厂"><rect class="cls-1" width="128" height="128"/><path class="cls-2" d="M99,43H97.51l-2.3-6.38H88.15L85.85,43H84.36l6.58-18.14H92.4Zm-7.35-16.1-3,8.4h6.14l-3-8.4Z"/><path class="cls-3" d="M36.35,35a5.3,5.3,0,0,1,3.21,1.4,4,4,0,0,1,1.16,2.94,4.39,4.39,0,0,1-1.87,3.81,9.13,9.13,0,0,1-5.35,1.33H28.55V26.33h4.9a8,8,0,0,1,4.69,1.17,4.17,4.17,0,0,1,.72,5.93,4.51,4.51,0,0,1-2.51,1.44Zm-6.41-7.34v6.64h3.68a5.78,5.78,0,0,0,3.46-.91,2.94,2.94,0,0,0,1.26-2.52A2.66,2.66,0,0,0,37,28.49a7,7,0,0,0-3.74-.84Zm3.34,15.5a8.17,8.17,0,0,0,4.45-1,3.24,3.24,0,0,0,1.55-2.88,3,3,0,0,0-1.49-2.71,7.85,7.85,0,0,0-4.17-.94H29.94v7.54Z"/><path class="cls-4" d="M99.17,100a6.29,6.29,0,0,1-2.46,2.1,7.45,7.45,0,0,1-3.34.76,7.66,7.66,0,0,1-4.26-1.18,7.57,7.57,0,0,1-2.83-3.32,11.7,11.7,0,0,1-1-5,11.27,11.27,0,0,1,1-4.91,7.55,7.55,0,0,1,2.83-3.25A7.89,7.89,0,0,1,93.37,84a7.36,7.36,0,0,1,3.3.76,6.72,6.72,0,0,1,2.53,2.1l-1.11.81A5.69,5.69,0,0,0,96,86a5.89,5.89,0,0,0-2.63-.64,6.12,6.12,0,0,0-5.83,3.78,10.23,10.23,0,0,0-.81,4.21,10.72,10.72,0,0,0,.81,4.31,6.42,6.42,0,0,0,2.33,2.87,6.36,6.36,0,0,0,6.16.4,5.57,5.57,0,0,0,2.09-1.77Z"/><g class="cls-5"><path d="M45.78,68.79c-.17.37-.39.79-.65,1.25s-.54.95-.84,1.44-.6,1-.9,1.43-.59.88-.85,1.25L40.2,73c.27-.37.56-.77.87-1.22s.61-.9.89-1.36.55-.91.79-1.36.44-.83.59-1.18Zm4-1.85v4.12a4.1,4.1,0,0,1-.13,1.17,1.74,1.74,0,0,1-.45.73,2.42,2.42,0,0,1-.81.46c-.33.11-.73.23-1.21.34L46,74.05l-.83-2.59.9-.22a2.73,2.73,0,0,0,.72-.27.65.65,0,0,0,.2-.55V67.31l-5.59.74L42,60.31c.62-.08,1.28-.18,2-.29s1.4-.22,2.11-.34l2.14-.39c.71-.13,1.4-.27,2.06-.41s1.29-.27,1.87-.41,1.11-.26,1.57-.39l.55,2.63-2.08.48c-.76.17-1.57.34-2.41.5l-2.6.49-2.58.45-.17,2.55L47,64.84V62.63l2.78-.31v2.15l4.93-.65v2.47Zm2.72-.22c.17.19.39.45.65.78s.54.69.83,1.08.58.79.86,1.2.54.81.77,1.18l-2.36,1.82c-.18-.35-.4-.74-.65-1.15s-.51-.83-.79-1.24L51,69.25c-.27-.36-.51-.66-.73-.91Z"/><path d="M71.3,61.9v2.21L56.66,66V63.82l3.27-.43.25-1-2.39.31V60.84l2.84-.37.21-.87-3.4.44V57.85l13.08-1.73v2.2l-6.85.9-.21.88,6-.79-.15,2.85ZM58.11,66.56,69.86,65v5.63L58.11,72.19Zm2.59,3.09,6.44-.84V67.52l-6.44.85ZM62.78,63l3.87-.51.07-.95L63,62.05Z"/><path d="M78,64.55c-.17.37-.39.79-.65,1.25s-.54,1-.84,1.44-.6,1-.9,1.43-.59.88-.85,1.25l-2.34-1.13c.27-.36.56-.76.87-1.21s.61-.9.9-1.36.55-.91.79-1.36.43-.83.58-1.18Zm4-1.85v4.12A4.05,4.05,0,0,1,81.84,68a1.56,1.56,0,0,1-.45.73,2.12,2.12,0,0,1-.8.45c-.33.12-.74.23-1.22.35l-1.17.29-.83-2.6.9-.21a2.17,2.17,0,0,0,.72-.28.6.6,0,0,0,.21-.54V63.07l-5.6.74.58-7.74c.62-.08,1.28-.18,2-.29s1.4-.22,2.11-.34l2.14-.39c.72-.13,1.4-.27,2.07-.41s1.28-.27,1.87-.41,1.1-.26,1.56-.39l.55,2.63L84.38,57c-.77.17-1.57.34-2.42.5s-1.71.33-2.59.49l-2.58.45-.18,2.55,2.59-.34V58.38l2.78-.3v2.15l4.93-.65v2.47Zm2.71-.22q.27.29.66.78l.83,1.08c.29.39.58.79.86,1.2s.53.81.76,1.18l-2.36,1.82c-.18-.35-.4-.74-.65-1.16s-.51-.82-.79-1.23-.54-.78-.81-1.14-.51-.66-.72-.91Z"/></g></g></svg>