<svg id="图层_2" data-name="图层 2" xmlns="http://www.w3.org/2000/svg" viewBox="0 0 128 128"><defs><style>.cls-1{fill:none;}.cls-1,.cls-2{stroke:#333;stroke-linejoin:round;}.cls-2{fill:#333;}.cls-3{opacity:0.16;}</style></defs><title>g</title><g id="运行水电厂"><circle class="cls-1" cx="64.09" cy="41.89" r="28.87"/><line class="cls-1" x1="64.09" y1="-0.08" x2="64.09" y2="11.42"/><line class="cls-1" x1="64.09" y1="0.03" x2="64.09" y2="11.53"/><line class="cls-1" x1="64.09" y1="0.14" x2="64.09" y2="11.65"/><line class="cls-1" x1="64.09" y1="0.26" x2="64.09" y2="11.76"/><line class="cls-1" x1="64.09" y1="0.37" x2="64.09" y2="11.87"/><line class="cls-1" x1="64.09" y1="0.48" x2="64.09" y2="11.98"/><line class="cls-1" x1="64.09" y1="0.59" x2="64.09" y2="12.1"/><line class="cls-1" x1="64.09" y1="0.71" x2="64.09" y2="12.21"/><line class="cls-1" x1="64.09" y1="0.82" x2="64.09" y2="12.32"/><line class="cls-1" x1="64.09" y1="0.93" x2="64.09" y2="12.44"/><line class="cls-1" x1="64.09" y1="1.04" x2="64.09" y2="12.55"/><line class="cls-1" x1="64.09" y1="1.16" x2="64.09" y2="12.66"/><line class="cls-1" x1="64.09" y1="1.27" x2="64.09" y2="12.77"/><line class="cls-1" x1="64.09" y1="1.38" x2="64.09" y2="12.89"/><line class="cls-1" x1="64.09" y1="116.41" x2="64.09" y2="127.92"/><line class="cls-1" x1="64.09" y1="116.3" x2="64.09" y2="127.8"/><line class="cls-1" x1="64.09" y1="116.19" x2="64.09" y2="127.69"/><line class="cls-1" x1="64.09" y1="116.07" x2="64.09" y2="127.58"/><line class="cls-1" x1="64.09" y1="115.96" x2="64.09" y2="127.47"/><line class="cls-1" x1="64.09" y1="115.85" x2="64.09" y2="127.35"/><line class="cls-1" x1="64.09" y1="115.74" x2="64.09" y2="127.24"/><line class="cls-1" x1="64.09" y1="115.62" x2="64.09" y2="127.13"/><line class="cls-1" x1="64.09" y1="115.51" x2="64.09" y2="127.01"/><line class="cls-1" x1="64.09" y1="115.4" x2="64.09" y2="126.9"/><line class="cls-1" x1="64.09" y1="115.28" x2="64.09" y2="126.79"/><line class="cls-1" x1="64.09" y1="115.17" x2="64.09" y2="126.68"/><line class="cls-1" x1="64.09" y1="115.06" x2="64.09" y2="126.56"/><line class="cls-1" x1="64.09" y1="114.95" x2="64.09" y2="126.45"/><line class="cls-1" x1="64.09" y1="114.83" x2="64.09" y2="126.34"/><line class="cls-1" x1="64.09" y1="36.79" x2="64.09" y2="55.89"/><line class="cls-1" x1="76.83" y1="27.89" x2="64.05" y2="36.92"/><line class="cls-1" x1="64.13" y1="36.92" x2="51.35" y2="27.89"/><circle class="cls-1" cx="63.76" cy="85.94" r="28.87"/><polygon class="cls-1" points="63.77 76.35 51.6 97.42 75.93 97.42 63.77 76.35"/><polygon class="cls-2" points="114.89 31.3 94.23 34.58 103.37 48.76 114.89 31.3"/><line class="cls-1" x1="64" y1="0.08" x2="64" y2="11.59"/><line class="cls-1" x1="64" y1="0.2" x2="64" y2="11.7"/><line class="cls-1" x1="64" y1="0.31" x2="64" y2="11.81"/><line class="cls-1" x1="64" y1="0.42" x2="64" y2="11.93"/><line class="cls-1" x1="64" y1="0.53" x2="64" y2="12.04"/><line class="cls-1" x1="64" y1="0.65" x2="64" y2="12.15"/><line class="cls-1" x1="64" y1="0.76" x2="64" y2="12.26"/><line class="cls-1" x1="64" y1="0.87" x2="64" y2="12.38"/><line class="cls-1" x1="64" y1="0.99" x2="64" y2="12.49"/><line class="cls-1" x1="64" y1="1.1" x2="64" y2="12.6"/><line class="cls-1" x1="64" y1="1.21" x2="64" y2="12.72"/><line class="cls-1" x1="64" y1="1.32" x2="64" y2="12.83"/><line class="cls-1" x1="64" y1="1.44" x2="64" y2="12.94"/><line class="cls-1" x1="64" y1="1.55" x2="64" y2="13.05"/><line class="cls-1" x1="64" y1="116.58" x2="64" y2="128.08"/><line class="cls-1" x1="64" y1="116.47" x2="64" y2="127.97"/><line class="cls-1" x1="64" y1="116.35" x2="64" y2="127.86"/><line class="cls-1" x1="64" y1="116.24" x2="64" y2="127.74"/><line class="cls-1" x1="64" y1="116.13" x2="64" y2="127.63"/><line class="cls-1" x1="64" y1="116.02" x2="64" y2="127.52"/><line class="cls-1" x1="64" y1="115.9" x2="64" y2="127.41"/><line class="cls-1" x1="64" y1="115.79" x2="64" y2="127.29"/><line class="cls-1" x1="64" y1="115.68" x2="64" y2="127.18"/><line class="cls-1" x1="64" y1="115.56" x2="64" y2="127.07"/><line class="cls-1" x1="64" y1="115.45" x2="64" y2="126.96"/><line class="cls-1" x1="64" y1="115.34" x2="64" y2="126.84"/><line class="cls-1" x1="64" y1="115.23" x2="64" y2="126.73"/><line class="cls-1" x1="64" y1="115.11" x2="64" y2="126.62"/><line class="cls-1" x1="64" y1="115" x2="64" y2="126.5"/><line class="cls-1" x1="64" y1="114.89" x2="64" y2="126.39"/><line class="cls-1" x1="64" y1="0.08" x2="64" y2="11.59"/><line class="cls-1" x1="64" y1="0.2" x2="64" y2="11.7"/><line class="cls-1" x1="64" y1="0.31" x2="64" y2="11.81"/><line class="cls-1" x1="64" y1="0.42" x2="64" y2="11.93"/><line class="cls-1" x1="64" y1="0.53" x2="64" y2="12.04"/><line class="cls-1" x1="64" y1="0.65" x2="64" y2="12.15"/><line class="cls-1" x1="64" y1="0.76" x2="64" y2="12.26"/><line class="cls-1" x1="64" y1="0.87" x2="64" y2="12.38"/><line class="cls-1" x1="64" y1="0.99" x2="64" y2="12.49"/><line class="cls-1" x1="64" y1="1.1" x2="64" y2="12.6"/><line class="cls-1" x1="64" y1="1.21" x2="64" y2="12.72"/><line class="cls-1" x1="64" y1="1.32" x2="64" y2="12.83"/><line class="cls-1" x1="64" y1="116.58" x2="64" y2="128.08"/><line class="cls-1" x1="64" y1="116.47" x2="64" y2="127.97"/><line class="cls-1" x1="64" y1="116.35" x2="64" y2="127.86"/><line class="cls-1" x1="64" y1="116.24" x2="64" y2="127.74"/><line class="cls-1" x1="64" y1="116.13" x2="64" y2="127.63"/><line class="cls-1" x1="64" y1="116.02" x2="64" y2="127.52"/><line class="cls-1" x1="64" y1="115.9" x2="64" y2="127.41"/><line class="cls-1" x1="64" y1="115.79" x2="64" y2="127.29"/><line class="cls-1" x1="64" y1="115.68" x2="64" y2="127.18"/><line class="cls-1" x1="64" y1="115.56" x2="64" y2="127.07"/><line class="cls-1" x1="64" y1="115.45" x2="64" y2="126.96"/><line class="cls-1" x1="64" y1="115.34" x2="64" y2="126.84"/><line class="cls-1" x1="64" y1="115.23" x2="64" y2="126.73"/><line class="cls-1" x1="64" y1="115.11" x2="64" y2="126.62"/><line class="cls-1" x1="64" y1="115" x2="64" y2="126.5"/><line class="cls-1" x1="13.11" y1="96.86" x2="109.07" y2="35.06"/><path d="M124.67,28.91l-3.42,5.24h3.55v.44h-4.15v-.37L124.07,29h-3.32v-.44h3.92Z"/><g class="cls-3"><path d="M45.78,68.79c-.17.37-.39.79-.65,1.25s-.54.95-.84,1.44-.6,1-.9,1.43-.59.88-.85,1.25L40.2,73c.27-.37.56-.77.87-1.22s.61-.9.89-1.36.55-.91.79-1.36.44-.83.59-1.18Zm4-1.85v4.12a4.1,4.1,0,0,1-.13,1.17,1.74,1.74,0,0,1-.45.73,2.42,2.42,0,0,1-.81.46c-.33.11-.73.23-1.21.34L46,74.05l-.83-2.59.9-.22a2.73,2.73,0,0,0,.72-.27.65.65,0,0,0,.2-.55V67.31l-5.59.74L42,60.31c.62-.08,1.28-.18,2-.29s1.4-.22,2.11-.34l2.14-.39c.71-.13,1.4-.27,2.06-.41s1.29-.27,1.87-.41,1.11-.26,1.57-.39l.55,2.63-2.08.48c-.76.17-1.57.34-2.41.5l-2.6.49-2.58.45-.17,2.55L47,64.84V62.63l2.78-.31v2.15l4.93-.65v2.47Zm2.72-.22c.17.19.39.45.65.78s.54.69.83,1.08.58.79.86,1.2.54.81.77,1.18l-2.36,1.82c-.18-.35-.4-.74-.65-1.15s-.51-.83-.79-1.24L51,69.25c-.27-.36-.51-.66-.73-.91Z"/><path d="M71.3,61.9v2.21L56.66,66V63.82l3.27-.43.25-1-2.39.31V60.84l2.84-.37.21-.87-3.4.44V57.85l13.08-1.73v2.2l-6.85.9-.21.88,6-.79-.15,2.85ZM58.11,66.56,69.86,65v5.63L58.11,72.19Zm2.59,3.09,6.44-.84V67.52l-6.44.85ZM62.78,63l3.87-.51.07-.95L63,62.05Z"/><path d="M78,64.55c-.17.37-.39.79-.65,1.25s-.54,1-.84,1.44-.6,1-.9,1.43-.59.88-.85,1.25l-2.34-1.13c.27-.36.56-.76.87-1.21s.61-.9.9-1.36.55-.91.79-1.36.43-.83.58-1.18Zm4-1.85v4.12A4.05,4.05,0,0,1,81.84,68a1.56,1.56,0,0,1-.45.73,2.12,2.12,0,0,1-.8.45c-.33.12-.74.23-1.22.35l-1.17.29-.83-2.6.9-.21a2.17,2.17,0,0,0,.72-.28.6.6,0,0,0,.21-.54V63.07l-5.6.74.58-7.74c.62-.08,1.28-.18,2-.29s1.4-.22,2.11-.34l2.14-.39c.72-.13,1.4-.27,2.07-.41s1.28-.27,1.87-.41,1.1-.26,1.56-.39l.55,2.63L84.38,57c-.77.17-1.57.34-2.42.5s-1.71.33-2.59.49l-2.58.45-.18,2.55,2.59-.34V58.38l2.78-.3v2.15l4.93-.65v2.47Zm2.71-.22q.27.29.66.78l.83,1.08c.29.39.58.79.86,1.2s.53.81.76,1.18l-2.36,1.82c-.18-.35-.4-.74-.65-1.16s-.51-.82-.79-1.23-.54-.78-.81-1.14-.51-.66-.72-.91Z"/></g></g></svg>