<svg id="图层_2" data-name="图层 2" xmlns="http://www.w3.org/2000/svg" viewBox="0 0 128 128"><defs><style>.cls-1{fill:none;}.cls-1,.cls-2{stroke:#333;stroke-linejoin:round;}.cls-2{fill:#333;}.cls-3{opacity:0.16;}</style></defs><title>g</title><g id="运行水电厂"><line class="cls-1" x1="64" y1="83.15" x2="64" y2="102.25"/><line class="cls-1" x1="76.74" y1="74.25" x2="63.96" y2="83.29"/><line class="cls-1" x1="64.04" y1="83.29" x2="51.26" y2="74.25"/><circle class="cls-1" cx="64" cy="41.97" r="28.87"/><circle class="cls-1" cx="64" cy="85.25" r="28.87"/><line class="cls-1" x1="64" x2="64" y2="11.5"/><line class="cls-1" x1="64" y1="0.11" x2="64" y2="11.62"/><line class="cls-1" x1="64" y1="0.23" x2="64" y2="11.73"/><line class="cls-1" x1="64" y1="0.34" x2="64" y2="11.84"/><line class="cls-1" x1="64" y1="0.45" x2="64" y2="11.96"/><line class="cls-1" x1="64" y1="0.56" x2="64" y2="12.07"/><line class="cls-1" x1="64" y1="0.68" x2="64" y2="12.18"/><line class="cls-1" x1="64" y1="0.79" x2="64" y2="12.29"/><line class="cls-1" x1="64" y1="0.9" x2="64" y2="12.41"/><line class="cls-1" x1="64" y1="1.02" x2="64" y2="12.52"/><line class="cls-1" x1="64" y1="1.13" x2="64" y2="12.63"/><line class="cls-1" x1="64" y1="1.24" x2="64" y2="12.74"/><line class="cls-1" x1="64" y1="1.35" x2="64" y2="12.86"/><line class="cls-1" x1="64" y1="1.47" x2="64" y2="12.97"/><line class="cls-1" x1="64" y1="116.5" x2="64" y2="128"/><line class="cls-1" x1="64" y1="116.38" x2="64" y2="127.89"/><line class="cls-1" x1="64" y1="116.27" x2="64" y2="127.77"/><line class="cls-1" x1="64" y1="116.16" x2="64" y2="127.66"/><line class="cls-1" x1="64" y1="116.04" x2="64" y2="127.55"/><line class="cls-1" x1="64" y1="115.93" x2="64" y2="127.44"/><line class="cls-1" x1="64" y1="115.82" x2="64" y2="127.32"/><line class="cls-1" x1="64" y1="115.71" x2="64" y2="127.21"/><line class="cls-1" x1="64" y1="115.59" x2="64" y2="127.1"/><line class="cls-1" x1="64" y1="115.48" x2="64" y2="126.98"/><line class="cls-1" x1="64" y1="115.37" x2="64" y2="126.87"/><line class="cls-1" x1="64" y1="115.26" x2="64" y2="126.76"/><line class="cls-1" x1="64" y1="115.14" x2="64" y2="126.65"/><line class="cls-1" x1="64" y1="115.03" x2="64" y2="126.53"/><line class="cls-1" x1="64" y1="114.92" x2="64" y2="126.42"/><line class="cls-1" x1="64" y1="114.8" x2="64" y2="126.31"/><line class="cls-1" x1="64" y1="36.87" x2="64" y2="55.97"/><line class="cls-1" x1="76.74" y1="27.97" x2="63.96" y2="37.01"/><line class="cls-1" x1="64.04" y1="37.01" x2="51.26" y2="27.97"/><circle class="cls-2" cx="64.58" cy="83.19" r="1.64"/><line class="cls-1" x1="64" y1="83.5" x2="81" y2="83.5"/><g class="cls-3"><path d="M45.78,68.79c-.17.37-.39.79-.65,1.25s-.54.95-.84,1.44-.6,1-.9,1.43-.59.88-.85,1.25L40.2,73c.27-.37.56-.77.87-1.22s.61-.9.89-1.36.55-.91.79-1.36.44-.83.59-1.18Zm4-1.85v4.12a4.1,4.1,0,0,1-.13,1.17,1.74,1.74,0,0,1-.45.73,2.42,2.42,0,0,1-.81.46c-.33.11-.73.23-1.21.34L46,74.05l-.83-2.59.9-.22a2.73,2.73,0,0,0,.72-.27.65.65,0,0,0,.2-.55V67.31l-5.59.74L42,60.31c.62-.08,1.28-.18,2-.29s1.4-.22,2.11-.34l2.14-.39c.71-.13,1.4-.27,2.06-.41s1.29-.27,1.87-.41,1.11-.26,1.57-.39l.55,2.63-2.08.48c-.76.17-1.57.34-2.41.5l-2.6.49-2.58.45-.17,2.55L47,64.84V62.63l2.78-.31v2.15l4.93-.65v2.47Zm2.72-.22c.17.19.39.45.65.78s.54.69.83,1.08.58.79.86,1.2.54.81.77,1.18l-2.36,1.82c-.18-.35-.4-.74-.65-1.15s-.51-.83-.79-1.24L51,69.25c-.27-.36-.51-.66-.73-.91Z"/><path d="M71.3,61.9v2.21L56.66,66V63.82l3.27-.43.25-1-2.39.31V60.84l2.84-.37.21-.87-3.4.44V57.85l13.08-1.73v2.2l-6.85.9-.21.88,6-.79-.15,2.85ZM58.11,66.56,69.86,65v5.63L58.11,72.19Zm2.59,3.09,6.44-.84V67.52l-6.44.85ZM62.78,63l3.87-.51.07-.95L63,62.05Z"/><path d="M78,64.55c-.17.37-.39.79-.65,1.25s-.54,1-.84,1.44-.6,1-.9,1.43-.59.88-.85,1.25l-2.34-1.13c.27-.36.56-.76.87-1.21s.61-.9.9-1.36.55-.91.79-1.36.43-.83.58-1.18Zm4-1.85v4.12A4.05,4.05,0,0,1,81.84,68a1.56,1.56,0,0,1-.45.73,2.12,2.12,0,0,1-.8.45c-.33.12-.74.23-1.22.35l-1.17.29-.83-2.6.9-.21a2.17,2.17,0,0,0,.72-.28.6.6,0,0,0,.21-.54V63.07l-5.6.74.58-7.74c.62-.08,1.28-.18,2-.29s1.4-.22,2.11-.34l2.14-.39c.72-.13,1.4-.27,2.07-.41s1.28-.27,1.87-.41,1.1-.26,1.56-.39l.55,2.63L84.38,57c-.77.17-1.57.34-2.42.5s-1.71.33-2.59.49l-2.58.45-.18,2.55,2.59-.34V58.38l2.78-.3v2.15l4.93-.65v2.47Zm2.71-.22q.27.29.66.78l.83,1.08c.29.39.58.79.86,1.2s.53.81.76,1.18l-2.36,1.82c-.18-.35-.4-.74-.65-1.16s-.51-.82-.79-1.23-.54-.78-.81-1.14-.51-.66-.72-.91Z"/></g></g></svg>