<svg id="图层_2" data-name="图层 2" xmlns="http://www.w3.org/2000/svg" viewBox="0 0 128 128"><defs><style>.cls-1,.cls-2,.cls-3{fill:none;stroke:#333;stroke-linejoin:round;}.cls-1{stroke-dasharray:5;}.cls-3{stroke-dasharray:4.73 4.73;}.cls-4{opacity:0.16;}</style></defs><title>g</title><g id="运行水电厂"><rect class="cls-1" y="24.7" width="128" height="78.61"/><line class="cls-2" x1="75.75" y1="88.75" x2="78.25" y2="88.75"/><line class="cls-3" x1="82.98" y1="88.75" x2="109.01" y2="88.75"/><line class="cls-2" x1="111.38" y1="88.75" x2="113.88" y2="88.75"/><line class="cls-2" x1="113.63" y1="50.5" x2="113.63" y2="53"/><line class="cls-3" x1="113.63" y1="57.73" x2="113.63" y2="83.76"/><line class="cls-2" x1="113.63" y1="86.13" x2="113.63" y2="88.63"/><polygon class="cls-1" points="75.08 86.07 75.15 85.31 74.33 85.9 75.08 86.07"/><polygon class="cls-1" points="74.82 86.1 75.56 86.28 74.75 86.87 74.82 86.1"/><polygon class="cls-1" points="112.08 45.07 112.15 44.31 111.33 44.9 112.08 45.07"/><polygon class="cls-1" points="111.82 45.1 112.56 45.28 111.75 45.87 111.82 45.1"/><polygon class="cls-1" points="54.08 40.07 54.15 39.31 53.33 39.9 54.08 40.07"/><polygon class="cls-1" points="53.82 40.1 54.56 40.28 53.75 40.87 53.82 40.1"/><polygon class="cls-1" points="17.08 83.07 17.15 82.31 16.33 82.9 17.08 83.07"/><polygon class="cls-1" points="16.82 83.1 17.56 83.28 16.75 83.87 16.82 83.1"/><g class="cls-4"><path d="M45.78,68.79c-.17.37-.39.79-.65,1.25s-.54.95-.84,1.44-.6,1-.9,1.43-.59.88-.85,1.25L40.2,73c.27-.37.56-.77.87-1.22s.61-.9.89-1.36.55-.91.79-1.36.44-.83.59-1.18Zm4-1.85v4.12a4.1,4.1,0,0,1-.13,1.17,1.74,1.74,0,0,1-.45.73,2.42,2.42,0,0,1-.81.46c-.33.11-.73.23-1.21.34L46,74.05l-.83-2.59.9-.22a2.73,2.73,0,0,0,.72-.27.65.65,0,0,0,.2-.55V67.31l-5.59.74L42,60.31c.62-.08,1.28-.18,2-.29s1.4-.22,2.11-.34l2.14-.39c.71-.13,1.4-.27,2.06-.41s1.29-.27,1.87-.41,1.11-.26,1.57-.39l.55,2.63-2.08.48c-.76.17-1.57.34-2.41.5l-2.6.49-2.58.45-.17,2.55L47,64.84V62.63l2.78-.31v2.15l4.93-.65v2.47Zm2.72-.22c.17.19.39.45.65.78s.54.69.83,1.08.58.79.86,1.2.54.81.77,1.18l-2.36,1.82c-.18-.35-.4-.74-.65-1.15s-.51-.83-.79-1.24L51,69.25c-.27-.36-.51-.66-.73-.91Z"/><path d="M71.3,61.9v2.21L56.66,66V63.82l3.27-.43.25-1-2.39.31V60.84l2.84-.37.21-.87-3.4.44V57.85l13.08-1.73v2.2l-6.85.9-.21.88,6-.79-.15,2.85ZM58.11,66.56,69.86,65v5.63L58.11,72.19Zm2.59,3.09,6.44-.84V67.52l-6.44.85ZM62.78,63l3.87-.51.07-.95L63,62.05Z"/><path d="M78,64.55c-.17.37-.39.79-.65,1.25s-.54,1-.84,1.44-.6,1-.9,1.43-.59.88-.85,1.25l-2.34-1.13c.27-.36.56-.76.87-1.21s.61-.9.9-1.36.55-.91.79-1.36.43-.83.58-1.18Zm4-1.85v4.12A4.05,4.05,0,0,1,81.84,68a1.56,1.56,0,0,1-.45.73,2.12,2.12,0,0,1-.8.45c-.33.12-.74.23-1.22.35l-1.17.29-.83-2.6.9-.21a2.17,2.17,0,0,0,.72-.28.6.6,0,0,0,.21-.54V63.07l-5.6.74.58-7.74c.62-.08,1.28-.18,2-.29s1.4-.22,2.11-.34l2.14-.39c.72-.13,1.4-.27,2.07-.41s1.28-.27,1.87-.41,1.1-.26,1.56-.39l.55,2.63L84.38,57c-.77.17-1.57.34-2.42.5s-1.71.33-2.59.49l-2.58.45-.18,2.55,2.59-.34V58.38l2.78-.3v2.15l4.93-.65v2.47Zm2.71-.22q.27.29.66.78l.83,1.08c.29.39.58.79.86,1.2s.53.81.76,1.18l-2.36,1.82c-.18-.35-.4-.74-.65-1.16s-.51-.82-.79-1.23-.54-.78-.81-1.14-.51-.66-.72-.91Z"/></g></g></svg>