<svg id="图层_2" data-name="图层 2" xmlns="http://www.w3.org/2000/svg" viewBox="0 0 128 128"><defs><style>.cls-1{fill:none;stroke:#333;stroke-linejoin:round;stroke-width:2px;}.cls-2{opacity:0.16;}</style></defs><title>g</title><g id="运行水电厂"><rect class="cls-1" x="0.25" y="24.82" width="127.38" height="78.23"/><line class="cls-1" x1="0.19" y1="41.48" x2="21.15" y2="24.26"/><line class="cls-1" x1="114" y1="102" x2="128" y2="90.56"/><line class="cls-1" x1="24.01" y1="40.68" x2="43.16" y2="24.88"/><line class="cls-1" x1="24.51" y1="61.7" x2="43.66" y2="45.9"/><line class="cls-1" x1="49.51" y1="41.05" x2="68.66" y2="25.25"/><line class="cls-1" x1="0.12" y1="60.33" x2="19.28" y2="44.53"/><line class="cls-1" x1="110.34" y1="87.57" x2="127.63" y2="73.27"/><line class="cls-1" x1="91.55" y1="103" x2="105.61" y2="91.43"/><line class="cls-1" y1="81.23" x2="19.16" y2="65.43"/><line class="cls-1" x1="83.84" y1="86.2" x2="103" y2="70.41"/><line class="cls-1" x1="108.84" y1="65.55" x2="128" y2="49.76"/><line class="cls-1" x1="63" y1="102" x2="77.87" y2="89.94"/><line class="cls-1" x1="27.49" y1="80.61" x2="46.65" y2="64.81"/><line class="cls-1" x1="52.12" y1="60.33" x2="71.28" y2="44.53"/><line class="cls-1" x1="76" y1="40.68" x2="95.16" y2="24.88"/><line class="cls-1" y1="103" x2="22.14" y2="84.34"/><line class="cls-1" x1="55.48" y1="83.47" x2="74.64" y2="67.67"/><line class="cls-1" x1="80.11" y1="63.19" x2="99.27" y2="47.39"/><line class="cls-1" x1="103.99" y1="43.54" x2="126" y2="25"/><line class="cls-1" x1="30.97" y1="103" x2="50.13" y2="87.2"/><g class="cls-2"><path d="M45.78,68.79c-.17.37-.39.79-.65,1.25s-.54.95-.84,1.44-.6,1-.9,1.43-.59.88-.85,1.25L40.2,73c.27-.37.56-.77.87-1.22s.61-.9.89-1.36.55-.91.79-1.36.44-.83.59-1.18Zm4-1.85v4.12a4.1,4.1,0,0,1-.13,1.17,1.74,1.74,0,0,1-.45.73,2.42,2.42,0,0,1-.81.46c-.33.11-.73.23-1.21.34L46,74.05l-.83-2.59.9-.22a2.73,2.73,0,0,0,.72-.27.65.65,0,0,0,.2-.55V67.31l-5.59.74L42,60.31c.62-.08,1.28-.18,2-.29s1.4-.22,2.11-.34l2.14-.39c.71-.13,1.4-.27,2.06-.41s1.29-.27,1.87-.41,1.11-.26,1.57-.39l.55,2.63-2.08.48c-.76.17-1.57.34-2.41.5l-2.6.49-2.58.45-.17,2.55L47,64.84V62.63l2.78-.31v2.15l4.93-.65v2.47Zm2.72-.22c.17.19.39.45.65.78s.54.69.83,1.08.58.79.86,1.2.54.81.77,1.18l-2.36,1.82c-.18-.35-.4-.74-.65-1.15s-.51-.83-.79-1.24L51,69.25c-.27-.36-.51-.66-.73-.91Z"/><path d="M71.3,61.9v2.21L56.66,66V63.82l3.27-.43.25-1-2.39.31V60.84l2.84-.37.21-.87-3.4.44V57.85l13.08-1.73v2.2l-6.85.9-.21.88,6-.79-.15,2.85ZM58.11,66.56,69.86,65v5.63L58.11,72.19Zm2.59,3.09,6.44-.84V67.52l-6.44.85ZM62.78,63l3.87-.51.07-.95L63,62.05Z"/><path d="M78,64.55c-.17.37-.39.79-.65,1.25s-.54,1-.84,1.44-.6,1-.9,1.43-.59.88-.85,1.25l-2.34-1.13c.27-.36.56-.76.87-1.21s.61-.9.9-1.36.55-.91.79-1.36.43-.83.58-1.18Zm4-1.85v4.12A4.05,4.05,0,0,1,81.84,68a1.56,1.56,0,0,1-.45.73,2.12,2.12,0,0,1-.8.45c-.33.12-.74.23-1.22.35l-1.17.29-.83-2.6.9-.21a2.17,2.17,0,0,0,.72-.28.6.6,0,0,0,.21-.54V63.07l-5.6.74.58-7.74c.62-.08,1.28-.18,2-.29s1.4-.22,2.11-.34l2.14-.39c.72-.13,1.4-.27,2.07-.41s1.28-.27,1.87-.41,1.1-.26,1.56-.39l.55,2.63L84.38,57c-.77.17-1.57.34-2.42.5s-1.71.33-2.59.49l-2.58.45-.18,2.55,2.59-.34V58.38l2.78-.3v2.15l4.93-.65v2.47Zm2.71-.22q.27.29.66.78l.83,1.08c.29.39.58.79.86,1.2s.53.81.76,1.18l-2.36,1.82c-.18-.35-.4-.74-.65-1.16s-.51-.82-.79-1.23-.54-.78-.81-1.14-.51-.66-.72-.91Z"/></g></g></svg>