<svg id="图层_2" data-name="图层 2" xmlns="http://www.w3.org/2000/svg" viewBox="0 0 128 128"><defs><style>.cls-1,.cls-2{fill:none;stroke-linejoin:round;}.cls-1{stroke:#fd3333;}.cls-2{stroke:#fb3433;}.cls-3{fill:#fdff40;}.cls-4{fill:#73ff71;}.cls-5{fill:#fd3333;}.cls-6{fill:#fbfd40;}.cls-7{fill:#08c9fd;}.cls-8{fill:#fb3433;}.cls-9{opacity:0.16;}</style></defs><title>g</title><g id="运行水电厂"><rect class="cls-1" y="70.5" width="128" height="57.5"/><rect class="cls-1" y="70.5" width="128" height="57.5"/><rect class="cls-1" y="70.5" width="128" height="57.5"/><rect class="cls-1" y="70.5" width="128" height="57.5"/><rect class="cls-2" width="128" height="57.5"/><path class="cls-3" d="M35.8,108.32H34.34L32,101.94H25l-2.31,6.38H21.19l6.57-18.14h1.47Zm-7.34-16.1-3,8.4h6.15l-3-8.4Z"/><path class="cls-4" d="M66.59,98.84a5.25,5.25,0,0,1,3.21,1.41A4,4,0,0,1,71,103.19a4.39,4.39,0,0,1-1.87,3.8,9.13,9.13,0,0,1-5.35,1.33h-5V90.18h4.9a8,8,0,0,1,4.69,1.17,4.17,4.17,0,0,1,.72,5.93,4.51,4.51,0,0,1-2.51,1.44ZM60.18,91.5v6.65h3.68a5.78,5.78,0,0,0,3.46-.92,2.92,2.92,0,0,0,1.26-2.52,2.66,2.66,0,0,0-1.32-2.37,7,7,0,0,0-3.74-.84ZM63.52,107A8.08,8.08,0,0,0,68,106a3.24,3.24,0,0,0,1.55-2.88A3,3,0,0,0,68,100.4a7.86,7.86,0,0,0-4.17-.93H60.18V107Z"/><path class="cls-5" d="M106.79,105.8a6.29,6.29,0,0,1-2.46,2.1,7.36,7.36,0,0,1-3.35.76,7.49,7.49,0,0,1-7.09-4.5,11.85,11.85,0,0,1-1-5,11.37,11.37,0,0,1,1-4.9A7.59,7.59,0,0,1,96.72,91,7.94,7.94,0,0,1,101,89.84a7.33,7.33,0,0,1,3.3.76,6.65,6.65,0,0,1,2.53,2.1l-1.1.81a5.69,5.69,0,0,0-2.12-1.71,5.92,5.92,0,0,0-2.63-.64,6.13,6.13,0,0,0-5.83,3.78,10.07,10.07,0,0,0-.82,4.21,10.52,10.52,0,0,0,.82,4.31,6.47,6.47,0,0,0,2.32,2.87,6.21,6.21,0,0,0,3.51,1,6.09,6.09,0,0,0,2.65-.61,5.6,5.6,0,0,0,2.1-1.77Z"/><path class="cls-6" d="M35.8,37.82H34.34L32,31.44H25l-2.31,6.38H21.19l6.57-18.14h1.47Zm-7.34-16.1-3,8.4h6.15l-3-8.4Z"/><path class="cls-7" d="M66.59,28.34a5.25,5.25,0,0,1,3.21,1.41A4,4,0,0,1,71,32.69a4.39,4.39,0,0,1-1.87,3.8,9.13,9.13,0,0,1-5.35,1.33h-5V19.68h4.9a8,8,0,0,1,4.69,1.17A3.86,3.86,0,0,1,70,24.19a3.82,3.82,0,0,1-.92,2.59,4.51,4.51,0,0,1-2.51,1.44ZM60.18,21v6.65h3.68a5.78,5.78,0,0,0,3.46-.92,2.92,2.92,0,0,0,1.26-2.52,2.66,2.66,0,0,0-1.32-2.37A7,7,0,0,0,63.52,21Zm3.34,15.5a8.08,8.08,0,0,0,4.45-1,3.24,3.24,0,0,0,1.55-2.88A3,3,0,0,0,68,29.9,7.86,7.86,0,0,0,63.86,29H60.18V36.5Z"/><path class="cls-8" d="M106.79,35.3a6.29,6.29,0,0,1-2.46,2.1,7.36,7.36,0,0,1-3.35.76,7.49,7.49,0,0,1-7.09-4.5,11.85,11.85,0,0,1-1-5,11.37,11.37,0,0,1,1-4.9,7.59,7.59,0,0,1,2.83-3.26A7.94,7.94,0,0,1,101,19.34a7.33,7.33,0,0,1,3.3.76,6.65,6.65,0,0,1,2.53,2.1l-1.1.81a5.69,5.69,0,0,0-2.12-1.71,5.92,5.92,0,0,0-2.63-.64,6.13,6.13,0,0,0-5.83,3.78,10.07,10.07,0,0,0-.82,4.21A10.52,10.52,0,0,0,95.13,33a6.47,6.47,0,0,0,2.32,2.87,6.21,6.21,0,0,0,3.51,1,6.09,6.09,0,0,0,2.65-.61,5.6,5.6,0,0,0,2.1-1.77Z"/><g class="cls-9"><path d="M45.78,68.79c-.17.37-.39.79-.65,1.25s-.54.95-.84,1.44-.6,1-.9,1.43-.59.88-.85,1.25L40.2,73c.27-.37.56-.77.87-1.22s.61-.9.89-1.36.55-.91.79-1.36.44-.83.59-1.18Zm4-1.85v4.12a4.1,4.1,0,0,1-.13,1.17,1.74,1.74,0,0,1-.45.73,2.42,2.42,0,0,1-.81.46c-.33.11-.73.23-1.21.34L46,74.05l-.83-2.59.9-.22a2.73,2.73,0,0,0,.72-.27.65.65,0,0,0,.2-.55V67.31l-5.59.74L42,60.31c.62-.08,1.28-.18,2-.29s1.4-.22,2.11-.34l2.14-.39c.71-.13,1.4-.27,2.06-.41s1.29-.27,1.87-.41,1.11-.26,1.57-.39l.55,2.63-2.08.48c-.76.17-1.57.34-2.41.5l-2.6.49-2.58.45-.17,2.55L47,64.84V62.63l2.78-.31v2.15l4.93-.65v2.47Zm2.72-.22c.17.19.39.45.65.78s.54.69.83,1.08.58.79.86,1.2.54.81.77,1.18l-2.36,1.82c-.18-.35-.4-.74-.65-1.15s-.51-.83-.79-1.24L51,69.25c-.27-.36-.51-.66-.73-.91Z"/><path d="M71.3,61.9v2.21L56.66,66V63.82l3.27-.43.25-1-2.39.31V60.84l2.84-.37.21-.87-3.4.44V57.85l13.08-1.73v2.2l-6.85.9-.21.88,6-.79-.15,2.85ZM58.11,66.56,69.86,65v5.63L58.11,72.19Zm2.59,3.09,6.44-.84V67.52l-6.44.85ZM62.78,63l3.87-.51.07-.95L63,62.05Z"/><path d="M78,64.55c-.17.37-.39.79-.65,1.25s-.54,1-.84,1.44-.6,1-.9,1.43-.59.88-.85,1.25l-2.34-1.13c.27-.36.56-.76.87-1.21s.61-.9.9-1.36.55-.91.79-1.36.43-.83.58-1.18Zm4-1.85v4.12A4.05,4.05,0,0,1,81.84,68a1.56,1.56,0,0,1-.45.73,2.12,2.12,0,0,1-.8.45c-.33.12-.74.23-1.22.35l-1.17.29-.83-2.6.9-.21a2.17,2.17,0,0,0,.72-.28.6.6,0,0,0,.21-.54V63.07l-5.6.74.58-7.74c.62-.08,1.28-.18,2-.29s1.4-.22,2.11-.34l2.14-.39c.72-.13,1.4-.27,2.07-.41s1.28-.27,1.87-.41,1.1-.26,1.56-.39l.55,2.63L84.38,57c-.77.17-1.57.34-2.42.5s-1.71.33-2.59.49l-2.58.45-.18,2.55,2.59-.34V58.38l2.78-.3v2.15l4.93-.65v2.47Zm2.71-.22q.27.29.66.78l.83,1.08c.29.39.58.79.86,1.2s.53.81.76,1.18l-2.36,1.82c-.18-.35-.4-.74-.65-1.16s-.51-.82-.79-1.23-.54-.78-.81-1.14-.51-.66-.72-.91Z"/></g></g></svg>