<svg id="图层_2" data-name="图层 2" xmlns="http://www.w3.org/2000/svg" viewBox="0 0 128 128"><defs><style>.cls-1{fill:none;}.cls-1,.cls-2{stroke:#333;stroke-linejoin:round;}.cls-2,.cls-3{fill:#333;}.cls-4{opacity:0.16;}</style></defs><title>g</title><g id="运行水电厂"><circle class="cls-1" cx="64" cy="75.07" r="52.93"/><line class="cls-1" x1="36.22" y1="98.73" x2="91.78" y2="98.75"/><rect class="cls-2" x="36.22" y="110.32" width="4.34" height="2.17"/><rect class="cls-2" x="44.76" y="110.32" width="4.34" height="2.17"/><rect class="cls-2" x="53.29" y="110.32" width="4.34" height="2.17"/><rect class="cls-2" x="61.83" y="110.33" width="4.34" height="2.17"/><rect class="cls-2" x="70.37" y="110.33" width="4.34" height="2.17"/><rect class="cls-2" x="78.9" y="110.33" width="4.34" height="2.17"/><rect class="cls-2" x="87.44" y="110.33" width="4.34" height="2.17"/><line class="cls-1" x1="64" x2="64" y2="22.14"/><path class="cls-3" d="M61.84,55.78a8.69,8.69,0,0,0-3.23,3.84,14.1,14.1,0,0,0-1.12,5.85,14.27,14.27,0,0,0,1.11,5.85,8.68,8.68,0,0,0,3.16,3.84,8.59,8.59,0,0,0,4.82,1.35,9.37,9.37,0,0,0,7.11-3.3V66.43H67.84v-.66h6.51v7.68a10.36,10.36,0,0,1-7.77,3.69,9.34,9.34,0,0,1-5.18-1.43,9.17,9.17,0,0,1-3.39-4,14.93,14.93,0,0,1-1.18-6.19A14.66,14.66,0,0,1,58,59.29a9.29,9.29,0,0,1,3.45-4.07,9.6,9.6,0,0,1,5.27-1.42,8.85,8.85,0,0,1,3.76.81,8.34,8.34,0,0,1,3,2.31L73,57.4a7.4,7.4,0,0,0-2.73-2.21,8.18,8.18,0,0,0-3.54-.76A8.9,8.9,0,0,0,61.84,55.78Z"/><g class="cls-4"><path d="M39.48-.69c-.18.36-.39.78-.65,1.25S38.29,1.51,38,2s-.6,1-.91,1.43-.58.88-.84,1.25L33.9,3.55c.27-.36.56-.76.87-1.21s.6-.9.89-1.36.55-.91.79-1.36.43-.84.59-1.18Zm4-1.85V1.58a3.73,3.73,0,0,1-.14,1.17,1.63,1.63,0,0,1-.44.73,2.25,2.25,0,0,1-.81.45c-.33.12-.73.23-1.21.35l-1.17.28L38.86,2l.89-.21a2.35,2.35,0,0,0,.73-.28.62.62,0,0,0,.2-.54V-2.17l-5.6.73.59-7.73,2-.29,2.1-.34c.72-.12,1.43-.25,2.14-.39L44-10.6c.66-.13,1.29-.27,1.87-.41s1.11-.26,1.56-.39l.56,2.63-2.08.47c-.76.18-1.57.34-2.41.51l-2.6.49-2.58.45L38.09-4.3l2.59-.34V-6.86l2.78-.3V-5l4.93-.65v2.47Zm2.72-.22c.17.19.39.45.65.78s.54.69.83,1.08.58.79.86,1.2.54.81.77,1.18L46.93,3.3c-.19-.35-.4-.74-.65-1.16s-.52-.82-.79-1.23-.55-.78-.82-1.14A10.36,10.36,0,0,0,44-1.14Z"/><path d="M65-7.59v2.22L50.36-3.45V-5.66l3.27-.43.24-1-2.39.31V-8.64L54.33-9l.21-.88-3.4.45v-2.2l13.08-1.72v2.2l-6.85.9-.21.88,6-.79L63-7.32ZM51.81-2.92,63.56-4.47V1.16L51.81,2.71ZM54.4.17l6.44-.85V-2l-6.44.85Zm2.08-6.63L60.35-7l.07-1-3.71.49Z"/><path d="M71.69-4.94c-.17.37-.39.79-.65,1.26s-.54,1-.84,1.44-.6,1-.9,1.43-.59.88-.85,1.25L66.11-.69c.27-.36.56-.76.87-1.21s.61-.9.89-1.36.55-.91.79-1.36.44-.84.59-1.18Zm4-1.84v4.12a4.05,4.05,0,0,1-.14,1.17,1.56,1.56,0,0,1-.45.73,2.17,2.17,0,0,1-.81.45c-.33.12-.73.23-1.21.35L71.9.32l-.83-2.59.9-.21a2.37,2.37,0,0,0,.72-.28c.14-.09.2-.27.2-.55v-3.1l-5.59.73.58-7.74c.62-.08,1.28-.17,2-.28L72-14l2.14-.39,2.06-.41c.66-.14,1.29-.27,1.87-.41l1.57-.39L80.15-13l-2.07.47c-.77.18-1.57.34-2.42.51l-2.6.49-2.57.45-.18,2.55,2.58-.34V-11.1l2.79-.3v2.15L80.6-9.9v2.47ZM78.39-7c.18.2.39.46.65.79s.54.69.83,1.08.58.79.87,1.2.53.81.76,1.18L79.14-.94c-.18-.35-.4-.74-.65-1.16S78-2.92,77.7-3.33l-.81-1.14c-.27-.36-.51-.67-.73-.91Z"/></g><g class="cls-4"><path d="M87-.69c-.18.36-.39.78-.65,1.25s-.54,1-.84,1.44-.6,1-.91,1.43-.58.88-.84,1.25L81.4,3.55c.27-.36.56-.76.87-1.21s.6-.9.89-1.36S83.71.07,84-.38s.43-.84.59-1.18Zm4-1.85V1.58a3.73,3.73,0,0,1-.14,1.17,1.63,1.63,0,0,1-.44.73,2.25,2.25,0,0,1-.81.45c-.33.12-.73.23-1.21.35l-1.17.28L86.36,2l.89-.21A2.35,2.35,0,0,0,88,1.48a.62.62,0,0,0,.2-.54V-2.17l-5.6.73.59-7.73,2-.29,2.1-.34c.72-.12,1.43-.25,2.14-.39l2.07-.41c.66-.13,1.29-.27,1.87-.41s1.11-.26,1.56-.39l.56,2.63-2.08.47c-.76.18-1.57.34-2.41.51l-2.6.49-2.58.45L85.59-4.3l2.59-.34V-6.86L91-7.16V-5l4.93-.65v2.47Zm2.72-.22c.17.19.39.45.65.78s.54.69.83,1.08.58.79.86,1.2.54.81.77,1.18L94.43,3.3c-.19-.35-.4-.74-.65-1.16S93.26,1.32,93,.91s-.55-.78-.82-1.14a10.36,10.36,0,0,0-.72-.91Z"/><path d="M112.5-7.59v2.22L97.86-3.45V-5.66l3.27-.43.24-1L99-6.75V-8.64L101.83-9l.21-.88-3.4.45v-2.2l13.08-1.72v2.2l-6.85.9-.21.88,6-.79-.15,2.85ZM99.31-2.92l11.75-1.55V1.16L99.31,2.71ZM101.9.17l6.44-.85V-2l-6.44.85ZM104-6.46,107.85-7l.07-1-3.71.49Z"/><path d="M119.19-4.94c-.17.37-.39.79-.65,1.26s-.54,1-.84,1.44-.6,1-.9,1.43-.59.88-.85,1.25L113.61-.69c.27-.36.56-.76.87-1.21s.61-.9.89-1.36.55-.91.79-1.36.44-.84.59-1.18Zm4-1.84v4.12A4.05,4.05,0,0,1,123-1.49a1.56,1.56,0,0,1-.45.73,2.17,2.17,0,0,1-.81.45c-.33.12-.73.23-1.21.35L119.4.32l-.83-2.59.9-.21a2.37,2.37,0,0,0,.72-.28c.14-.09.2-.27.2-.55v-3.1l-5.59.73.58-7.74c.62-.08,1.28-.17,2-.28l2.11-.34,2.14-.39,2.06-.41c.66-.14,1.29-.27,1.87-.41l1.57-.39.55,2.63-2.07.47c-.77.18-1.57.34-2.42.51l-2.6.49-2.57.45-.18,2.55,2.58-.34V-11.1l2.79-.3v2.15l4.92-.65v2.47ZM125.89-7c.18.2.39.46.65.79s.54.69.83,1.08.58.79.87,1.2.53.81.76,1.18L126.64-.94c-.18-.35-.4-.74-.65-1.16s-.51-.82-.79-1.23l-.81-1.14c-.27-.36-.51-.67-.73-.91Z"/></g><g class="cls-4"><path d="M124.87,3.21c-.17.37-.39.79-.65,1.26s-.54,1-.84,1.44-.6,1-.9,1.42-.59.88-.85,1.25l-2.34-1.12c.27-.36.56-.76.87-1.21s.61-.9.9-1.36.55-.92.79-1.36.43-.84.58-1.18Zm4-1.84V5.48a4.18,4.18,0,0,1-.14,1.18,1.61,1.61,0,0,1-.45.73,2.27,2.27,0,0,1-.8.45c-.33.11-.74.23-1.22.35l-1.17.28-.83-2.59.9-.22a2.2,2.2,0,0,0,.72-.27.62.62,0,0,0,.21-.55V1.73l-5.6.74.58-7.74c.62-.08,1.28-.17,2-.28l2.11-.34,2.14-.39,2.07-.41c.66-.14,1.28-.27,1.87-.41l1.56-.39.55,2.63-2.07.47-2.42.51-2.59.48-2.58.46L123.49-.4l2.59-.34V-2.95l2.78-.3V-1.1l4.93-.65V.72Zm2.71-.23c.18.2.4.46.66.79L133.06,3c.29.4.58.8.86,1.21s.53.8.76,1.18l-2.36,1.82c-.18-.36-.4-.74-.65-1.16s-.51-.83-.79-1.23-.54-.78-.81-1.15-.51-.66-.72-.9Z"/></g><g class="cls-4"><path d="M45.78,68.79c-.17.37-.39.79-.65,1.25s-.54.95-.84,1.44-.6,1-.9,1.43-.59.88-.85,1.25L40.2,73c.27-.37.56-.77.87-1.22s.61-.9.89-1.36.55-.91.79-1.36.44-.83.59-1.18Zm4-1.85v4.12a4.1,4.1,0,0,1-.13,1.17,1.74,1.74,0,0,1-.45.73,2.42,2.42,0,0,1-.81.46c-.33.11-.73.23-1.21.34L46,74.05l-.83-2.59.9-.22a2.73,2.73,0,0,0,.72-.27.65.65,0,0,0,.2-.55V67.31l-5.59.74L42,60.31c.62-.08,1.28-.18,2-.29s1.4-.22,2.11-.34l2.14-.39c.71-.13,1.4-.27,2.06-.41s1.29-.27,1.87-.41,1.11-.26,1.57-.39l.55,2.63-2.08.48c-.76.17-1.57.34-2.41.5l-2.6.49-2.58.45-.17,2.55L47,64.84V62.63l2.78-.31v2.15l4.93-.65v2.47Zm2.72-.22c.17.19.39.45.65.78s.54.69.83,1.08.58.79.86,1.2.54.81.77,1.18l-2.36,1.82c-.18-.35-.4-.74-.65-1.15s-.51-.83-.79-1.24L51,69.25c-.27-.36-.51-.66-.73-.91Z"/><path d="M71.3,61.9v2.21L56.66,66V63.82l3.27-.43.25-1-2.39.31V60.84l2.84-.37.21-.87-3.4.44V57.85l13.08-1.73v2.2l-6.85.9-.21.88,6-.79-.15,2.85ZM58.11,66.56,69.86,65v5.63L58.11,72.19Zm2.59,3.09,6.44-.84V67.52l-6.44.85ZM62.78,63l3.87-.51.07-.95L63,62.05Z"/><path d="M78,64.55c-.17.37-.39.79-.65,1.25s-.54,1-.84,1.44-.6,1-.9,1.43-.59.88-.85,1.25l-2.34-1.13c.27-.36.56-.76.87-1.21s.61-.9.9-1.36.55-.91.79-1.36.43-.83.58-1.18Zm4-1.85v4.12A4.05,4.05,0,0,1,81.84,68a1.56,1.56,0,0,1-.45.73,2.12,2.12,0,0,1-.8.45c-.33.12-.74.23-1.22.35l-1.17.29-.83-2.6.9-.21a2.17,2.17,0,0,0,.72-.28.6.6,0,0,0,.21-.54V63.07l-5.6.74.58-7.74c.62-.08,1.28-.18,2-.29s1.4-.22,2.11-.34l2.14-.39c.72-.13,1.4-.27,2.07-.41s1.28-.27,1.87-.41,1.1-.26,1.56-.39l.55,2.63L84.38,57c-.77.17-1.57.34-2.42.5s-1.71.33-2.59.49l-2.58.45-.18,2.55,2.59-.34V58.38l2.78-.3v2.15l4.93-.65v2.47Zm2.71-.22q.27.29.66.78l.83,1.08c.29.39.58.79.86,1.2s.53.81.76,1.18l-2.36,1.82c-.18-.35-.4-.74-.65-1.16s-.51-.82-.79-1.23-.54-.78-.81-1.14-.51-.66-.72-.91Z"/></g></g></svg>