<svg id="图层_2" data-name="图层 2" xmlns="http://www.w3.org/2000/svg" viewBox="0 0 128 128"><defs><style>.cls-1,.cls-3{fill:#333;}.cls-2{fill:none;}.cls-2,.cls-3{stroke:#333;stroke-linejoin:round;}.cls-4{opacity:0.16;}</style></defs><title>g</title><g id="运行水电厂"><path class="cls-1" d="M127,1V127H1V1H127m1-1H0V128H128V0Z"/><line class="cls-2" x1="127.5" y1="63.63" x2="0.5" y2="63.63"/><line class="cls-2" x1="0.69" y1="81.69" x2="18.38" y2="64.01"/><line class="cls-2" x1="107.5" y1="127.5" x2="127.5" y2="107.5"/><line class="cls-2" x1="0.5" y1="96.5" x2="33.5" y2="63.5"/><line class="cls-2" x1="90.5" y1="127.5" x2="127.5" y2="90.5"/><line class="cls-2" x1="0.5" y1="112.5" x2="49.5" y2="63.5"/><line class="cls-2" x1="70.5" y1="127.5" x2="127.5" y2="70.5"/><line class="cls-2" x1="0.5" y1="127.5" x2="64.5" y2="63.5"/><line class="cls-2" x1="16.5" y1="127.5" x2="80.72" y2="63.6"/><line class="cls-2" x1="33.5" y1="127.5" x2="97.59" y2="63.6"/><line class="cls-2" x1="52.5" y1="127.5" x2="115.97" y2="63.6"/><line class="cls-2" x1="45.32" y1="16.67" x2="60.72" y2="41.99"/><line class="cls-2" x1="45.36" y1="16.73" x2="60.75" y2="42.05"/><line class="cls-2" x1="45.39" y1="16.79" x2="60.79" y2="42.11"/><line class="cls-2" x1="45.36" y1="16.73" x2="60.75" y2="42.05"/><line class="cls-2" x1="45.32" y1="16.67" x2="60.72" y2="41.99"/><line class="cls-2" x1="45.28" y1="16.61" x2="60.68" y2="41.93"/><line class="cls-2" x1="45.24" y1="16.54" x2="60.64" y2="41.87"/><line class="cls-2" x1="45.21" y1="16.48" x2="60.6" y2="41.81"/><line class="cls-2" x1="45.17" y1="16.42" x2="56.73" y2="35.44"/><polygon class="cls-3" points="61.83 43.76 59.17 33.96 54.36 36.89 61.83 43.76"/><line class="cls-2" x1="62.25" y1="12.65" x2="77.64" y2="37.98"/><line class="cls-2" x1="62.28" y1="12.72" x2="77.68" y2="38.04"/><line class="cls-2" x1="62.32" y1="12.78" x2="77.72" y2="38.1"/><line class="cls-2" x1="62.28" y1="12.72" x2="77.68" y2="38.04"/><line class="cls-2" x1="62.25" y1="12.65" x2="77.64" y2="37.98"/><line class="cls-2" x1="62.21" y1="12.59" x2="77.61" y2="37.92"/><line class="cls-2" x1="62.17" y1="12.53" x2="77.57" y2="37.86"/><line class="cls-2" x1="62.13" y1="12.47" x2="77.53" y2="37.79"/><line class="cls-2" x1="62.1" y1="12.41" x2="73.66" y2="31.43"/><polygon class="cls-3" points="78.76 39.75 76.1 29.95 71.28 32.88 78.76 39.75"/><g class="cls-4"><path d="M45.78,68.79c-.17.37-.39.79-.65,1.25s-.54.95-.84,1.44-.6,1-.9,1.43-.59.88-.85,1.25L40.2,73c.27-.37.56-.77.87-1.22s.61-.9.89-1.36.55-.91.79-1.36.44-.83.59-1.18Zm4-1.85v4.12a4.1,4.1,0,0,1-.13,1.17,1.74,1.74,0,0,1-.45.73,2.42,2.42,0,0,1-.81.46c-.33.11-.73.23-1.21.34L46,74.05l-.83-2.59.9-.22a2.73,2.73,0,0,0,.72-.27.65.65,0,0,0,.2-.55V67.31l-5.59.74L42,60.31c.62-.08,1.28-.18,2-.29s1.4-.22,2.11-.34l2.14-.39c.71-.13,1.4-.27,2.06-.41s1.29-.27,1.87-.41,1.11-.26,1.57-.39l.55,2.63-2.08.48c-.76.17-1.57.34-2.41.5l-2.6.49-2.58.45-.17,2.55L47,64.84V62.63l2.78-.31v2.15l4.93-.65v2.47Zm2.72-.22c.17.19.39.45.65.78s.54.69.83,1.08.58.79.86,1.2.54.81.77,1.18l-2.36,1.82c-.18-.35-.4-.74-.65-1.15s-.51-.83-.79-1.24L51,69.25c-.27-.36-.51-.66-.73-.91Z"/><path d="M71.3,61.9v2.21L56.66,66V63.82l3.27-.43.25-1-2.39.31V60.84l2.84-.37.21-.87-3.4.44V57.85l13.08-1.73v2.2l-6.85.9-.21.88,6-.79-.15,2.85ZM58.11,66.56,69.86,65v5.63L58.11,72.19Zm2.59,3.09,6.44-.84V67.52l-6.44.85ZM62.78,63l3.87-.51.07-.95L63,62.05Z"/><path d="M78,64.55c-.17.37-.39.79-.65,1.25s-.54,1-.84,1.44-.6,1-.9,1.43-.59.88-.85,1.25l-2.34-1.13c.27-.36.56-.76.87-1.21s.61-.9.9-1.36.55-.91.79-1.36.43-.83.58-1.18Zm4-1.85v4.12A4.05,4.05,0,0,1,81.84,68a1.56,1.56,0,0,1-.45.73,2.12,2.12,0,0,1-.8.45c-.33.12-.74.23-1.22.35l-1.17.29-.83-2.6.9-.21a2.17,2.17,0,0,0,.72-.28.6.6,0,0,0,.21-.54V63.07l-5.6.74.58-7.74c.62-.08,1.28-.18,2-.29s1.4-.22,2.11-.34l2.14-.39c.72-.13,1.4-.27,2.07-.41s1.28-.27,1.87-.41,1.1-.26,1.56-.39l.55,2.63L84.38,57c-.77.17-1.57.34-2.42.5s-1.71.33-2.59.49l-2.58.45-.18,2.55,2.59-.34V58.38l2.78-.3v2.15l4.93-.65v2.47Zm2.71-.22q.27.29.66.78l.83,1.08c.29.39.58.79.86,1.2s.53.81.76,1.18l-2.36,1.82c-.18-.35-.4-.74-.65-1.16s-.51-.82-.79-1.23-.54-.78-.81-1.14-.51-.66-.72-.91Z"/></g></g></svg>