<svg id="图层_2" data-name="图层 2" xmlns="http://www.w3.org/2000/svg" viewBox="0 0 128 128"><defs><style>.cls-1{fill:#fff;}.cls-2{fill:#333;}.cls-3{fill:none;stroke:#333;stroke-linejoin:round;}.cls-4{opacity:0.16;}</style></defs><title>g</title><g id="运行水电厂"><rect class="cls-1" x="0.5" y="0.5" width="127" height="127"/><path class="cls-2" d="M127,1V127H1V1H127m1-1H0V128H128V0Z"/><line class="cls-3" x1="127.5" y1="0.5" x2="0.5" y2="127.5"/><line class="cls-3" x1="105.5" y1="22.13" x2="0.88" y2="22.13"/><line class="cls-3" x1="86.38" y1="41.31" x2="0.5" y2="41.31"/><line class="cls-3" x1="67.63" y1="60.56" x2="0.5" y2="60.56"/><line class="cls-3" x1="47.88" y1="79.93" x2="0.5" y2="79.93"/><line class="cls-3" x1="28.88" y1="99" x2="0.5" y2="99"/><g class="cls-4"><path d="M47,66.84c-.17.37-.39.79-.65,1.26s-.54,1-.84,1.44-.6,1-.9,1.43-.59.88-.85,1.25l-2.34-1.13c.27-.36.56-.76.87-1.21s.61-.9.9-1.36.55-.91.79-1.36.43-.84.58-1.18ZM51,65v4.12a4.05,4.05,0,0,1-.14,1.17,1.56,1.56,0,0,1-.45.73,2.12,2.12,0,0,1-.8.45c-.33.12-.74.23-1.21.35l-1.18.28-.83-2.59.9-.21A2.17,2.17,0,0,0,48,69a.61.61,0,0,0,.21-.55v-3.1l-5.6.73.59-7.74c.61-.08,1.27-.17,2-.28l2.11-.34,2.14-.39,2.07-.41c.66-.14,1.28-.27,1.87-.41s1.1-.27,1.56-.39l.55,2.63-2.07.47c-.77.18-1.57.34-2.42.51s-1.71.33-2.59.49l-2.58.45-.18,2.55,2.59-.34V60.68l2.78-.3v2.15l4.93-.65v2.47Zm2.72-.23c.17.2.39.46.65.79l.83,1.08c.29.39.58.79.86,1.2s.53.81.76,1.18l-2.36,1.82c-.18-.35-.4-.74-.65-1.16s-.51-.82-.79-1.23-.54-.78-.81-1.14-.51-.67-.72-.91Z"/><path d="M72.55,60v2.22L57.91,64.09V61.88l3.27-.43.24-1L59,60.79V58.9l2.85-.37.21-.88-3.4.45V55.9l13.08-1.72v2.2l-6.85.9-.21.87,6-.78-.14,2.85Zm-13.2,4.67L71.1,63.07V68.7L59.35,70.25Zm2.59,3.09,6.44-.85V65.58l-6.44.85ZM64,61.07l3.88-.5.06-1-3.71.49Z"/><path d="M79.24,62.6q-.27.55-.66,1.26c-.26.47-.53,1-.83,1.44s-.6,1-.91,1.42S76.26,67.6,76,68l-2.35-1.12c.28-.36.57-.76.88-1.21s.6-.9.89-1.36.55-.92.79-1.36.43-.84.58-1.18Zm4-1.84v4.12a3.77,3.77,0,0,1-.14,1.17,1.69,1.69,0,0,1-.44.73,2.25,2.25,0,0,1-.81.45c-.33.12-.73.23-1.21.35l-1.17.28-.83-2.59.89-.21a2.35,2.35,0,0,0,.73-.28.63.63,0,0,0,.2-.55v-3.1l-5.6.73.59-7.74c.62-.08,1.27-.17,2-.28l2.1-.34c.71-.12,1.43-.25,2.14-.39l2.07-.41c.66-.14,1.28-.27,1.87-.41l1.56-.39.56,2.63L85.62,55l-2.42.51L80.61,56,78,56.45,77.85,59l2.59-.34V56.44l2.78-.3v2.15l4.93-.65v2.47Zm2.72-.23c.17.2.39.46.65.79s.54.69.83,1.08.58.79.86,1.2.54.81.77,1.18L86.69,66.6c-.19-.36-.4-.74-.65-1.16s-.52-.83-.79-1.23-.55-.78-.82-1.14a9.05,9.05,0,0,0-.72-.91Z"/></g></g></svg>