<svg id="图层_2" data-name="图层 2" xmlns="http://www.w3.org/2000/svg" viewBox="0 0 128 128"><defs><style>.cls-1{fill:none;}.cls-1,.cls-1{stroke:#333;stroke-linejoin:round;}.cls-1,.cls-1{fill:#333;}.cls-1{opacity:0.16;}</style></defs><g id="运行水电厂"><circle class="cls-1" cx="113.86" cy="14.73" r="13.38"/><circle class="cls-1" cx="14.61" cy="14.73" r="13.38"/><circle class="cls-1" cx="14.61" cy="113.98" r="13.38"/><circle class="cls-1" cx="113.72" cy="113.85" r="13.38"/><line class="cls-1" x1="26.11" y1="26.49" x2="101.97" y2="102.35"/><line class="cls-1" x1="100.95" y1="28.51" x2="64.62" y2="64.83"/><path class="cls-1" d="M35.6,17.16h-.74l-.73-2.05H31.94l-.73,2.05h-.73l2.2-6.08h.72ZM33,12.09l-.84,2.36H33.9l-.84-2.36Z"/><path class="cls-1" d="M95,14a1.64,1.64,0,0,1,1,.46,1.32,1.32,0,0,1,.36,1,1.51,1.51,0,0,1-.63,1.3,2.94,2.94,0,0,1-1.79.46H92.12V11.08H94a2.65,2.65,0,0,1,1.58.41,1.33,1.33,0,0,1,.55,1.15,1.22,1.22,0,0,1-.28.82,1.49,1.49,0,0,1-.78.48Zm-2.21-2.25v1.91h1.07A2,2,0,0,0,95,13.39a.88.88,0,0,0,.38-.75A.73.73,0,0,0,95,12a2.06,2.06,0,0,0-1.1-.24Zm1,4.77a2.45,2.45,0,0,0,1.33-.3,1,1,0,0,0,.47-.85.85.85,0,0,0-.46-.78,2.65,2.65,0,0,0-1.32-.27H92.81v2.2Z"/><path class="cls-1" d="M96.74,115.33a2.31,2.31,0,0,1-.86.78,2.49,2.49,0,0,1-1.19.28,2.56,2.56,0,0,1-1.44-.4,2.66,2.66,0,0,1-1-1.12,3.93,3.93,0,0,1-.34-1.66,3.84,3.84,0,0,1,.34-1.64,2.6,2.6,0,0,1,1-1.1,2.71,2.71,0,0,1,1.44-.38,2.53,2.53,0,0,1,1.2.28,2.37,2.37,0,0,1,.85.78l-.56.38a1.67,1.67,0,0,0-.66-.57,1.76,1.76,0,0,0-.84-.22,1.83,1.83,0,0,0-1.06.31,2,2,0,0,0-.7.87,3.06,3.06,0,0,0-.26,1.29,3.19,3.19,0,0,0,.26,1.31,2,2,0,0,0,.7.89,1.77,1.77,0,0,0,1.06.32,1.69,1.69,0,0,0,.83-.22,1.88,1.88,0,0,0,.67-.58Z"/><g class="cls-1"></g></g></svg>