<svg id="图层_2" data-name="图层 2" xmlns="http://www.w3.org/2000/svg" viewBox="0 0 128 128"><defs><style>.cls-1{fill:none;}.cls-1,.cls-2{stroke:#333;stroke-linejoin:round;}.cls-2,.cls-3{fill:#333;}.cls-4{opacity:0.16;}</style></defs><g id="运行水电厂"><circle class="cls-1" cx="115.44" cy="14.84" r="13.38"/><circle class="cls-1" cx="16.2" cy="14.84" r="13.38"/><circle class="cls-1" cx="16.2" cy="114.08" r="13.38"/><circle class="cls-1" cx="115.31" cy="113.95" r="13.38"/><line class="cls-1" x1="103.56" y1="102.45" x2="27.7" y2="26.59"/><line class="cls-1" x1="28.72" y1="100.43" x2="65.04" y2="64.1"/><path class="cls-1" d="M37.18,17.27h-.73l-.73-2.06H33.53l-.73,2.06h-.74l2.2-6.08H35ZM34.6,12.2l-.84,2.36h1.73l-.84-2.36Z"/><path class="cls-1" d="M96.61,14.09a1.65,1.65,0,0,1,1,.47,1.3,1.3,0,0,1,.36.94,1.52,1.52,0,0,1-.62,1.31,3,3,0,0,1-1.79.46H93.71V11.19h1.83a2.66,2.66,0,0,1,1.58.4,1.36,1.36,0,0,1,.55,1.15,1.25,1.25,0,0,1-.28.83,1.54,1.54,0,0,1-.78.47ZM94.4,11.84v1.92h1.07a1.89,1.89,0,0,0,1.09-.27.85.85,0,0,0,.38-.74.74.74,0,0,0-.39-.67,2.09,2.09,0,0,0-1.1-.24Zm1,4.77a2.55,2.55,0,0,0,1.33-.29,1,1,0,0,0,.46-.86.85.85,0,0,0-.46-.78,2.59,2.59,0,0,0-1.31-.27H94.4v2.2Z"/><path class="cls-1" d="M98.32,115.43a2.21,2.21,0,0,1-.85.78,2.52,2.52,0,0,1-1.19.29A2.61,2.61,0,0,1,93.87,115a4.17,4.17,0,0,1,0-3.3,2.57,2.57,0,0,1,1-1.09,2.63,2.63,0,0,1,1.44-.39,2.59,2.59,0,0,1,1.2.29,2.16,2.16,0,0,1,.84.77l-.55.39a1.78,1.78,0,0,0-.66-.58,1.86,1.86,0,0,0-.84-.21,1.83,1.83,0,0,0-1.06.31,2,2,0,0,0-.71.86,3.3,3.3,0,0,0-.25,1.29,3.38,3.38,0,0,0,.25,1.32,2.12,2.12,0,0,0,.71.89,1.84,1.84,0,0,0,1.06.32,1.69,1.69,0,0,0,.83-.22,1.91,1.91,0,0,0,.67-.59Z"/><g class="cls-1"></g></g></svg>