<svg id="图层_2" data-name="图层 2" xmlns="http://www.w3.org/2000/svg" viewBox="0 0 128 128"><defs><style>.cls-1{fill:none;}.cls-1,.cls-2{stroke:#333;stroke-linejoin:round;}.cls-2,.cls-3{fill:#333;}.cls-4{opacity:0.16;}</style></defs><g id="运行水电厂"><circle class="cls-1" cx="113.34" cy="14.24" r="13.38"/><circle class="cls-1" cx="14.1" cy="14.24" r="13.38"/><circle class="cls-1" cx="14.1" cy="113.49" r="13.38"/><circle class="cls-1" cx="113.21" cy="113.36" r="13.38"/><line class="cls-1" x1="64.3" y1="64.7" x2="101.46" y2="101.86"/><line class="cls-1" x1="100.44" y1="28.02" x2="64.11" y2="64.34"/><path class="cls-1" d="M35.08,16.68h-.73l-.73-2.06H31.43l-.73,2.06H30l2.2-6.08h.72ZM32.5,11.6,31.66,14h1.73l-.84-2.36Z"/><path class="cls-1" d="M94.51,13.5a1.64,1.64,0,0,1,1,.46,1.32,1.32,0,0,1,.36.95,1.53,1.53,0,0,1-.62,1.31,3,3,0,0,1-1.79.46H91.61V10.6h1.83A2.66,2.66,0,0,1,95,11a1.36,1.36,0,0,1,.55,1.15,1.26,1.26,0,0,1-.28.83,1.54,1.54,0,0,1-.78.47ZM92.3,11.25v1.91h1.07a1.89,1.89,0,0,0,1.09-.26.86.86,0,0,0,.38-.74.74.74,0,0,0-.39-.67,2.09,2.09,0,0,0-1.1-.24Zm1,4.77a2.45,2.45,0,0,0,1.33-.3.94.94,0,0,0,.46-.85.85.85,0,0,0-.46-.78,2.59,2.59,0,0,0-1.31-.27H92.3V16Z"/><path class="cls-1" d="M96.22,114.84a2.21,2.21,0,0,1-.85.78,2.52,2.52,0,0,1-1.19.28,2.56,2.56,0,0,1-1.44-.4,2.6,2.6,0,0,1-1-1.12,3.93,3.93,0,0,1-.34-1.66,3.84,3.84,0,0,1,.34-1.64,2.57,2.57,0,0,1,1-1.09,2.63,2.63,0,0,1,1.44-.39,2.48,2.48,0,0,1,1.2.29,2.16,2.16,0,0,1,.84.77l-.55.39a1.7,1.7,0,0,0-.66-.58,1.88,1.88,0,0,0-.84-.22,1.91,1.91,0,0,0-1.06.31,2.12,2.12,0,0,0-.71.87,3.22,3.22,0,0,0-.25,1.29A3.36,3.36,0,0,0,92.4,114a2.15,2.15,0,0,0,.71.9,1.84,1.84,0,0,0,1.06.32A1.81,1.81,0,0,0,95,115a2,2,0,0,0,.67-.59Z"/><g class="cls-1"></g></g></svg>