<svg id="图层_2" data-name="图层 2" xmlns="http://www.w3.org/2000/svg" viewBox="0 0 128 128"><defs><style>.cls-1{fill:none;}.cls-1,.cls-2{stroke:#333;stroke-linejoin:round;}.cls-2,.cls-3{fill:#333;}.cls-4{opacity:0.16;}</style></defs><g id="运行水电厂"><circle class="cls-1" cx="113.6" cy="14.52" r="13.38"/><circle class="cls-1" cx="14.35" cy="14.52" r="13.38"/><circle class="cls-1" cx="14.35" cy="113.77" r="13.38"/><circle class="cls-1" cx="113.47" cy="113.64" r="13.38"/><line class="cls-1" x1="64.56" y1="64.98" x2="101.71" y2="102.14"/><line class="cls-1" x1="64.19" y1="64.8" x2="27.87" y2="101.12"/><path class="cls-1" d="M35.34,17H34.6l-.72-2.06h-2.2L31,17h-.74l2.2-6.08h.72Zm-2.58-5.08-.84,2.36h1.72l-.84-2.36Z"/><path class="cls-1" d="M94.77,13.78a1.64,1.64,0,0,1,1,.46,1.32,1.32,0,0,1,.36.95,1.52,1.52,0,0,1-.62,1.3,3,3,0,0,1-1.8.46H91.86V10.87H93.7a2.62,2.62,0,0,1,1.57.41,1.33,1.33,0,0,1,.55,1.15,1.22,1.22,0,0,1-.28.82,1.42,1.42,0,0,1-.77.48Zm-2.22-2.25v1.91h1.07a2,2,0,0,0,1.09-.26.86.86,0,0,0,.39-.75.73.73,0,0,0-.39-.66,2.11,2.11,0,0,0-1.1-.24Zm1.06,4.77a2.47,2.47,0,0,0,1.33-.3,1,1,0,0,0,.46-.85.83.83,0,0,0-.46-.78,2.63,2.63,0,0,0-1.32-.27H92.55v2.2Z"/><path class="cls-1" d="M96.48,115.12a2.24,2.24,0,0,1-.86.78,2.46,2.46,0,0,1-1.19.28,2.6,2.6,0,0,1-1.44-.4,2.63,2.63,0,0,1-1-1.12,3.79,3.79,0,0,1-.34-1.66,3.7,3.7,0,0,1,.34-1.64,2.49,2.49,0,0,1,1-1.09,2.68,2.68,0,0,1,1.44-.39,2.42,2.42,0,0,1,1.2.29,2.12,2.12,0,0,1,.85.77l-.55.39a1.62,1.62,0,0,0-.66-.58,1.89,1.89,0,0,0-.85-.22,1.86,1.86,0,0,0-1,.31,2,2,0,0,0-.71.87,3.06,3.06,0,0,0-.25,1.29,3.19,3.19,0,0,0,.25,1.31,2.13,2.13,0,0,0,.71.9,1.79,1.79,0,0,0,1,.32,1.85,1.85,0,0,0,.84-.22,2.12,2.12,0,0,0,.67-.59Z"/><g class="cls-1"></g></g></svg>