<svg id="图层_2" data-name="图层 2" xmlns="http://www.w3.org/2000/svg" viewBox="0 0 128 128"><defs><style>.cls-kh0k917j{fill:none;}.cls-kh0k917j,.cls-sekfoeyr7i94a7p{stroke:#333;stroke-linejoin:round;}.cls-sekfoeyr7i94a7p{fill:#333;}.cls-g585as7k{opacity:0.16;}</style></defs><g id="运行水电厂"><line class="cls-kh0k917j" x1="64.96" y1="118.93" x2="64.96" y2="128.45"/><line class="cls-kh0k917j" x1="64.96" y1="118.84" x2="64.96" y2="128.36"/><line class="cls-kh0k917j" x1="64.96" y1="118.75" x2="64.96" y2="128.26"/><line class="cls-kh0k917j" x1="64.96" y1="118.65" x2="64.96" y2="128.17"/><line class="cls-kh0k917j" x1="64.96" y1="118.56" x2="64.96" y2="128.08"/><line class="cls-kh0k917j" x1="64.96" y1="118.47" x2="64.96" y2="127.98"/><line class="cls-kh0k917j" x1="64.96" y1="118.37" x2="64.96" y2="127.89"/><line class="cls-kh0k917j" x1="64.96" y1="118.28" x2="64.96" y2="127.8"/><line class="cls-kh0k917j" x1="64.96" y1="118.19" x2="64.96" y2="127.7"/><line class="cls-kh0k917j" x1="64.96" y1="118.09" x2="64.96" y2="127.61"/><line class="cls-kh0k917j" x1="64.96" y1="118" x2="64.96" y2="127.52"/><line class="cls-kh0k917j" x1="64.96" y1="117.91" x2="64.96" y2="127.42"/><line class="cls-kh0k917j" x1="64.96" y1="117.81" x2="64.96" y2="127.33"/><line class="cls-kh0k917j" x1="64.96" y1="117.72" x2="64.96" y2="127.24"/><line class="cls-kh0k917j" x1="64.96" y1="117.63" x2="64.96" y2="127.14"/><line class="cls-kh0k917j" x1="64.96" y1="117.53" x2="64.96" y2="127.05"/><circle class="cls-kh0k917j" cx="64.96" cy="57.29" r="23.88"/><circle class="cls-kh0k917j" cx="64.96" cy="93.09" r="23.88"/><circle class="cls-kh0k917j" cx="64.96" cy="93.09" r="23.88"/><polygon class="cls-kh0k917j" points="64.96 86.38 54.9 103.8 75.02 103.8 64.96 86.38"/><path class="cls-kh0k917j" d="M65.27,10c.49.4,1,.81,1.47,1.22C78.17,20.88,84.11,35,87.78,50"/><line class="cls-kh0k917j" x1="65.22" y1="0.45" x2="65.22" y2="10"/><line class="cls-kh0k917j" x1="64.2" y1="53.64" x2="64.2" y2="67.29"/><line class="cls-kh0k917j" x1="73.3" y1="47.29" x2="64.17" y2="53.74"/><line class="cls-kh0k917j" x1="64.23" y1="53.74" x2="55.1" y2="47.29"/><circle class="cls-07i94a7p" cx="64.2" cy="53.51" r="1.02"/><line class="cls-kh0k917j" x1="64.2" y1="53.69" x2="74.82" y2="53.69"/><g class="cls-g585as7k"></g></g></svg>