<svg id="图层_2" data-name="图层 2" xmlns="http://www.w3.org/2000/svg" viewBox="0 0 128 128"><defs><style>.cls-1{fill:none;}.cls-1,.cls-1{stroke:#333;stroke-linejoin:round;}.cls-1{fill:#333;}.cls-1{opacity:0.16;}</style></defs><g id="运行水电厂"><circle class="cls-1" cx="64" cy="40.74" r="28.87"/><line class="cls-1" x1="64" y1="0.23" x2="64" y2="11.74"/><circle class="cls-1" cx="41.02" cy="85.02" r="28.87"/><line class="cls-1" x1="40.61" y1="114.27" x2="40.61" y2="127.75"/><circle class="cls-1" cx="86.98" cy="85.02" r="28.87"/><line class="cls-1" x1="86.98" y1="114.27" x2="86.98" y2="127.77"/><polygon class="cls-1" points="87.02 74.43 74.86 95.5 99.18 95.5 87.02 74.43"/><line class="cls-1" x1="40.52" y1="81.69" x2="40.52" y2="103.52"/><line class="cls-1" x1="55.08" y1="71.52" x2="40.47" y2="81.84"/><line class="cls-1" x1="40.56" y1="81.84" x2="25.96" y2="71.52"/><line class="cls-1" x1="64" y1="34.91" x2="64" y2="56.74"/><line class="cls-1" x1="78.56" y1="24.74" x2="63.95" y2="35.06"/><line class="cls-1" x1="64.05" y1="35.06" x2="49.44" y2="24.74"/><polygon class="cls-1" points="115.07 38.04 94.42 41.31 103.56 55.49 115.07 38.04"/><line class="cls-1" x1="13.3" y1="103.59" x2="109.25" y2="41.79"/><g class="cls-1"></g></g></svg>