<svg id="图层_2" data-name="图层 2" xmlns="http://www.w3.org/2000/svg" viewBox="0 0 128 128"><defs><style>.cls-fj82ny5fwvf74my{fill:none;}.cls-fj82ny5fwvf74my,.cls-tpyn2iw6qbc95du{stroke:#333;stroke-linejoin:round;}.cls-tpyn2iw6qbc95du{fill:#333;}.cls-q60yhtyk{opacity:0.16;}</style></defs><g id="运行水电厂"><circle class="cls-7wvf74my" cx="64" cy="40.74" r="28.87"/><line class="cls-7wvf74my" x1="64" y1="0.23" x2="64" y2="11.74"/><circle class="cls-7wvf74my" cx="41.02" cy="85.02" r="28.87"/><line class="cls-7wvf74my" x1="40.61" y1="114.27" x2="40.61" y2="127.75"/><circle class="cls-7wvf74my" cx="86.98" cy="85.02" r="28.87"/><line class="cls-7wvf74my" x1="86.98" y1="114.27" x2="86.98" y2="127.77"/><polygon class="cls-7wvf74my" points="86.98 74.43 74.82 95.5 99.14 95.5 86.98 74.43"/><line class="cls-7wvf74my" x1="62.78" y1="34.91" x2="62.78" y2="56.74"/><line class="cls-7wvf74my" x1="77.34" y1="24.74" x2="62.74" y2="35.06"/><line class="cls-7wvf74my" x1="62.83" y1="35.06" x2="48.22" y2="24.74"/><line class="cls-7wvf74my" x1="62.78" y1="34.99" x2="79.78" y2="34.99"/><circle class="cls-0qbc95du" cx="63.25" cy="34.46" r="1.64"/><line class="cls-7wvf74my" x1="39.8" y1="79.19" x2="39.8" y2="101.02"/><line class="cls-7wvf74my" x1="54.36" y1="69.02" x2="39.75" y2="79.34"/><line class="cls-7wvf74my" x1="39.84" y1="79.34" x2="25.24" y2="69.02"/><line class="cls-7wvf74my" x1="39.8" y1="79.27" x2="56.8" y2="79.27"/><circle class="cls-0qbc95du" cx="40.26" cy="78.74" r="1.64"/><polygon class="cls-0qbc95du" points="114.89 37.94 94.23 41.22 103.37 55.4 114.89 37.94"/><line class="cls-7wvf74my" x1="13.11" y1="103.5" x2="109.07" y2="41.69"/><g class="cls-q60yhtyk"></g></g></svg>