<svg id="图层_2" data-name="图层 2" xmlns="http://www.w3.org/2000/svg" viewBox="0 0 128 128"><defs><style>.cls-1{fill:none;}.cls-1,.cls-2{stroke:#333;stroke-linejoin:round;}.cls-2{fill:#333;}.cls-3{opacity:0.16;}</style></defs><title>g</title><g id="运行水电厂"><circle class="cls-1" cx="64" cy="40.74" r="28.87"/><line class="cls-1" x1="64" y1="0.23" x2="64" y2="11.74"/><circle class="cls-1" cx="41.02" cy="85.02" r="28.87"/><line class="cls-1" x1="40.61" y1="114.27" x2="40.61" y2="127.75"/><circle class="cls-1" cx="86.98" cy="85.02" r="28.87"/><line class="cls-1" x1="86.98" y1="114.27" x2="86.98" y2="127.77"/><polygon class="cls-1" points="41.02 74.43 28.86 95.5 53.18 95.5 41.02 74.43"/><line class="cls-1" x1="62.78" y1="34.91" x2="62.78" y2="56.74"/><line class="cls-1" x1="77.34" y1="24.74" x2="62.74" y2="35.06"/><line class="cls-1" x1="62.83" y1="35.06" x2="48.22" y2="24.74"/><line class="cls-1" x1="62.78" y1="34.99" x2="79.78" y2="34.99"/><circle class="cls-1" cx="63.25" cy="34.46" r="1.64"/><line class="cls-1" x1="88.76" y1="79.19" x2="88.76" y2="101.02"/><line class="cls-1" x1="103.32" y1="69.02" x2="88.72" y2="79.34"/><line class="cls-1" x1="88.81" y1="79.34" x2="74.2" y2="69.02"/><g class="cls-1"></g></g></svg>