<svg id="图层_2" data-name="图层 2" xmlns="http://www.w3.org/2000/svg" viewBox="0 0 128 128"><defs><style>.cls-1{fill:none;stroke:#323333;stroke-linejoin:round;}.cls-2{opacity:0.16;}</style></defs><title>g</title><g id="运行水电厂"><circle class="cls-1" cx="13.08" cy="25.55" r="12.78"/><circle class="cls-1" cx="13.08" cy="51.2" r="12.78"/><circle class="cls-1" cx="13.08" cy="76.85" r="12.78"/><circle class="cls-1" cx="13.08" cy="102.42" r="12.78"/><line class="cls-1" x1="13.08" y1="115.22" x2="13.08" y2="128"/><line class="cls-1" x1="13.04" x2="13.04" y2="12.78"/><line class="cls-1" x1="13.08" y1="12.78" x2="13.08" y2="113.46"/><circle class="cls-1" cx="114.92" cy="25.55" r="12.78"/><circle class="cls-1" cx="114.92" cy="51.2" r="12.78"/><circle class="cls-1" cx="114.92" cy="76.85" r="12.78"/><circle class="cls-1" cx="114.92" cy="102.42" r="12.78"/><line class="cls-1" x1="114.87" x2="114.87" y2="12.78"/><line class="cls-1" x1="114.92" y1="12.78" x2="114.92" y2="127.5"/><circle class="cls-1" cx="63.92" cy="25.55" r="12.78"/><circle class="cls-1" cx="63.92" cy="51.2" r="12.78"/><circle class="cls-1" cx="63.92" cy="76.85" r="12.78"/><circle class="cls-1" cx="63.92" cy="102.42" r="12.78"/><line class="cls-1" x1="63.87" x2="63.87" y2="12.78"/><line class="cls-1" x1="63.92" y1="12.78" x2="63.92" y2="127.5"/><g class="cls-1"></g></g></svg>