<svg id="图层_2" data-name="图层 2" xmlns="http://www.w3.org/2000/svg" viewBox="0 0 128 128"><defs><style>.cls-nhbi22qd{fill:none;stroke:#323333;stroke-linejoin:round;}.cls-km7r52ha{opacity:0.16;}</style></defs><g id="运行水电厂"><circle class="cls-nhbi22qd" cx="11.52" cy="21.3" r="10.65"/><circle class="cls-nhbi22qd" cx="11.52" cy="42.67" r="10.65"/><circle class="cls-nhbi22qd" cx="11.52" cy="64.05" r="10.65"/><circle class="cls-nhbi22qd" cx="11.52" cy="85.37" r="10.65"/><circle class="cls-nhbi22qd" cx="11.52" cy="106.68" r="10.65"/><line class="cls-nhbi22qd" x1="11.52" y1="117.35" x2="11.52" y2="128"/><line class="cls-nhbi22qd" x1="11.48" x2="11.48" y2="10.65"/><line class="cls-nhbi22qd" x1="11.52" y1="10.65" x2="11.52" y2="117.33"/><circle class="cls-nhbi22qd" cx="116.48" cy="21.3" r="10.65"/><circle class="cls-nhbi22qd" cx="116.48" cy="42.67" r="10.65"/><circle class="cls-nhbi22qd" cx="116.48" cy="64.05" r="10.65"/><circle class="cls-nhbi22qd" cx="116.48" cy="85.37" r="10.65"/><circle class="cls-nhbi22qd" cx="116.48" cy="106.68" r="10.65"/><line class="cls-nhbi22qd" x1="116.48" y1="117.35" x2="116.48" y2="128"/><line class="cls-nhbi22qd" x1="116.44" x2="116.44" y2="10.65"/><line class="cls-nhbi22qd" x1="116.47" y1="10.65" x2="116.47" y2="117.33"/><circle class="cls-nhbi22qd" cx="64" cy="21.3" r="10.65"/><circle class="cls-nhbi22qd" cx="64" cy="42.67" r="10.65"/><circle class="cls-nhbi22qd" cx="64" cy="64.05" r="10.65"/><circle class="cls-nhbi22qd" cx="64" cy="85.37" r="10.65"/><circle class="cls-nhbi22qd" cx="64" cy="106.68" r="10.65"/><line class="cls-nhbi22qd" x1="64" y1="117.35" x2="64" y2="128"/><line class="cls-nhbi22qd" x1="63.96" x2="63.96" y2="10.65"/><line class="cls-nhbi22qd" x1="64" y1="10.65" x2="64" y2="117.33"/><g class="cls-km7r52ha"></g></g></svg>