<svg id="图层_2" data-name="图层 2" xmlns="http://www.w3.org/2000/svg" viewBox="0 0 128 128"><defs><style>.cls-1{fill:none;stroke:#fd3333;stroke-linejoin:round;}.cls-2{fill:#fdff40;}.cls-3{fill:#1effff;}.cls-4{fill:#fd3333;}.cls-5{opacity:0.16;}</style></defs><g id="运行水电厂"><rect class="cls-1" width="128" height="128"/><path class="cls-1" d="M34.34,37.26H32.88l-2.3-6.39H23.52l-2.3,6.39H19.73L26.3,19.11h1.47ZM27,21.15l-3,8.4h6.14l-3-8.4Z"/><path class="cls-1" d="M26.65,99.74a5.19,5.19,0,0,1,3.2,1.41A4,4,0,0,1,31,104.09a4.39,4.39,0,0,1-1.88,3.8,9.11,9.11,0,0,1-5.35,1.33H18.85V91.08h4.89a8,8,0,0,1,4.7,1.17,4.17,4.17,0,0,1,.72,5.93,4.54,4.54,0,0,1-2.51,1.44ZM20.24,92.4v6.65h3.67a5.81,5.81,0,0,0,3.47-.92,2.92,2.92,0,0,0,1.26-2.52,2.66,2.66,0,0,0-1.32-2.37,7,7,0,0,0-3.74-.84Zm3.34,15.5a8.1,8.1,0,0,0,4.45-1A3.24,3.24,0,0,0,29.58,104a3,3,0,0,0-1.49-2.71,7.9,7.9,0,0,0-4.18-.93H20.24v7.53Z"/><path class="cls-1" d="M109.13,34.74a6.61,6.61,0,0,1-2.46,2.1,7.49,7.49,0,0,1-3.35.75,7.74,7.74,0,0,1-4.26-1.17,7.6,7.6,0,0,1-2.83-3.33,11.68,11.68,0,0,1-1-5,11.27,11.27,0,0,1,1-4.91,7.49,7.49,0,0,1,2.83-3.25,7.81,7.81,0,0,1,4.26-1.15,7.46,7.46,0,0,1,3.3.75,6.83,6.83,0,0,1,2.53,2.1l-1.1.82a5.93,5.93,0,0,0-2.13-1.72,6,6,0,0,0-2.63-.63,6.12,6.12,0,0,0-5.83,3.78,10.23,10.23,0,0,0-.81,4.21,10.72,10.72,0,0,0,.81,4.31,6.54,6.54,0,0,0,2.33,2.87,6.19,6.19,0,0,0,3.5,1,6,6,0,0,0,2.66-.61,5.58,5.58,0,0,0,2.1-1.76Z"/><g class="cls-1"></g></g></svg>