<svg id="图层_2" data-name="图层 2" xmlns="http://www.w3.org/2000/svg" viewBox="0 0 128 128"><defs><style>.cls-1{fill:none;stroke:#fb3433;stroke-linejoin:round;}.cls-2{fill:#fbfd40;}.cls-3{fill:#20fdfd;}.cls-4{fill:#fb3433;}.cls-5{opacity:0.16;}</style></defs><g id="运行水电厂"><rect class="cls-1" width="128" height="128"/><path class="cls-1" d="M103,45h-1.47l-2.3-6.38H92.15L89.85,45H88.36l6.58-18.14H96.4Zm-7.35-16.1-3,8.4h6.14l-3-8.4Z"/><path class="cls-1" d="M37.35,94a5.3,5.3,0,0,1,3.21,1.4,4,4,0,0,1,1.16,2.94,4.39,4.39,0,0,1-1.87,3.81,9.13,9.13,0,0,1-5.35,1.33H29.55V85.33h4.9a8,8,0,0,1,4.69,1.17,4.17,4.17,0,0,1,.72,5.93,4.51,4.51,0,0,1-2.51,1.44Zm-6.41-7.34v6.64h3.68a5.78,5.78,0,0,0,3.46-.91,2.94,2.94,0,0,0,1.26-2.52A2.66,2.66,0,0,0,38,87.49a7,7,0,0,0-3.74-.84Zm3.34,15.5a8.17,8.17,0,0,0,4.45-1,3.24,3.24,0,0,0,1.55-2.88,3,3,0,0,0-1.49-2.71,7.85,7.85,0,0,0-4.17-.94H30.94v7.54Z"/><path class="cls-1" d="M42.17,42a6.29,6.29,0,0,1-2.46,2.1,7.45,7.45,0,0,1-3.34.76,7.66,7.66,0,0,1-4.26-1.18,7.57,7.57,0,0,1-2.83-3.32,11.7,11.7,0,0,1-1-5,11.27,11.27,0,0,1,1-4.91,7.55,7.55,0,0,1,2.83-3.25A7.89,7.89,0,0,1,36.37,26a7.36,7.36,0,0,1,3.3.76,6.72,6.72,0,0,1,2.53,2.1l-1.11.81A5.69,5.69,0,0,0,39,28a5.89,5.89,0,0,0-2.63-.64,6.12,6.12,0,0,0-5.83,3.78,10.23,10.23,0,0,0-.81,4.21,10.72,10.72,0,0,0,.81,4.31,6.42,6.42,0,0,0,2.33,2.87,6.36,6.36,0,0,0,6.16.4,5.57,5.57,0,0,0,2.09-1.77Z"/><g class="cls-1"></g></g></svg>