<svg id="图层_2" data-name="图层 2" xmlns="http://www.w3.org/2000/svg" viewBox="0 0 128 128">
  <defs>
    <style>.cls-1,.cls-2{fill:none;stroke:#333;stroke-linejoin:round;}.cls-2{stroke-dasharray:2;}.cls-3{opacity:0.16;}</style>
  </defs>
  
  <g id="运行水电厂">
    <rect class="cls-1" y="24.7" width="128" height="78.61" />
    <line class="cls-1" y1="47.75" x2="21.25" y2="47.75" />
    <line class="cls-1" y1="36.75" x2="21.25" y2="36.75" />
    <line class="cls-1" y1="58.75" x2="21.25" y2="58.75" />
    <line class="cls-1" y1="69.63" x2="21.25" y2="69.63" />
    <line class="cls-1" y1="80.5" x2="21.25" y2="80.5" />
    <line class="cls-1" y1="91.38" x2="21.25" y2="91.38" />
    <line class="cls-1" x1="106.75" y1="47.75" x2="128" y2="47.75" />
    <line class="cls-1" x1="106.75" y1="36.75" x2="128" y2="36.75" />
    <line class="cls-1" x1="106.75" y1="58.75" x2="128" y2="58.75" />
    <line class="cls-1" x1="106.75" y1="69.63" x2="128" y2="69.63" />
    <line class="cls-1" x1="106.75" y1="80.5" x2="128" y2="80.5" />
    <line class="cls-1" x1="106.75" y1="91.38" x2="128" y2="91.38" />
    <line class="cls-1" x1="80.06" y1="47.75" x2="101.31" y2="47.75" />
    <line class="cls-1" x1="80.06" y1="36.75" x2="101.31" y2="36.75" />
    <line class="cls-1" x1="80.06" y1="58.75" x2="101.31" y2="58.75" />
    <line class="cls-1" x1="80.06" y1="69.63" x2="101.31" y2="69.63" />
    <line class="cls-1" x1="80.06" y1="80.5" x2="101.31" y2="80.5" />
    <line class="cls-1" x1="80.06" y1="91.38" x2="101.31" y2="91.38" />
    <line class="cls-1" x1="74.56" y1="93.63" x2="80.06" y2="93.63" />
    <line class="cls-1" x1="101.25" y1="93.63" x2="106.75" y2="93.63" />
    <line class="cls-1" x1="106.75" y1="87.06" x2="106.75" y2="95.69" />
    <line class="cls-1" x1="106.75" y1="76.19" x2="106.75" y2="84.81" />
    <line class="cls-1" x1="108.75" y1="49.75" x2="108.75" y2="61.75" />
    <line class="cls-1" x1="106.75" y1="64" x2="106.75" y2="72.63" />
    <line class="cls-1" x1="92" y1="93.63" x2="97.5" y2="93.63" />
    <line class="cls-1" x1="83.38" y1="93.63" x2="88.88" y2="93.63" />
    <line class="cls-1" x1="26.69" y1="47.75" x2="47.94" y2="47.75" />
    <line class="cls-1" x1="26.69" y1="36.75" x2="47.94" y2="36.75" />
    <line class="cls-1" x1="26.69" y1="58.75" x2="47.94" y2="58.75" />
    <line class="cls-1" x1="26.69" y1="69.63" x2="47.94" y2="69.63" />
    <line class="cls-1" x1="26.69" y1="80.5" x2="47.94" y2="80.5" />
    <line class="cls-1" x1="26.69" y1="91.38" x2="47.94" y2="91.38" />
    <line class="cls-1" x1="53.38" y1="47.75" x2="74.63" y2="47.75" />
    <line class="cls-1" x1="53.38" y1="36.75" x2="74.63" y2="36.75" />
    <line class="cls-1" x1="53.38" y1="58.75" x2="74.63" y2="58.75" />
    <line class="cls-1" x1="53.38" y1="69.63" x2="74.63" y2="69.63" />
    <line class="cls-1" x1="53.38" y1="80.5" x2="74.63" y2="80.5" />
    <line class="cls-1" x1="53.38" y1="91.38" x2="74.63" y2="91.38" />
    <line class="cls-1" x1="6.5" y1="81.88" x2="8.25" y2="91.38" />
    <line class="cls-1" x1="11.38" y1="81" x2="13.13" y2="90.5" />
    <line class="cls-1" x1="16.5" y1="81.13" x2="18.25" y2="90.63" />
    <line class="cls-1" x1="33" y1="38.38" x2="34.75" y2="47.88" />
    <line class="cls-1" x1="37.88" y1="37.5" x2="39.63" y2="47" />
    <line class="cls-1" x1="43" y1="37.63" x2="44.75" y2="47.13" />
    <line class="cls-1" x1="60.13" y1="81.63" x2="61.88" y2="91.13" />
    <line class="cls-1" x1="65" y1="80.75" x2="66.75" y2="90.25" />
    <line class="cls-1" x1="70.13" y1="80.88" x2="71.88" y2="90.38" />
    <line class="cls-1" x1="96.5" y1="38.38" x2="98.25" y2="47.88" />
    <line class="cls-1" x1="101.38" y1="37.5" x2="103.13" y2="47" />
    <line class="cls-1" x1="106.25" y1="36.63" x2="108" y2="46.13" />
    <g class="cls-1"></g>
  </g>
</svg>