<svg id="图层_2" data-name="图层 2" xmlns="http://www.w3.org/2000/svg" viewBox="0 0 128 128"><defs><style>.cls-1{fill:#333;}.cls-2{opacity:0.16;}</style></defs><g id="运行水电厂"><path class="cls-1" d="M127,1V127H1V1H127m1-1H0V128H128V0Z"/><path class="cls-1" d="M105.62,22.38v83.24H22.38V22.38h83.24m1-1H21.38v85.24h85.24V21.38Z"/><path class="cls-1" d="M68.19,40.83,38.75,86.21H69.34v1.34H37V86.27L66.46,40.9H37.86V39.55H68.19Z"/><path class="cls-1" d="M76,86.59a8.71,8.71,0,0,1-3-5.31l1.41-.45A8,8,0,0,0,77,85.47a7.47,7.47,0,0,0,5,1.63,6.69,6.69,0,0,0,5.63-2.56q2-2.55,2-7.29V39.55H91V77.44q0,5.31-2.34,8.16A8.16,8.16,0,0,1,82,88.45,9.21,9.21,0,0,1,76,86.59Z"/><g class="cls-1"></g></g></svg>