<svg id="图层_2" data-name="图层 2" xmlns="http://www.w3.org/2000/svg" viewBox="0 0 128 128"><defs><style>.cls-1{fill:none;stroke:#fd211c;stroke-linejoin:round;}.cls-2{fill:#fd211c;}.cls-3{opacity:0.16;}</style></defs><title>g</title><g id="运行水电厂"><rect class="cls-1" width="128" height="128"/><path class="cls-1" d="M30.47,93.35H28.89V34.48h1.58ZM45,103.29H43.41V25.76H45ZM99.11,38v1.49H63.91A111.48,111.48,0,0,1,51.5,58.76l-1.23-1A113.43,113.43,0,0,0,60.83,41.78a101.38,101.38,0,0,0,7.75-17.07l1.49.53A102.3,102.3,0,0,1,64.7,38ZM59.16,102.15H57.58V62.55H94.45v39.6H92.86V95.81H59.16Zm16.1-7.66V64H59.16V94.49Zm9-37.22q-2.82-3.17-6.82-7.35t-6.2-6.12l1.14-1q2.37,2.1,6.6,6.46t6.42,6.91ZM76.85,94.49h16V64h-16Z"/><g class="cls-1"></g></g></svg>