<svg id="图层_2" data-name="图层 2" xmlns="http://www.w3.org/2000/svg" viewBox="0 0 128 128"><defs><style>.cls-eh9h2kyn{fill:none;stroke:#333;stroke-linejoin:round;}.cls-jgrtypxh{opacity:0.16;}</style></defs><g id="运行水电厂"><line class="cls-eh9h2kyn" x1="64" x2="64" y2="128"/><path d="M84.7,25V36h6.11v1.17H83.47V25Z"/><path d="M85.16,68.86H83.93V56.72h1.28l4.37,7.66h.09L94,56.72h1.28V68.86H94.09V59.14H94l-4,7h-.73l-4-7h-.08Z"/><path d="M97.45,63.2a3.11,3.11,0,0,1,.85-1.15,1.76,1.76,0,0,1,1.15-.42,1.81,1.81,0,0,1,.61.14q.28.12.75.36a5.81,5.81,0,0,0,.7.33,1.58,1.58,0,0,0,.56.13c.48,0,.87-.31,1.16-.93l.89.44a2.69,2.69,0,0,1-.85,1.17,1.83,1.83,0,0,1-1.2.47,1.52,1.52,0,0,1-.59-.12c-.19-.08-.45-.2-.77-.37a4.77,4.77,0,0,0-.65-.35,1.74,1.74,0,0,0-.58-.13,1,1,0,0,0-.65.2,2.19,2.19,0,0,0-.52.76Z"/><g class="cls-jgrtypxh"></g></g></svg>