<svg id="图层_2" data-name="图层 2" xmlns="http://www.w3.org/2000/svg" viewBox="0 0 128 128"><defs><style>.cls-1{fill:none;stroke:#333;stroke-linejoin:round;}.cls-1{fill:#333;}.cls-1{opacity:0.16;}</style></defs><g id="运行水电厂"><circle class="cls-1" cx="64" cy="64" r="64"/><path class="cls-1" d="M40.86,95.3s13.26-7.62,23.14,0,23.14,0,23.14,0"/><path class="cls-1" d="M59.18,40.22a10.43,10.43,0,0,0-3.87,4.61,16.91,16.91,0,0,0-1.35,7,17.07,17.07,0,0,0,1.33,7,10.42,10.42,0,0,0,3.8,4.61,10.27,10.27,0,0,0,5.77,1.62,11.26,11.26,0,0,0,8.54-4V53h-7v-.79h7.81v9.22a12.46,12.46,0,0,1-9.33,4.43,11.21,11.21,0,0,1-6.21-1.71,11,11,0,0,1-4.06-4.86,17.92,17.92,0,0,1-1.43-7.44,17.59,17.59,0,0,1,1.46-7.41,11.07,11.07,0,0,1,4.14-4.88,11.52,11.52,0,0,1,6.32-1.71,10.64,10.64,0,0,1,4.52,1,10,10,0,0,1,3.58,2.77l-.58.58a8.84,8.84,0,0,0-3.27-2.65,9.86,9.86,0,0,0-4.25-.92A10.65,10.65,0,0,0,59.18,40.22Z"/><g class="cls-1"></g></g></svg>