<svg id="图层_2" data-name="图层 2" xmlns="http://www.w3.org/2000/svg" viewBox="0 0 128 128"><defs><style>.cls-yz24emtk{fill:#333;}.cls-udnx4jeb{opacity:0.16;}</style></defs><g id="运行水电厂"><path class="cls-yz24emtk" d="M127,1V127H1V1H127m1-1H0V128H128V0Z"/><path class="cls-yz24emtk" d="M22.21,90.25V37.75H35.86q12.95,0,19.92,6.79t7,19.46q0,12.68-7.11,19.46T35.3,90.25Zm12.88-1.47q12.6,0,19.36-6.4T61.2,64q0-12-6.62-18.38t-18.93-6.4H23.75V88.78Z"/><path class="cls-yz24emtk" d="M86.61,37.75q9.24,0,14.21,4t5,11.23q0,7.28-5,11.2T86.61,68.06H74.08V90.25H72.54V37.75ZM86.4,66.59q8.61,0,13.23-3.54t4.62-10.11q0-6.64-4.62-10.19T86.4,39.22H74.08V66.59Z"/><g class="cls-udnx4jeb"></g></g></svg>