<svg id="图层_2" data-name="图层 2" xmlns="http://www.w3.org/2000/svg" viewBox="0 0 128 128"><defs><style>.cls-1{fill:none;stroke:#fd211c;stroke-linejoin:round;}.cls-2{fill:#fd211c;}.cls-3{opacity:0.16;}</style></defs><g id="运行水电厂"><rect class="cls-1" width="128" height="128"/><path class="cls-1" d="M45.43,25.72a168.37,168.37,0,0,1-6.6,18.83v58.61H37.25V48.34A178,178,0,0,1,27.13,68.66L26,67.34a190.07,190.07,0,0,0,9.68-19.49A194.57,194.57,0,0,0,44,25.28ZM102,37.42V39H47.46V37.42H75.09q-1.5-5.54-3.7-12l1.67-.53,1.06,3.34c.35,1.3.78,2.72,1.28,4.27s1,3.21,1.45,5ZM94.71,52H52.3V50.54H94.71Zm0,12.67H52.3V63.12H94.71ZM55,103.07H53.35V75.79H93.83V103H92.25V96.74H55Zm37.23-7.83V77.46H55V95.24Z"/><g class="cls-1"></g></g></svg>