<svg id="图层_2" data-name="图层 2" xmlns="http://www.w3.org/2000/svg" viewBox="0 0 128 128"><defs><style>.cls-1{fill:none;stroke:#fd211c;stroke-linejoin:round;}.cls-1{fill:#fd211c;}.cls-1{opacity:0.16;}</style></defs><g id="运行水电厂"><rect class="cls-1" width="128" height="128"/><path class="cls-1" d="M46.49,26.16q-3,9.77-7,19.27v57.82H38V49.13A155.29,155.29,0,0,1,27.57,69L26.34,68a136.53,136.53,0,0,0,9.94-19A218.63,218.63,0,0,0,44.9,25.72ZM50,79.93H48.42V67.26H101V79.93H99.29v-11H50Zm51.65-43.74v1.59H49.92V36.19H75.18Q74.3,32.59,72,25.1l1.58-.35,1.15,4q1.14,4.41,2.2,7.48ZM54,80.46V78.87H95.5v1.59H76.67V95.15a8.75,8.75,0,0,1-.7,3.92A4,4,0,0,1,73.5,101a17.37,17.37,0,0,1-5.1.58H59.34l-.18-1.5h9.15a16.12,16.12,0,0,0,4.4-.44,2.9,2.9,0,0,0,1.89-1.45,7.52,7.52,0,0,0,.49-3.13V80.46Zm1.85-21.3V46H93.39v13.2Zm1.67-1.5H91.9V47.46H57.49Z"/><g class="cls-1"></g></g></svg>