<svg id="图层_2" data-name="图层 2" xmlns="http://www.w3.org/2000/svg" viewBox="0 0 128 128"><defs><style>.cls-1{fill:none;stroke:#333;stroke-linejoin:round;}.cls-2{opacity:0.16;}</style></defs><g id="运行水电厂"><line class="cls-1" x1="64" x2="64" y2="128"/><path d="M83.6,68.26a3.55,3.55,0,0,1-1.21-1.55,4,4,0,0,1-.23-2.09,6.48,6.48,0,0,1,.58-2,15.39,15.39,0,0,1,1.55-2.35L87,56.75l1.43.19-3.73,4.79,0,.05a2.51,2.51,0,0,1,.92-.4,3.37,3.37,0,0,1,1.19,0,3.7,3.7,0,0,1,1.81.73,3.41,3.41,0,0,1,1.11,1.53,4.41,4.41,0,0,1-.55,4,3.52,3.52,0,0,1-1.58,1.19,4.19,4.19,0,0,1-2.1.23A4.1,4.1,0,0,1,83.6,68.26Zm3.55-.55a2.41,2.41,0,0,0,1-.85,3,3,0,0,0,.52-1.38,2.72,2.72,0,0,0-.46-2,2.46,2.46,0,0,0-1.74-1,2.72,2.72,0,0,0-2.07.49,2.66,2.66,0,0,0-1,1.85,3.09,3.09,0,0,0,.16,1.46,2.5,2.5,0,0,0,.82,1.1,2.79,2.79,0,0,0,1.35.53A2.63,2.63,0,0,0,87.15,67.71Z"/><g class="cls-1"></g></g></svg>