<svg id="图层_2" data-name="图层 2" xmlns="http://www.w3.org/2000/svg" viewBox="0 0 128 128"><defs><style>.cls-1{fill:none;stroke:#fd211c;stroke-linejoin:round;}.cls-1{fill:#fd211c;}.cls-1{opacity:0.16;}</style></defs><g id="运行水电厂"><rect class="cls-1" width="128" height="128"/><path class="cls-1" d="M101.49,84.2v1.58H64.88v18.13H63.3V85.78H26.51V84.2H63.3V71.08H35.84V38H71c1.76-1.71,3.84-3.93,6.25-6.69s4.4-5.14,6-7.13l1.32.88q-1.94,2.55-5.23,6.29T73.15,38h19.1V71.08H64.88V84.2ZM63.3,53.75V39.58H37.51V53.75ZM37.51,55.33V69.59H63.3V55.33Zm7.31-31.24L55.64,35.18l-1.23,1.06-10.83-11ZM64.88,53.75H90.66V39.58H64.88Zm0,1.58V69.59H90.66V55.33Z"/><g class="cls-1"></g></g></svg>