<svg id="图层_2" data-name="图层 2" xmlns="http://www.w3.org/2000/svg" viewBox="0 0 128 128"><defs><style>.cls-1{fill:none;}.cls-1,.cls-1{stroke:#333;stroke-linejoin:round;}.cls-1{fill:#333;}.cls-1{opacity:0.16;}</style></defs><g id="运行水电厂"><circle class="cls-1" cx="64" cy="85.25" r="28.87"/><line class="cls-1" x1="64" x2="64" y2="11.5"/><line class="cls-1" x1="64" y1="0.11" x2="64" y2="11.62"/><line class="cls-1" x1="64" y1="0.23" x2="64" y2="11.73"/><line class="cls-1" x1="64" y1="0.34" x2="64" y2="11.84"/><line class="cls-1" x1="64" y1="0.45" x2="64" y2="11.96"/><line class="cls-1" x1="64" y1="0.56" x2="64" y2="12.07"/><line class="cls-1" x1="64" y1="0.68" x2="64" y2="12.18"/><line class="cls-1" x1="64" y1="0.79" x2="64" y2="12.29"/><line class="cls-1" x1="64" y1="0.9" x2="64" y2="12.41"/><line class="cls-1" x1="64" y1="1.02" x2="64" y2="12.52"/><line class="cls-1" x1="64" y1="1.13" x2="64" y2="12.63"/><line class="cls-1" x1="64" y1="1.24" x2="64" y2="12.74"/><line class="cls-1" x1="64" y1="1.35" x2="64" y2="12.86"/><line class="cls-1" x1="64" y1="1.47" x2="64" y2="12.97"/><line class="cls-1" x1="64" y1="116.5" x2="64" y2="128"/><line class="cls-1" x1="64" y1="116.38" x2="64" y2="127.89"/><line class="cls-1" x1="64" y1="116.27" x2="64" y2="127.77"/><line class="cls-1" x1="64" y1="116.16" x2="64" y2="127.66"/><line class="cls-1" x1="64" y1="116.04" x2="64" y2="127.55"/><line class="cls-1" x1="64" y1="115.93" x2="64" y2="127.44"/><line class="cls-1" x1="64" y1="115.82" x2="64" y2="127.32"/><line class="cls-1" x1="64" y1="115.71" x2="64" y2="127.21"/><line class="cls-1" x1="64" y1="115.59" x2="64" y2="127.1"/><line class="cls-1" x1="64" y1="115.48" x2="64" y2="126.98"/><line class="cls-1" x1="64" y1="115.37" x2="64" y2="126.87"/><line class="cls-1" x1="64" y1="115.26" x2="64" y2="126.76"/><line class="cls-1" x1="64" y1="115.14" x2="64" y2="126.65"/><line class="cls-1" x1="64" y1="115.03" x2="64" y2="126.53"/><line class="cls-1" x1="64" y1="114.92" x2="64" y2="126.42"/><line class="cls-1" x1="64" y1="114.8" x2="64" y2="126.31"/><circle class="cls-1" cx="64" cy="41.97" r="28.87"/><polygon class="cls-1" points="64 24.14 51.84 45.21 76.16 45.21 64 24.14"/><line class="cls-1" x1="64" y1="82.42" x2="64" y2="104.25"/><line class="cls-1" x1="78.56" y1="72.25" x2="63.95" y2="82.58"/><line class="cls-1" x1="64.05" y1="82.58" x2="49.44" y2="72.25"/><circle class="cls-1" cx="64" cy="82.21" r="1.64"/><line class="cls-1" x1="64" y1="82.5" x2="81" y2="82.5"/><g class="cls-1"></g></g></svg>