<svg id="图层_2" data-name="图层 2" xmlns="http://www.w3.org/2000/svg" viewBox="0 0 128 128"><defs><style>.cls-1{fill:none;}.cls-1,.cls-1{stroke:#333;stroke-linejoin:round;}.cls-1{fill:#333;}.cls-1{opacity:0.16;}</style></defs><g id="运行水电厂"><circle class="cls-1" cx="64.16" cy="41.97" r="28.87"/><line class="cls-1" x1="64.16" x2="64.16" y2="11.5"/><line class="cls-1" x1="64.16" y1="0.11" x2="64.16" y2="11.62"/><line class="cls-1" x1="64.16" y1="0.23" x2="64.16" y2="11.73"/><line class="cls-1" x1="64.16" y1="0.34" x2="64.16" y2="11.84"/><line class="cls-1" x1="64.16" y1="0.45" x2="64.16" y2="11.96"/><line class="cls-1" x1="64.16" y1="0.56" x2="64.16" y2="12.07"/><line class="cls-1" x1="64.16" y1="0.68" x2="64.16" y2="12.18"/><line class="cls-1" x1="64.16" y1="0.79" x2="64.16" y2="12.29"/><line class="cls-1" x1="64.16" y1="0.9" x2="64.16" y2="12.41"/><line class="cls-1" x1="64.16" y1="1.02" x2="64.16" y2="12.52"/><line class="cls-1" x1="64.16" y1="1.13" x2="64.16" y2="12.63"/><line class="cls-1" x1="64.16" y1="1.24" x2="64.16" y2="12.74"/><line class="cls-1" x1="64.16" y1="1.35" x2="64.16" y2="12.86"/><line class="cls-1" x1="64.16" y1="1.47" x2="64.16" y2="12.97"/><line class="cls-1" x1="64.16" y1="116.5" x2="64.16" y2="128"/><line class="cls-1" x1="64.16" y1="116.38" x2="64.16" y2="127.89"/><line class="cls-1" x1="64.16" y1="116.27" x2="64.16" y2="127.77"/><line class="cls-1" x1="64.16" y1="116.16" x2="64.16" y2="127.66"/><line class="cls-1" x1="64.16" y1="116.04" x2="64.16" y2="127.55"/><line class="cls-1" x1="64.16" y1="115.93" x2="64.16" y2="127.44"/><line class="cls-1" x1="64.16" y1="115.82" x2="64.16" y2="127.32"/><line class="cls-1" x1="64.16" y1="115.71" x2="64.16" y2="127.21"/><line class="cls-1" x1="64.16" y1="115.59" x2="64.16" y2="127.1"/><line class="cls-1" x1="64.16" y1="115.48" x2="64.16" y2="126.98"/><line class="cls-1" x1="64.16" y1="115.37" x2="64.16" y2="126.87"/><line class="cls-1" x1="64.16" y1="115.26" x2="64.16" y2="126.76"/><line class="cls-1" x1="64.16" y1="115.14" x2="64.16" y2="126.65"/><line class="cls-1" x1="64.16" y1="115.03" x2="64.16" y2="126.53"/><line class="cls-1" x1="64.16" y1="114.92" x2="64.16" y2="126.42"/><line class="cls-1" x1="64.16" y1="36.87" x2="64.16" y2="55.97"/><line class="cls-1" x1="76.9" y1="27.97" x2="64.12" y2="37.01"/><line class="cls-1" x1="64.2" y1="37.01" x2="51.42" y2="27.97"/><circle class="cls-1" cx="63.84" cy="86.03" r="28.87"/><polygon class="cls-1" points="63.84 76.43 51.68 97.5 76 97.5 63.84 76.43"/><polygon class="cls-1" points="114.96 31.39 94.3 34.66 103.45 48.85 114.96 31.39"/><line class="cls-1" x1="64.07" y1="0.17" x2="64.07" y2="11.67"/><line class="cls-1" x1="64.07" y1="0.28" x2="64.07" y2="11.78"/><line class="cls-1" x1="64.07" y1="0.39" x2="64.07" y2="11.9"/><line class="cls-1" x1="64.07" y1="0.5" x2="64.07" y2="12.01"/><line class="cls-1" x1="64.07" y1="0.62" x2="64.07" y2="12.12"/><line class="cls-1" x1="64.07" y1="0.73" x2="64.07" y2="12.23"/><line class="cls-1" x1="64.07" y1="0.84" x2="64.07" y2="12.35"/><line class="cls-1" x1="64.07" y1="0.96" x2="64.07" y2="12.46"/><line class="cls-1" x1="64.07" y1="1.07" x2="64.07" y2="12.57"/><line class="cls-1" x1="64.07" y1="1.18" x2="64.07" y2="12.69"/><line class="cls-1" x1="64.07" y1="1.29" x2="64.07" y2="12.8"/><line class="cls-1" x1="64.07" y1="1.41" x2="64.07" y2="12.91"/><line class="cls-1" x1="64.07" y1="1.52" x2="64.07" y2="13.02"/><line class="cls-1" x1="64.07" y1="1.63" x2="64.07" y2="13.14"/><line class="cls-1" x1="64.07" y1="116.66" x2="64.07" y2="128.17"/><line class="cls-1" x1="64.07" y1="116.55" x2="64.07" y2="128.05"/><line class="cls-1" x1="64.07" y1="116.44" x2="64.07" y2="127.94"/><line class="cls-1" x1="64.07" y1="116.32" x2="64.07" y2="127.83"/><line class="cls-1" x1="64.07" y1="116.21" x2="64.07" y2="127.72"/><line class="cls-1" x1="64.07" y1="116.1" x2="64.07" y2="127.6"/><line class="cls-1" x1="64.07" y1="115.99" x2="64.07" y2="127.49"/><line class="cls-1" x1="64.07" y1="115.87" x2="64.07" y2="127.38"/><line class="cls-1" x1="64.07" y1="115.76" x2="64.07" y2="127.26"/><line class="cls-1" x1="64.07" y1="115.65" x2="64.07" y2="127.15"/><line class="cls-1" x1="64.07" y1="115.53" x2="64.07" y2="127.04"/><line class="cls-1" x1="64.07" y1="115.42" x2="64.07" y2="126.93"/><line class="cls-1" x1="64.07" y1="115.31" x2="64.07" y2="126.81"/><line class="cls-1" x1="64.07" y1="115.2" x2="64.07" y2="126.7"/><line class="cls-1" x1="64.07" y1="115.08" x2="64.07" y2="126.59"/><line class="cls-1" x1="64.07" y1="114.97" x2="64.07" y2="126.47"/><line class="cls-1" x1="64.07" y1="0.17" x2="64.07" y2="11.67"/><line class="cls-1" x1="64.07" y1="0.28" x2="64.07" y2="11.78"/><line class="cls-1" x1="64.07" y1="0.39" x2="64.07" y2="11.9"/><line class="cls-1" x1="64.07" y1="0.5" x2="64.07" y2="12.01"/><line class="cls-1" x1="64.07" y1="0.62" x2="64.07" y2="12.12"/><line class="cls-1" x1="64.07" y1="0.73" x2="64.07" y2="12.23"/><line class="cls-1" x1="64.07" y1="0.84" x2="64.07" y2="12.35"/><line class="cls-1" x1="64.07" y1="0.96" x2="64.07" y2="12.46"/><line class="cls-1" x1="64.07" y1="1.07" x2="64.07" y2="12.57"/><line class="cls-1" x1="64.07" y1="1.18" x2="64.07" y2="12.69"/><line class="cls-1" x1="64.07" y1="1.29" x2="64.07" y2="12.8"/><line class="cls-1" x1="64.07" y1="1.41" x2="64.07" y2="12.91"/><line class="cls-1" x1="64.07" y1="116.66" x2="64.07" y2="128.17"/><line class="cls-1" x1="64.07" y1="116.55" x2="64.07" y2="128.05"/><line class="cls-1" x1="64.07" y1="116.44" x2="64.07" y2="127.94"/><line class="cls-1" x1="64.07" y1="116.32" x2="64.07" y2="127.83"/><line class="cls-1" x1="64.07" y1="116.21" x2="64.07" y2="127.72"/><line class="cls-1" x1="64.07" y1="116.1" x2="64.07" y2="127.6"/><line class="cls-1" x1="64.07" y1="115.99" x2="64.07" y2="127.49"/><line class="cls-1" x1="64.07" y1="115.87" x2="64.07" y2="127.38"/><line class="cls-1" x1="64.07" y1="115.76" x2="64.07" y2="127.26"/><line class="cls-1" x1="64.07" y1="115.65" x2="64.07" y2="127.15"/><line class="cls-1" x1="64.07" y1="115.53" x2="64.07" y2="127.04"/><line class="cls-1" x1="64.07" y1="115.42" x2="64.07" y2="126.93"/><line class="cls-1" x1="64.07" y1="115.31" x2="64.07" y2="126.81"/><line class="cls-1" x1="64.07" y1="115.2" x2="64.07" y2="126.7"/><line class="cls-1" x1="64.07" y1="115.08" x2="64.07" y2="126.59"/><line class="cls-1" x1="13.19" y1="96.95" x2="109.14" y2="35.14"/><g class="cls-1"></g></g></svg>