<svg id="图层_2" data-name="图层 2" xmlns="http://www.w3.org/2000/svg" viewBox="0 0 128 128"><defs><style>.cls-h84bks8m{fill:none;}.cls-h84bks8m,.cls-4rfy3thl83t30di{stroke:#333;stroke-linejoin:round;}.cls-4rfy3thl83t30di{fill:#333;}.cls-hy2u5q7a{opacity:0.16;}</style></defs><g id="运行水电厂"><circle class="cls-h84bks8m" cx="68.63" cy="41.95" r="28.87"/><line class="cls-h84bks8m" x1="68.63" y1="-0.02" x2="68.63" y2="11.48"/><line class="cls-h84bks8m" x1="68.63" y1="0.09" x2="68.63" y2="11.6"/><line class="cls-h84bks8m" x1="68.63" y1="0.21" x2="68.63" y2="11.71"/><line class="cls-h84bks8m" x1="68.63" y1="0.32" x2="68.63" y2="11.82"/><line class="cls-h84bks8m" x1="68.63" y1="0.43" x2="68.63" y2="11.94"/><line class="cls-h84bks8m" x1="68.63" y1="0.54" x2="68.63" y2="12.05"/><line class="cls-h84bks8m" x1="68.63" y1="0.66" x2="68.63" y2="12.16"/><line class="cls-h84bks8m" x1="68.63" y1="0.77" x2="68.63" y2="12.27"/><line class="cls-h84bks8m" x1="68.63" y1="0.88" x2="68.63" y2="12.39"/><line class="cls-h84bks8m" x1="68.63" y1="1" x2="68.63" y2="12.5"/><line class="cls-h84bks8m" x1="68.63" y1="1.11" x2="68.63" y2="12.61"/><line class="cls-h84bks8m" x1="68.63" y1="1.22" x2="68.63" y2="12.73"/><line class="cls-h84bks8m" x1="68.63" y1="1.33" x2="68.63" y2="12.84"/><line class="cls-h84bks8m" x1="68.63" y1="1.45" x2="68.63" y2="12.95"/><line class="cls-h84bks8m" x1="68.63" y1="116.48" x2="68.63" y2="127.98"/><line class="cls-h84bks8m" x1="68.63" y1="116.36" x2="68.63" y2="127.87"/><line class="cls-h84bks8m" x1="68.63" y1="116.25" x2="68.63" y2="127.75"/><line class="cls-h84bks8m" x1="68.63" y1="116.14" x2="68.63" y2="127.64"/><line class="cls-h84bks8m" x1="68.63" y1="116.02" x2="68.63" y2="127.53"/><line class="cls-h84bks8m" x1="68.63" y1="115.91" x2="68.63" y2="127.42"/><line class="cls-h84bks8m" x1="68.63" y1="115.8" x2="68.63" y2="127.3"/><line class="cls-h84bks8m" x1="68.63" y1="115.69" x2="68.63" y2="127.19"/><line class="cls-h84bks8m" x1="68.63" y1="115.57" x2="68.63" y2="127.08"/><line class="cls-h84bks8m" x1="68.63" y1="115.46" x2="68.63" y2="126.97"/><line class="cls-h84bks8m" x1="68.63" y1="115.35" x2="68.63" y2="126.85"/><line class="cls-h84bks8m" x1="68.63" y1="115.24" x2="68.63" y2="126.74"/><line class="cls-h84bks8m" x1="68.63" y1="115.12" x2="68.63" y2="126.63"/><line class="cls-h84bks8m" x1="68.63" y1="115.01" x2="68.63" y2="126.51"/><line class="cls-h84bks8m" x1="68.63" y1="114.9" x2="68.63" y2="126.4"/><circle class="cls-h84bks8m" cx="68.3" cy="86.01" r="28.87"/><polygon class="cls-h84bks8m" points="68.3 76.42 56.14 97.48 80.47 97.48 68.3 76.42"/><circle class="cls-h84bks8m" cx="68.72" cy="42.43" r="28.87"/><line class="cls-h84bks8m" x1="68.72" y1="39.6" x2="68.72" y2="61.43"/><line class="cls-h84bks8m" x1="83.28" y1="29.43" x2="68.68" y2="39.75"/><line class="cls-h84bks8m" x1="68.77" y1="39.75" x2="54.16" y2="29.43"/><line class="cls-h84bks8m" x1="68.72" y1="39.67" x2="85.72" y2="39.67"/><circle class="cls-283t30di" cx="69.19" cy="39.15" r="1.64"/><polygon class="cls-283t30di" points="119.89 31.39 99.23 34.66 108.37 48.85 119.89 31.39"/><line class="cls-h84bks8m" x1="69" y1="0.17" x2="69" y2="11.67"/><line class="cls-h84bks8m" x1="69" y1="0.28" x2="69" y2="11.78"/><line class="cls-h84bks8m" x1="69" y1="0.39" x2="69" y2="11.9"/><line class="cls-h84bks8m" x1="69" y1="0.5" x2="69" y2="12.01"/><line class="cls-h84bks8m" x1="69" y1="0.62" x2="69" y2="12.12"/><line class="cls-h84bks8m" x1="69" y1="0.73" x2="69" y2="12.23"/><line class="cls-h84bks8m" x1="69" y1="0.84" x2="69" y2="12.35"/><line class="cls-h84bks8m" x1="69" y1="0.96" x2="69" y2="12.46"/><line class="cls-h84bks8m" x1="69" y1="1.07" x2="69" y2="12.57"/><line class="cls-h84bks8m" x1="69" y1="1.18" x2="69" y2="12.69"/><line class="cls-h84bks8m" x1="69" y1="1.29" x2="69" y2="12.8"/><line class="cls-h84bks8m" x1="69" y1="1.41" x2="69" y2="12.91"/><line class="cls-h84bks8m" x1="69" y1="1.52" x2="69" y2="13.02"/><line class="cls-h84bks8m" x1="69" y1="1.63" x2="69" y2="13.14"/><line class="cls-h84bks8m" x1="69" y1="0.17" x2="69" y2="11.67"/><line class="cls-h84bks8m" x1="69" y1="0.28" x2="69" y2="11.78"/><line class="cls-h84bks8m" x1="69" y1="0.39" x2="69" y2="11.9"/><line class="cls-h84bks8m" x1="69" y1="0.5" x2="69" y2="12.01"/><line class="cls-h84bks8m" x1="69" y1="0.62" x2="69" y2="12.12"/><line class="cls-h84bks8m" x1="69" y1="0.73" x2="69" y2="12.23"/><line class="cls-h84bks8m" x1="69" y1="0.84" x2="69" y2="12.35"/><line class="cls-h84bks8m" x1="69" y1="0.96" x2="69" y2="12.46"/><line class="cls-h84bks8m" x1="69" y1="1.07" x2="69" y2="12.57"/><line class="cls-h84bks8m" x1="69" y1="1.18" x2="69" y2="12.69"/><line class="cls-h84bks8m" x1="69" y1="1.29" x2="69" y2="12.8"/><line class="cls-h84bks8m" x1="69" y1="1.41" x2="69" y2="12.91"/><line class="cls-h84bks8m" x1="18.11" y1="96.95" x2="114.07" y2="35.14"/><g class="cls-hy2u5q7a"></g></g></svg>