<svg id="图层_2" data-name="图层 2" xmlns="http://www.w3.org/2000/svg" viewBox="0 0 128 128"><defs><style>.cls-dq1rrp0j{fill:none;}.cls-dq1rrp0j,.cls-bo70zbuk{stroke:#333;stroke-linejoin:round;}.cls-bo70zbuk{fill:#333;}.cls-h1yyyix9y0g19i8{opacity:0.16;}</style></defs><g id="运行水电厂"><circle class="cls-dq1rrp0j" cx="64.09" cy="41.89" r="28.87"/><line class="cls-dq1rrp0j" x1="64.09" y1="-0.08" x2="64.09" y2="11.42"/><line class="cls-dq1rrp0j" x1="64.09" y1="0.03" x2="64.09" y2="11.53"/><line class="cls-dq1rrp0j" x1="64.09" y1="0.14" x2="64.09" y2="11.65"/><line class="cls-dq1rrp0j" x1="64.09" y1="0.26" x2="64.09" y2="11.76"/><line class="cls-dq1rrp0j" x1="64.09" y1="0.37" x2="64.09" y2="11.87"/><line class="cls-dq1rrp0j" x1="64.09" y1="0.48" x2="64.09" y2="11.98"/><line class="cls-dq1rrp0j" x1="64.09" y1="0.59" x2="64.09" y2="12.1"/><line class="cls-dq1rrp0j" x1="64.09" y1="0.71" x2="64.09" y2="12.21"/><line class="cls-dq1rrp0j" x1="64.09" y1="0.82" x2="64.09" y2="12.32"/><line class="cls-dq1rrp0j" x1="64.09" y1="0.93" x2="64.09" y2="12.44"/><line class="cls-dq1rrp0j" x1="64.09" y1="1.04" x2="64.09" y2="12.55"/><line class="cls-dq1rrp0j" x1="64.09" y1="1.16" x2="64.09" y2="12.66"/><line class="cls-dq1rrp0j" x1="64.09" y1="1.27" x2="64.09" y2="12.77"/><line class="cls-dq1rrp0j" x1="64.09" y1="1.38" x2="64.09" y2="12.89"/><line class="cls-dq1rrp0j" x1="64.09" y1="116.41" x2="64.09" y2="127.92"/><line class="cls-dq1rrp0j" x1="64.09" y1="116.3" x2="64.09" y2="127.8"/><line class="cls-dq1rrp0j" x1="64.09" y1="116.19" x2="64.09" y2="127.69"/><line class="cls-dq1rrp0j" x1="64.09" y1="116.07" x2="64.09" y2="127.58"/><line class="cls-dq1rrp0j" x1="64.09" y1="115.96" x2="64.09" y2="127.47"/><line class="cls-dq1rrp0j" x1="64.09" y1="115.85" x2="64.09" y2="127.35"/><line class="cls-dq1rrp0j" x1="64.09" y1="115.74" x2="64.09" y2="127.24"/><line class="cls-dq1rrp0j" x1="64.09" y1="115.62" x2="64.09" y2="127.13"/><line class="cls-dq1rrp0j" x1="64.09" y1="115.51" x2="64.09" y2="127.01"/><line class="cls-dq1rrp0j" x1="64.09" y1="115.4" x2="64.09" y2="126.9"/><line class="cls-dq1rrp0j" x1="64.09" y1="115.28" x2="64.09" y2="126.79"/><line class="cls-dq1rrp0j" x1="64.09" y1="115.17" x2="64.09" y2="126.68"/><line class="cls-dq1rrp0j" x1="64.09" y1="115.06" x2="64.09" y2="126.56"/><line class="cls-dq1rrp0j" x1="64.09" y1="114.95" x2="64.09" y2="126.45"/><line class="cls-dq1rrp0j" x1="64.09" y1="114.83" x2="64.09" y2="126.34"/><line class="cls-dq1rrp0j" x1="64.09" y1="36.79" x2="64.09" y2="55.89"/><line class="cls-dq1rrp0j" x1="76.83" y1="27.89" x2="64.05" y2="36.92"/><line class="cls-dq1rrp0j" x1="64.13" y1="36.92" x2="51.35" y2="27.89"/><circle class="cls-dq1rrp0j" cx="63.76" cy="85.94" r="28.87"/><polygon class="cls-dq1rrp0j" points="63.77 76.35 51.6 97.42 75.93 97.42 63.77 76.35"/><polygon class="cls-bo70zbuk" points="114.89 31.3 94.23 34.58 103.37 48.76 114.89 31.3"/><line class="cls-dq1rrp0j" x1="64" y1="0.08" x2="64" y2="11.59"/><line class="cls-dq1rrp0j" x1="64" y1="0.2" x2="64" y2="11.7"/><line class="cls-dq1rrp0j" x1="64" y1="0.31" x2="64" y2="11.81"/><line class="cls-dq1rrp0j" x1="64" y1="0.42" x2="64" y2="11.93"/><line class="cls-dq1rrp0j" x1="64" y1="0.53" x2="64" y2="12.04"/><line class="cls-dq1rrp0j" x1="64" y1="0.65" x2="64" y2="12.15"/><line class="cls-dq1rrp0j" x1="64" y1="0.76" x2="64" y2="12.26"/><line class="cls-dq1rrp0j" x1="64" y1="0.87" x2="64" y2="12.38"/><line class="cls-dq1rrp0j" x1="64" y1="0.99" x2="64" y2="12.49"/><line class="cls-dq1rrp0j" x1="64" y1="1.1" x2="64" y2="12.6"/><line class="cls-dq1rrp0j" x1="64" y1="1.21" x2="64" y2="12.72"/><line class="cls-dq1rrp0j" x1="64" y1="1.32" x2="64" y2="12.83"/><line class="cls-dq1rrp0j" x1="64" y1="1.44" x2="64" y2="12.94"/><line class="cls-dq1rrp0j" x1="64" y1="1.55" x2="64" y2="13.05"/><line class="cls-dq1rrp0j" x1="64" y1="116.58" x2="64" y2="128.08"/><line class="cls-dq1rrp0j" x1="64" y1="116.47" x2="64" y2="127.97"/><line class="cls-dq1rrp0j" x1="64" y1="116.35" x2="64" y2="127.86"/><line class="cls-dq1rrp0j" x1="64" y1="116.24" x2="64" y2="127.74"/><line class="cls-dq1rrp0j" x1="64" y1="116.13" x2="64" y2="127.63"/><line class="cls-dq1rrp0j" x1="64" y1="116.02" x2="64" y2="127.52"/><line class="cls-dq1rrp0j" x1="64" y1="115.9" x2="64" y2="127.41"/><line class="cls-dq1rrp0j" x1="64" y1="115.79" x2="64" y2="127.29"/><line class="cls-dq1rrp0j" x1="64" y1="115.68" x2="64" y2="127.18"/><line class="cls-dq1rrp0j" x1="64" y1="115.56" x2="64" y2="127.07"/><line class="cls-dq1rrp0j" x1="64" y1="115.45" x2="64" y2="126.96"/><line class="cls-dq1rrp0j" x1="64" y1="115.34" x2="64" y2="126.84"/><line class="cls-dq1rrp0j" x1="64" y1="115.23" x2="64" y2="126.73"/><line class="cls-dq1rrp0j" x1="64" y1="115.11" x2="64" y2="126.62"/><line class="cls-dq1rrp0j" x1="64" y1="115" x2="64" y2="126.5"/><line class="cls-dq1rrp0j" x1="64" y1="114.89" x2="64" y2="126.39"/><line class="cls-dq1rrp0j" x1="64" y1="0.08" x2="64" y2="11.59"/><line class="cls-dq1rrp0j" x1="64" y1="0.2" x2="64" y2="11.7"/><line class="cls-dq1rrp0j" x1="64" y1="0.31" x2="64" y2="11.81"/><line class="cls-dq1rrp0j" x1="64" y1="0.42" x2="64" y2="11.93"/><line class="cls-dq1rrp0j" x1="64" y1="0.53" x2="64" y2="12.04"/><line class="cls-dq1rrp0j" x1="64" y1="0.65" x2="64" y2="12.15"/><line class="cls-dq1rrp0j" x1="64" y1="0.76" x2="64" y2="12.26"/><line class="cls-dq1rrp0j" x1="64" y1="0.87" x2="64" y2="12.38"/><line class="cls-dq1rrp0j" x1="64" y1="0.99" x2="64" y2="12.49"/><line class="cls-dq1rrp0j" x1="64" y1="1.1" x2="64" y2="12.6"/><line class="cls-dq1rrp0j" x1="64" y1="1.21" x2="64" y2="12.72"/><line class="cls-dq1rrp0j" x1="64" y1="1.32" x2="64" y2="12.83"/><line class="cls-dq1rrp0j" x1="64" y1="116.58" x2="64" y2="128.08"/><line class="cls-dq1rrp0j" x1="64" y1="116.47" x2="64" y2="127.97"/><line class="cls-dq1rrp0j" x1="64" y1="116.35" x2="64" y2="127.86"/><line class="cls-dq1rrp0j" x1="64" y1="116.24" x2="64" y2="127.74"/><line class="cls-dq1rrp0j" x1="64" y1="116.13" x2="64" y2="127.63"/><line class="cls-dq1rrp0j" x1="64" y1="116.02" x2="64" y2="127.52"/><line class="cls-dq1rrp0j" x1="64" y1="115.9" x2="64" y2="127.41"/><line class="cls-dq1rrp0j" x1="64" y1="115.79" x2="64" y2="127.29"/><line class="cls-dq1rrp0j" x1="64" y1="115.68" x2="64" y2="127.18"/><line class="cls-dq1rrp0j" x1="64" y1="115.56" x2="64" y2="127.07"/><line class="cls-dq1rrp0j" x1="64" y1="115.45" x2="64" y2="126.96"/><line class="cls-dq1rrp0j" x1="64" y1="115.34" x2="64" y2="126.84"/><line class="cls-dq1rrp0j" x1="64" y1="115.23" x2="64" y2="126.73"/><line class="cls-dq1rrp0j" x1="64" y1="115.11" x2="64" y2="126.62"/><line class="cls-dq1rrp0j" x1="64" y1="115" x2="64" y2="126.5"/><line class="cls-dq1rrp0j" x1="13.11" y1="96.86" x2="109.07" y2="35.06"/><path d="M124.67,28.91l-3.42,5.24h3.55v.44h-4.15v-.37L124.07,29h-3.32v-.44h3.92Z"/><g class="cls-1y0g19i8"></g></g></svg>