<svg id="图层_2" data-name="图层 2" xmlns="http://www.w3.org/2000/svg" viewBox="0 0 128 128"><defs><style>.cls-1{fill:none;stroke:#333;stroke-linejoin:round;}.cls-2{fill:#333;}.cls-3{opacity:0.16;}</style></defs><title>g</title><g id="运行水电厂"><circle class="cls-1" cx="64" cy="64" r="64"/><circle class="cls-1" cx="64.07" cy="63.93" r="40.24"/><path class="cls-1" d="M48.16,42.94A73.66,73.66,0,0,1,37.41,55.42l-.77-.89a67.08,67.08,0,0,0,14.59-19.2l1.09.45a57.73,57.73,0,0,1-3.39,6H90.34v1.15Zm43.07,48.9q-16.44-2.62-25.92-6.21-10.81,4.09-27.65,7l-.25-1.09a152.1,152.1,0,0,0,26.3-6.52,52.12,52.12,0,0,1-15-9,62.3,62.3,0,0,1-11,8.71l-.57-1a68.71,68.71,0,0,0,10-7.81,44,44,0,0,0,7.13-8.51H45.92v-18H83.23v18H55.65a38.35,38.35,0,0,1-4.55,6H84.26v1.15A60.13,60.13,0,0,1,66.91,85.06a150.82,150.82,0,0,0,24.45,5.63ZM82,57.79V50.56H47.07v7.23Zm0,1.09H47.07V66.3H82ZM65.31,84.42a56.78,56.78,0,0,0,17.09-9.8H50.08l-.58.64A50.14,50.14,0,0,0,65.31,84.42Z"/><g class="cls-1"></g></g></svg>