<svg id="图层_2" data-name="图层 2" xmlns="http://www.w3.org/2000/svg" viewBox="0 0 128 128"><defs><style>.cls-di66d4cj,.cls-a7yq5cckb7fqi1x,.cls-hbrp6argj3b4imo{fill:none;stroke:#333;stroke-linejoin:round;}.cls-di66d4cj{stroke-dasharray:5;}.cls-hbrp6argj3b4imo{stroke-dasharray:4.73 4.73;}.cls-p2yvn66d{opacity:0.16;}</style></defs><g id="运行水电厂"><rect class="cls-di66d4cj" y="24.7" width="128" height="78.61"/><line class="cls-3b7fqi1x" x1="75.75" y1="88.75" x2="78.25" y2="88.75"/><line class="cls-2j3b4imo" x1="82.98" y1="88.75" x2="109.01" y2="88.75"/><line class="cls-3b7fqi1x" x1="111.38" y1="88.75" x2="113.88" y2="88.75"/><line class="cls-3b7fqi1x" x1="113.63" y1="50.5" x2="113.63" y2="53"/><line class="cls-2j3b4imo" x1="113.63" y1="57.73" x2="113.63" y2="83.76"/><line class="cls-3b7fqi1x" x1="113.63" y1="86.13" x2="113.63" y2="88.63"/><polygon class="cls-di66d4cj" points="75.08 86.07 75.15 85.31 74.33 85.9 75.08 86.07"/><polygon class="cls-di66d4cj" points="74.82 86.1 75.56 86.28 74.75 86.87 74.82 86.1"/><polygon class="cls-di66d4cj" points="112.08 45.07 112.15 44.31 111.33 44.9 112.08 45.07"/><polygon class="cls-di66d4cj" points="111.82 45.1 112.56 45.28 111.75 45.87 111.82 45.1"/><polygon class="cls-di66d4cj" points="54.08 40.07 54.15 39.31 53.33 39.9 54.08 40.07"/><polygon class="cls-di66d4cj" points="53.82 40.1 54.56 40.28 53.75 40.87 53.82 40.1"/><polygon class="cls-di66d4cj" points="17.08 83.07 17.15 82.31 16.33 82.9 17.08 83.07"/><polygon class="cls-di66d4cj" points="16.82 83.1 17.56 83.28 16.75 83.87 16.82 83.1"/><g class="cls-p2yvn66d"></g></g></svg>