<svg id="图层_2" data-name="图层 2" xmlns="http://www.w3.org/2000/svg" viewBox="0 0 128 128"><defs><style>.cls-1,.cls-1{fill:none;stroke:#333;stroke-linejoin:round;}.cls-1{stroke-dasharray:2;}.cls-1{fill:#a06426;}.cls-1{opacity:0.16;}</style></defs><g id="运行水电厂"><rect class="cls-1" y="24.7" width="128" height="78.61"/><line class="cls-1" x1="66" y1="91.25" x2="114.63" y2="91.25"/><line class="cls-1" x1="112.25" y1="45.5" x2="112.25" y2="94.13"/><path class="cls-1" d="M22.18,39.35s3.22-1.84,5.61,0,5.61,0,5.61,0"/><path class="cls-1" d="M55.06,91.1s3.21-1.84,5.61,0,5.61,0,5.61,0"/><polygon class="cls-1" points="104.75 36.75 115.88 28.38 119.88 40.5 109.5 48.75 104.75 36.75"/><line class="cls-1" x1="115.43" y1="31.13" x2="107.18" y2="38.97"/><line class="cls-1" x1="109.99" y1="33.5" x2="115.68" y2="43.35"/><line class="cls-1" x1="106.86" y1="35.25" x2="112.55" y2="45.1"/><line class="cls-1" x1="112.56" y1="31.16" x2="118.25" y2="41.02"/><line class="cls-1" x1="108.71" y1="42.35" x2="116.96" y2="34.5"/><line class="cls-1" x1="110.23" y1="46.13" x2="118.48" y2="38.28"/><polygon class="cls-1" points="6 79.88 17.13 71.5 21.13 83.63 10.75 91.88 6 79.88"/><line class="cls-1" x1="16.68" y1="74.25" x2="8.43" y2="82.09"/><line class="cls-1" x1="11.24" y1="76.62" x2="16.93" y2="86.48"/><line class="cls-1" x1="8.11" y1="78.37" x2="13.8" y2="88.23"/><line class="cls-1" x1="13.81" y1="74.29" x2="19.5" y2="84.15"/><line class="cls-1" x1="9.96" y1="85.47" x2="18.21" y2="77.63"/><line class="cls-1" x1="11.48" y1="89.25" x2="19.73" y2="81.41"/><g class="cls-1"></g></g></svg>