<svg id="图层_2" data-name="图层 2" xmlns="http://www.w3.org/2000/svg" viewBox="0 0 128 128"><defs><style>.cls-1{fill:none;stroke:#fd211c;stroke-linejoin:round;}.cls-1{fill:#fd211c;}.cls-1{opacity:0.16;}</style></defs><g id="运行水电厂"><rect class="cls-1" width="128" height="128"/><path class="cls-1" d="M95.11,43.94H36.76v9.68a188.79,188.79,0,0,1-.83,19.44,74.61,74.61,0,0,1-2.77,14,81.76,81.76,0,0,1-5.64,13.37l-1.4-.88a84.71,84.71,0,0,0,5.5-13.11A70.88,70.88,0,0,0,34.3,72.8a190.88,190.88,0,0,0,.79-19.27v-26h60Zm-1.5-1.59V29.15H36.76v13.2ZM95.9,82.83l1.5.27-.27,6.07a13.17,13.17,0,0,1-1,5,4.62,4.62,0,0,1-2.73,2.34,17.93,17.93,0,0,1-5.59.66H71.52q-4.58,0-6.51-1.76t-1.93-6.69V81.42l-25.7,1.76L37.2,81.6l25.88-1.76V69L41.69,70.51V68.93l21.39-1.41v-11q-14.79,1.75-21.39,2.29l-.09-1.59q13.2-1.14,27.68-3.12a223,223,0,0,0,22.57-4l.44,1.67a262.35,262.35,0,0,1-27.63,4.49V67.43L93.52,65.5V67L64.66,68.93V79.66l37.14-2.55.08,1.59L64.66,81.25v7.39q0,4,1.5,5.54t5.45,1.5H87.72a16.84,16.84,0,0,0,4.92-.53,3.46,3.46,0,0,0,2.2-1.93,13.52,13.52,0,0,0,.8-4.32Z"/><g class="cls-1"></g></g></svg>