<svg id="图层_2" data-name="图层 2" xmlns="http://www.w3.org/2000/svg" viewBox="0 0 128 128"><defs><style>.cls-1{fill:#333;}.cls-2{opacity:0.16;}</style></defs><title>g</title><g id="运行水电厂"><path class="cls-1" d="M127,1V127H1V1H127m1-1H0V128H128V0Z"/><path class="cls-1" d="M105.62,22.38v83.24H22.38V22.38h83.24m1-1H21.38v85.24h85.24V21.38Z"/><path class="cls-1" d="M38,86.59a8.71,8.71,0,0,1-3-5.31l1.41-.45a8,8,0,0,0,2.59,4.64,7.47,7.47,0,0,0,5,1.63,6.69,6.69,0,0,0,5.63-2.56q2-2.55,2-7.29V39.55H52.9V77.44q0,5.31-2.34,8.16a8.16,8.16,0,0,1-6.69,2.85A9.21,9.21,0,0,1,38,86.59Z"/><path class="cls-1" d="M75.55,68,59.42,39.55h1.67l15.1,26.82h.13l15.1-26.82h1.67L77,68V87.55H75.55Z"/><g class="cls-1"></g></g></svg>