<svg id="图层_2" data-name="图层 2" xmlns="http://www.w3.org/2000/svg" viewBox="0 0 128 128"><defs><style>.cls-1{fill:none;stroke:#333;stroke-linejoin:round;}.cls-1{fill:#333;}.cls-1{opacity:0.16;}</style></defs><g id="运行水电厂"><circle class="cls-1" cx="64" cy="64" r="64"/><circle class="cls-1" cx="64.07" cy="63.93" r="40.24"/><path class="cls-1" d="M54.78,62.75q-1.72.9-4.41,2c-.6.3-1.18.57-1.73.8s-1,.46-1.47.67v20a7.4,7.4,0,0,1-.45,2.92,2.61,2.61,0,0,1-1.63,1.4,10.77,10.77,0,0,1-3.43.42h-4l-.19-1.15H41.6c1.79,0,2.95-.26,3.49-.77a4.09,4.09,0,0,0,.8-2.94V66.85l-3.07,1.34L37,70.69l-.38-1.22q3.07-1.22,9.28-3.9V50.72H37.06V49.57h8.83V36.19h1.28V49.57h7.42v1.15H47.17V65l7.23-3.33Zm5.51-25.41V56.61H71.87v1.15H60.29V89.5l11.07-7.74.51,1L59,91.81l-.77-.9A4.62,4.62,0,0,0,59,90a1.55,1.55,0,0,0,.13-.64v-52Zm31.1,36.87c0,1.45,0,3.16-.13,5.12S91.09,83,91,84.51A10.52,10.52,0,0,1,90.34,88a3.51,3.51,0,0,1-1.86,1.79,9.5,9.5,0,0,1-3.74.58H80.45A6.33,6.33,0,0,1,76,89.09c-.92-.88-1.38-2.34-1.38-4.39V36.38h1.16V62.82Q78.84,60,83.2,55.17A96,96,0,0,0,89.92,47l.9.77a107.46,107.46,0,0,1-7.33,8.83,91.34,91.34,0,0,1-7.71,7.74V84.64a4.81,4.81,0,0,0,1,3.52,5.26,5.26,0,0,0,3.68,1h4.23a9.06,9.06,0,0,0,3.16-.41,2.66,2.66,0,0,0,1.51-1.41,8.13,8.13,0,0,0,.51-3l.13-2.94q.2-8.07.19-7.42Z"/><g class="cls-1"></g></g></svg>