<svg id="图层_2" data-name="图层 2" xmlns="http://www.w3.org/2000/svg" viewBox="0 0 128 128"><defs><style>.cls-1{fill:none;stroke:#333;stroke-linejoin:round;}.cls-2{fill:#333;}.cls-3{opacity:0.16;}</style></defs><g id="运行水电厂"><circle class="cls-1" cx="64" cy="64" r="64"/><circle class="cls-1" cx="64.07" cy="63.93" r="40.24"/><path class="cls-1" d="M78,59l-.16,1h-12a23.14,23.14,0,0,1-6.61-.8,9.83,9.83,0,0,1-4.59-2.94,28.79,28.79,0,0,1-3.78,5l-.73-.8a24.58,24.58,0,0,0,3.84-5A22.54,22.54,0,0,1,50.53,48l.89-.29a22.32,22.32,0,0,0,3,6.78,22.44,22.44,0,0,0,1.5-4q.62-2.18,1.12-5H50.91v-1l6.05-8H50.43v-1h7.78v1l-6.08,7.94H58v1A51.73,51.73,0,0,1,56.78,51a24.32,24.32,0,0,1-1.71,4.35,9.48,9.48,0,0,0,4.37,2.88,21.59,21.59,0,0,0,6.35.8ZM68,57.78H67V54.23H58.56V53.3H67V49.91H60.29V49H67V45.49H60.48v-1H67V41h-7.9v-1H67V36.53H60.48V35.6H67V32.47h1V35.6h7v4.45h2.82v1H75.07v4.48H68V49h8v.93H68V53.3h9.31v.93H68Zm6-21.25H68v3.52h6Zm0,4.48H68v3.52h6Z"/><path class="cls-1" d="M59.78,86.89,60.22,88l-6,5.37-.77-.76a5.85,5.85,0,0,0,.53-.69,1.19,1.19,0,0,0,.11-.53V78.51H50.37V77.39H55.1V91.08ZM56.19,73.74c-.45-.73-1.09-1.68-1.93-2.85s-1.52-2.09-2-2.75l.87-.64c2.09,2.86,3.41,4.71,4,5.57ZM72.53,91a48.8,48.8,0,0,0,5.29,3.2l-.57,1.08a50.61,50.61,0,0,1-5.39-3.34,26.39,26.39,0,0,1-4.08-3.6A28.89,28.89,0,0,1,63.46,92a63.62,63.62,0,0,1-6,3.58l-.6-1A59.87,59.87,0,0,0,62.75,91,28.62,28.62,0,0,0,67,87.47a27.56,27.56,0,0,1-4.19-7,56.71,56.71,0,0,1-3-10.09l1-.32a57.79,57.79,0,0,0,2.93,9.84,26.08,26.08,0,0,0,4,6.77A22.39,22.39,0,0,0,72,79.71a60.24,60.24,0,0,0,2.77-10.32l1.06.22A63.61,63.61,0,0,1,72.9,80.3a24.1,24.1,0,0,1-4.36,7.2A25.14,25.14,0,0,0,72.53,91ZM68.64,74.51c-.56-1.11-1.2-2.36-1.94-3.76S65.4,68.3,65,67.6l1-.55q.81,1.44,1.92,3.57c.75,1.42,1.31,2.53,1.67,3.34Z"/><g class="cls-1"></g></g></svg>