<svg id="图层_2" data-name="图层 2" xmlns="http://www.w3.org/2000/svg" viewBox="0 0 128 128"><defs><style>.cls-1{fill:#333;}.cls-2{opacity:0.16;}</style></defs><title>g</title><g id="运行水电厂"><path class="cls-1" d="M127,1V127H1V1H127m1-1H0V128H128V0Z"/><path class="cls-1" d="M59.8,90.25h-2L33.69,61.55l-5.53,5.53V90.25H26.62V37.75h1.54V65L55.53,37.75h2.24l-23,22.75Z"/><path class="cls-1" d="M72.19,41.39a20.23,20.23,0,0,0-7.52,9A32.88,32.88,0,0,0,62,64a33.21,33.21,0,0,0,2.59,13.65,20.3,20.3,0,0,0,7.39,9,20,20,0,0,0,11.23,3.15q9.52,0,16.59-7.7V66.24H86.19V64.7h15.19V82.62q-8,8.61-18.13,8.61A21.71,21.71,0,0,1,71.18,87.9a21.34,21.34,0,0,1-7.91-9.44A34.83,34.83,0,0,1,60.5,64a34.19,34.19,0,0,1,2.84-14.42,21.56,21.56,0,0,1,8-9.48,22.31,22.31,0,0,1,12.28-3.33,20.72,20.72,0,0,1,8.79,1.89,19.41,19.41,0,0,1,7,5.39L98.3,45.17A17.38,17.38,0,0,0,91.93,40a19.23,19.23,0,0,0-8.26-1.78A20.76,20.76,0,0,0,72.19,41.39Z"/><g class="cls-1"></g></g></svg>