<svg id="图层_2" data-name="图层 2" xmlns="http://www.w3.org/2000/svg" viewBox="0 0 128 128"><defs><style>.cls-1{fill:#a06426;}.cls-2{fill:none;stroke:#333;stroke-linejoin:round;}.cls-3{opacity:0.16;}</style></defs><g id="运行水电厂"><circle class="cls-1" cx="10.08" cy="29.97" r="1.18"/><circle class="cls-1" cx="14.13" cy="54.18" r="1.18"/><circle class="cls-1" cx="7.72" cy="35.99" r="1.18"/><circle class="cls-1" cx="8.9" cy="64" r="1.18"/><circle class="cls-1" cx="32.72" cy="54.18" r="1.18"/><circle class="cls-1" cx="8.9" cy="37.04" r="1.18"/><circle class="cls-1" cx="4.97" cy="48.56" r="1.18"/><circle class="cls-1" cx="15.84" cy="42.01" r="1.18"/><circle class="cls-1" cx="14.13" cy="56.54" r="1.18"/><circle class="cls-1" cx="12.43" cy="29.97" r="1.18"/><circle class="cls-1" cx="21.73" cy="34.81" r="1.18"/><circle class="cls-1" cx="11.26" cy="29.97" r="1.18"/><circle class="cls-1" cx="9.29" cy="73.69" r="1.18"/><circle class="cls-1" cx="12.43" cy="55.36" r="1.18"/><circle class="cls-1" cx="15.31" cy="71.07" r="1.18"/><circle class="cls-1" cx="19.37" cy="95.28" r="1.18"/><circle class="cls-1" cx="12.96" cy="77.09" r="1.18"/><circle class="cls-1" cx="37.96" cy="95.28" r="1.18"/><circle class="cls-1" cx="28.14" cy="89.91" r="1.18"/><circle class="cls-1" cx="14.13" cy="78.13" r="1.18"/><circle class="cls-1" cx="21.07" cy="83.11" r="1.18"/><circle class="cls-1" cx="19.37" cy="97.64" r="1.18"/><circle class="cls-1" cx="17.67" cy="71.07" r="1.18"/><circle class="cls-1" cx="26.96" cy="75.91" r="1.18"/><circle class="cls-1" cx="39.39" cy="73.16" r="1.18"/><circle class="cls-1" cx="38.22" cy="59.16" r="1.18"/><circle class="cls-1" cx="4.71" cy="82.72" r="1.18"/><circle class="cls-1" cx="5.89" cy="83.76" r="1.18"/><circle class="cls-1" cx="12.83" cy="88.74" r="1.18"/><circle class="cls-1" cx="18.72" cy="81.54" r="1.18"/><circle class="cls-1" cx="45.02" cy="81.8" r="1.18"/><circle class="cls-1" cx="16.49" cy="71.07" r="1.18"/><circle class="cls-1" cx="17.67" cy="96.46" r="1.18"/><circle class="cls-1" cx="110.99" cy="78.66" r="1.18"/><circle class="cls-1" cx="110.99" cy="81.01" r="1.18"/><circle class="cls-1" cx="109.28" cy="79.84" r="1.18"/><circle class="cls-1" cx="86.64" cy="62.17" r="1.18"/><circle class="cls-1" cx="86.64" cy="64.52" r="1.18"/><circle class="cls-1" cx="84.94" cy="63.35" r="1.18"/><circle class="cls-1" cx="27.09" cy="45.55" r="1.18"/><circle class="cls-1" cx="31.15" cy="69.76" r="1.18"/><circle class="cls-1" cx="24.74" cy="51.57" r="1.18"/><circle class="cls-1" cx="48.56" cy="64.65" r="1.18"/><circle class="cls-1" cx="52.35" cy="57.19" r="1.18"/><circle class="cls-1" cx="57.98" cy="65.83" r="1.18"/><circle class="cls-1" cx="59.68" cy="95.02" r="1.18"/><circle class="cls-1" cx="57.33" cy="93.45" r="1.18"/><circle class="cls-1" cx="62.04" cy="81.41" r="1.18"/><circle class="cls-1" cx="52.61" cy="78.13" r="1.18"/><circle class="cls-1" cx="72.64" cy="79.05" r="1.18"/><circle class="cls-1" cx="70.28" cy="77.48" r="1.18"/><circle class="cls-1" cx="74.86" cy="91.48" r="1.18"/><circle class="cls-1" cx="78.79" cy="87.3" r="1.18"/><circle class="cls-1" cx="89.39" cy="84.94" r="1.18"/><circle class="cls-1" cx="87.03" cy="83.37" r="1.18"/><circle class="cls-1" cx="91.62" cy="97.37" r="1.18"/><circle class="cls-1" cx="81.93" cy="78" r="1.18"/><circle class="cls-1" cx="96.59" cy="91.22" r="1.18"/><circle class="cls-1" cx="94.23" cy="89.65" r="1.18"/><circle class="cls-1" cx="98.94" cy="77.61" r="1.18"/><circle class="cls-1" cx="89.52" cy="74.34" r="1.18"/><circle class="cls-1" cx="102.48" cy="63.74" r="1.18"/><circle class="cls-1" cx="117.14" cy="76.96" r="1.18"/><circle class="cls-1" cx="114.78" cy="75.39" r="1.18"/><circle class="cls-1" cx="119.49" cy="63.35" r="1.18"/><circle class="cls-1" cx="110.07" cy="60.07" r="1.18"/><circle class="cls-1" cx="92.92" cy="37.82" r="1.18"/><circle class="cls-1" cx="95.15" cy="50.26" r="1.18"/><circle class="cls-1" cx="102.22" cy="36.78" r="1.18"/><circle class="cls-1" cx="116.88" cy="50" r="1.18"/><circle class="cls-1" cx="114.52" cy="48.43" r="1.18"/><circle class="cls-1" cx="119.23" cy="36.38" r="1.18"/><circle class="cls-1" cx="109.81" cy="33.11" r="1.18"/><circle class="cls-1" cx="107.19" cy="73.69" r="1.18"/><circle class="cls-1" cx="98.42" cy="83.5" r="1.18"/><circle class="cls-1" cx="52.22" cy="70.54" r="1.18"/><circle class="cls-1" cx="73.95" cy="70.28" r="1.18"/><circle class="cls-1" cx="71.59" cy="68.71" r="1.18"/><circle class="cls-1" cx="75.78" cy="62.56" r="1.18"/><circle class="cls-1" cx="113.08" cy="96.72" r="1.18"/><circle class="cls-1" cx="110.72" cy="95.15" r="1.18"/><circle class="cls-1" cx="115.44" cy="83.11" r="1.18"/><circle class="cls-1" cx="106.01" cy="79.84" r="1.18"/><circle class="cls-1" cx="118.97" cy="69.24" r="1.18"/><circle class="cls-1" cx="123.68" cy="79.18" r="1.18"/><circle class="cls-1" cx="62.69" cy="53.79" r="1.18"/><circle class="cls-1" cx="25.91" cy="52.61" r="1.18"/><circle class="cls-1" cx="32.85" cy="57.59" r="1.18"/><circle class="cls-1" cx="29.45" cy="45.55" r="1.18"/><circle class="cls-1" cx="38.74" cy="50.39" r="1.18"/><circle class="cls-1" cx="24.61" cy="63.21" r="1.18"/><circle class="cls-1" cx="30.49" cy="56.02" r="1.18"/><circle class="cls-1" cx="28.27" cy="45.55" r="1.18"/><circle class="cls-1" cx="47.12" cy="40.05" r="1.18"/><circle class="cls-1" cx="52.61" cy="45.02" r="1.18"/><circle class="cls-1" cx="41.49" cy="31.41" r="1.18"/><circle class="cls-1" cx="39.13" cy="37.43" r="1.18"/><circle class="cls-1" cx="40.31" cy="38.48" r="1.18"/><circle class="cls-1" cx="47.25" cy="43.45" r="1.18"/><circle class="cls-1" cx="43.84" cy="31.41" r="1.18"/><circle class="cls-1" cx="53.14" cy="36.25" r="1.18"/><circle class="cls-1" cx="44.89" cy="41.88" r="1.18"/><circle class="cls-1" cx="75.12" cy="48.69" r="1.18"/><circle class="cls-1" cx="80.62" cy="53.66" r="1.18"/><circle class="cls-1" cx="69.5" cy="40.05" r="1.18"/><circle class="cls-1" cx="67.14" cy="46.07" r="1.18"/><circle class="cls-1" cx="90.96" cy="59.16" r="1.18"/><circle class="cls-1" cx="68.32" cy="47.12" r="1.18"/><circle class="cls-1" cx="75.26" cy="52.09" r="1.18"/><circle class="cls-1" cx="71.85" cy="40.05" r="1.18"/><circle class="cls-1" cx="81.15" cy="44.89" r="1.18"/><circle class="cls-1" cx="67.01" cy="57.72" r="1.18"/><circle class="cls-1" cx="72.9" cy="50.52" r="1.18"/><circle class="cls-1" cx="70.67" cy="40.05" r="1.18"/><circle class="cls-1" cx="89.52" cy="34.55" r="1.18"/><circle class="cls-1" cx="81.54" cy="31.93" r="1.18"/><circle class="cls-1" cx="82.72" cy="32.98" r="1.18"/><circle class="cls-1" cx="89.65" cy="37.96" r="1.18"/><circle class="cls-1" cx="87.3" cy="36.38" r="1.18"/><circle class="cls-1" cx="42.67" cy="31.41" r="1.18"/><circle class="cls-1" cx="29.45" cy="70.94" r="1.18"/><rect class="cls-1" y="22.85" width="128" height="82.31"/><g class="cls-1"></g></g></svg>