<svg id="图层_2" data-name="图层 2" xmlns="http://www.w3.org/2000/svg" viewBox="0 0 128 128"><defs><style>.cls-0mk5fk8935ltdjf{fill:none;stroke:#fd211c;stroke-linejoin:round;}.cls-aq8jfhpf{fill:#fd211c;}.cls-zq0t7r1n{opacity:0.16;}</style></defs><g id="运行水电厂"><rect class="cls-435ltdjf" width="128" height="128"/><path class="cls-aq8jfhpf" d="M101.22,74.12V75.7H66.55V91.54a13.41,13.41,0,0,1-.88,5.5,4.8,4.8,0,0,1-3,2.6,20.07,20.07,0,0,1-6.11.7H47.54l-.26-1.58h9.24a18.2,18.2,0,0,0,5.32-.57,3.72,3.72,0,0,0,2.38-2.07,12.26,12.26,0,0,0,.66-4.66V75.7H26.78V74.12h38.1V55.2H34V53.62H64.88V32.94Q43.58,35,32.14,35.66V34.08q13.11-.88,31.16-2.64t31.06-3.78l.18,1.58q-12.06,1.85-28,3.52V53.62H94.89V55.2H66.55V74.12Z"/><g class="cls-zq0t7r1n"></g></g></svg>