<svg id="图层_2" data-name="图层 2" xmlns="http://www.w3.org/2000/svg" viewBox="0 0 128 128"><defs><style>.cls-1{fill:none;stroke:#333;stroke-linejoin:round;}.cls-2{fill:#333;}.cls-3{opacity:0.16;}</style></defs><title>g</title><g id="运行水电厂"><circle class="cls-1" cx="64" cy="64" r="64"/><circle class="cls-1" cx="64" cy="64" r="40.24"/><path class="cls-1" d="M56.35,78.46l.13.64q-.39.08-9.86,2.5-9,2.43-9.85,2.56L36.58,83c.12,0,.45-.13,1-.26s1.39-.36,2.59-.7l6.14-1.6V55H37.22V53.76H46.3v-18h1.16v18H55.9V55H47.46V80.13l5.24-1.35,3.52-.89ZM76.77,42.37a86.54,86.54,0,0,1-3.59,8.51V92.29H72v-39A79.18,79.18,0,0,1,55.71,75l-.83-.9A76.06,76.06,0,0,0,66.72,59.87a85.78,85.78,0,0,0,8.77-17.5H57.18V41.15H91v1.22ZM76.83,58q2.94,3.27,7.33,8.58t7.26,8.9l-.83.83q-3.25-4.1-7.52-9.22T76,58.75Z"/><line class="cls-1" x1="34.66" y1="36.89" x2="17.5" y2="20.5"/><line class="cls-1" x1="111.2" y1="20.74" x2="94.52" y2="36.89"/><line class="cls-1" x1="34.66" y1="91.5" x2="17.5" y2="107.89"/><line class="cls-1" x1="111.2" y1="107.65" x2="94.52" y2="91.5"/><g class="cls-1"></g></g></svg>