<svg id="图层_2" data-name="图层 2" xmlns="http://www.w3.org/2000/svg" viewBox="0 0 128 128"><defs><style>.cls-46fwv32iek95dll,.cls-rcz2j13n{fill:none;}.cls-46fwv32iek95dll,.cls-zkdbiwj9{stroke:#333;}.cls-46fwv32iek95dll,.cls-zkdbiwj9,.cls-rcz2j13n{stroke-linejoin:round;}.cls-zkdbiwj9{fill:#333;}.cls-rcz2j13n{stroke:#2e3333;}.cls-gxfpyehr{opacity:0.16;}</style></defs><g id="运行水电厂"><line class="cls-9ek95dll" x1="16.45" y1="101.45" x2="106.12" y2="30.84"/><polygon class="cls-zkdbiwj9" points="111.56 26.55 91.3 31.77 101.75 45.02 111.56 26.55"/><line class="cls-rcz2j13n" x1="48.41" y1="-0.25" x2="48.41" y2="29.75"/><line class="cls-rcz2j13n" x1="48.37" y1="98.25" x2="48.37" y2="128.25"/><path class="cls-rcz2j13n" d="M48.31,30a7.71,7.71,0,0,1,7.74,7.37c.32,5.8-3.4,9.25-7.68,9.25"/><path class="cls-rcz2j13n" d="M48.31,46.6A7.71,7.71,0,0,1,56.05,54c.32,5.79-3.4,9.25-7.68,9.25"/><path class="cls-rcz2j13n" d="M48.31,64a7.71,7.71,0,0,1,7.74,7.36c.32,5.8-3.4,9.26-7.68,9.26"/><path class="cls-rcz2j13n" d="M48.31,81.34a7.7,7.7,0,0,1,7.74,7.36c.32,5.8-3.4,9.25-7.68,9.25"/><line class="cls-rcz2j13n" x1="67.69" y1="2.5" x2="67.69" y2="125.5"/><line class="cls-rcz2j13n" x1="79.69" y1="3" x2="79.69" y2="126"/><g class="cls-gxfpyehr"></g></g></svg>