<svg id="图层_2" data-name="图层 2" xmlns="http://www.w3.org/2000/svg" viewBox="0 0 128 128"><defs><style>.cls-1{fill:#333;}.cls-1{opacity:0.16;}</style></defs><g id="运行水电厂"><path class="cls-1" d="M127,1V127H1V1H127m1-1H0V128H128V0Z"/><path class="cls-1" d="M43.35,62.74q6.43.7,10.15,4.24a11.8,11.8,0,0,1,3.71,8.92,12.12,12.12,0,0,1-5.42,10.64q-5.43,3.7-15.51,3.71H24V37.75H36.07q8.82,0,13.55,3.26a10.59,10.59,0,0,1,4.72,9.27,11.7,11.7,0,0,1-3,8,13.61,13.61,0,0,1-8,4.3ZM25.5,39.22V62H37.89q6.86,0,10.89-3.08a10.08,10.08,0,0,0,4-8.47,9.37,9.37,0,0,0-4.37-8.29q-4.38-2.91-12.57-2.91ZM35.86,88.78q9.53,0,14.67-3.32a10.72,10.72,0,0,0,5.14-9.56A10.51,10.51,0,0,0,51,66.66q-4.73-3.22-13.06-3.22H25.5V88.78Z"/><path class="cls-1" d="M104,84.09a18.19,18.19,0,0,1-6.83,5.29,21.61,21.61,0,0,1-9,1.85,22.21,22.21,0,0,1-12.29-3.36,21.69,21.69,0,0,1-8-9.56,35.07,35.07,0,0,1-2.8-14.59,33.85,33.85,0,0,1,2.8-14.28,21.31,21.31,0,0,1,8-9.38,22.6,22.6,0,0,1,12.29-3.29,20.57,20.57,0,0,1,8.54,1.86A22.77,22.77,0,0,1,104,43.91L102.92,45a20.65,20.65,0,0,0-6.79-4.9,19.14,19.14,0,0,0-8-1.82A20.84,20.84,0,0,0,76.7,41.35a20.2,20.2,0,0,0-7.49,8.86,32.24,32.24,0,0,0-2.62,13.51,33.77,33.77,0,0,0,2.62,13.86,20.29,20.29,0,0,0,7.49,9,20.61,20.61,0,0,0,11.45,3.15q9.45,0,14.7-6.79Z"/><g class="cls-1"></g></g></svg>