<svg id="图层_2" data-name="图层 2" xmlns="http://www.w3.org/2000/svg" viewBox="0 0 128 128"><defs><style>.cls-1{fill:none;stroke:#333;stroke-linejoin:round;stroke-width:2px;}.cls-1{opacity:0.16;}</style></defs><g id="运行水电厂"><rect class="cls-1" x="0.25" y="24.82" width="127.38" height="78.23"/><line class="cls-1" x1="0.19" y1="41.48" x2="21.15" y2="24.26"/><line class="cls-1" x1="114" y1="102" x2="128" y2="90.56"/><line class="cls-1" x1="24.01" y1="40.68" x2="43.16" y2="24.88"/><line class="cls-1" x1="24.51" y1="61.7" x2="43.66" y2="45.9"/><line class="cls-1" x1="49.51" y1="41.05" x2="68.66" y2="25.25"/><line class="cls-1" x1="0.12" y1="60.33" x2="19.28" y2="44.53"/><line class="cls-1" x1="110.34" y1="87.57" x2="127.63" y2="73.27"/><line class="cls-1" x1="91.55" y1="103" x2="105.61" y2="91.43"/><line class="cls-1" y1="81.23" x2="19.16" y2="65.43"/><line class="cls-1" x1="83.84" y1="86.2" x2="103" y2="70.41"/><line class="cls-1" x1="108.84" y1="65.55" x2="128" y2="49.76"/><line class="cls-1" x1="63" y1="102" x2="77.87" y2="89.94"/><line class="cls-1" x1="27.49" y1="80.61" x2="46.65" y2="64.81"/><line class="cls-1" x1="52.12" y1="60.33" x2="71.28" y2="44.53"/><line class="cls-1" x1="76" y1="40.68" x2="95.16" y2="24.88"/><line class="cls-1" y1="103" x2="22.14" y2="84.34"/><line class="cls-1" x1="55.48" y1="83.47" x2="74.64" y2="67.67"/><line class="cls-1" x1="80.11" y1="63.19" x2="99.27" y2="47.39"/><line class="cls-1" x1="103.99" y1="43.54" x2="126" y2="25"/><line class="cls-1" x1="30.97" y1="103" x2="50.13" y2="87.2"/><g class="cls-1"></g></g></svg>