<svg id="图层_2" data-name="图层 2" xmlns="http://www.w3.org/2000/svg" viewBox="0 0 128 128"><defs><style>.cls-1{fill:none;stroke:#333;stroke-linejoin:round;}.cls-2{fill:#333;}.cls-3{opacity:0.16;}</style></defs><g id="运行水电厂"><circle class="cls-1" cx="64" cy="64" r="64"/><path class="cls-1" d="M63.56,74.16A10.44,10.44,0,0,1,65,68.24,39.64,39.64,0,0,1,69.8,62.4a39.34,39.34,0,0,0,5.6-7,15.14,15.14,0,0,0,1.92-7.92,12.11,12.11,0,0,0-3.44-9,12.38,12.38,0,0,0-9.12-3.4,13.38,13.38,0,0,0-8.2,2.72,20.85,20.85,0,0,0-6.12,7.84l-1.52-.88a21.47,21.47,0,0,1,6.6-8.4,15.24,15.24,0,0,1,9.24-3,14.35,14.35,0,0,1,10.36,3.8,13.17,13.17,0,0,1,4,10A18,18,0,0,1,78,53.64a18.46,18.46,0,0,1-2.68,4.88q-1.6,2-4.08,4.68a37.32,37.32,0,0,0-4.52,5.56,10.4,10.4,0,0,0-1.56,5.4l-.08,3.52H63.64Zm3,20.4h-4v-4h4Z"/><g class="cls-1"></g></g></svg>