<svg id="图层_2" data-name="图层 2" xmlns="http://www.w3.org/2000/svg" viewBox="0 0 128 128"><defs><style>.cls-yfqmlyjun6zb9pf{fill:#333;}.cls-irmuumti{fill:none;stroke:#333;stroke-linejoin:round;}.cls-c34ov91qmwqjdoc{opacity:0.16;}</style></defs><g id="运行水电厂"><path class="cls-9n6zb9pf" d="M66.05,14A31,31,0,1,1,35,45a31.07,31.07,0,0,1,31-31m0-1a32,32,0,1,0,32,32,32,32,0,0,0-32-32Z"/><path class="cls-9n6zb9pf" d="M66.05,53.51a31,31,0,1,1-31,31,31.07,31.07,0,0,1,31-31m0-1a32,32,0,1,0,32,32,32,32,0,0,0-32-32Z"/><line class="cls-irmuumti" x1="66.05" y1="115.83" x2="66.05" y2="128.59"/><line class="cls-irmuumti" x1="66.05" y1="-0.41" x2="66.05" y2="13.5"/><g class="cls-8mwqjdoc"></g></g></svg>