<svg id="图层_2" data-name="图层 2" xmlns="http://www.w3.org/2000/svg" viewBox="0 0 128 128"><defs><style>.cls-j4r88a48{fill:#606060;}.cls-coka7q8pqr8d1cg{fill:#333;}.cls-gh6e2k9gngsdhve{fill:none;stroke:#333;stroke-linejoin:round;}.cls-r7b6ad3e{opacity:0.16;}</style></defs><g id="运行水电厂"><circle class="cls-j4r88a48" cx="64" cy="44.42" r="31.53"/><path class="cls-0qr8d1cg" d="M64,13.39a31,31,0,1,1-31,31,31.07,31.07,0,0,1,31-31m0-1a32,32,0,1,0,32,32,32,32,0,0,0-32-32Z"/><path class="cls-0qr8d1cg" d="M64,52.93A31,31,0,1,1,33,84a31.07,31.07,0,0,1,31-31m0-1A32,32,0,1,0,96,84a32,32,0,0,0-32-32Z"/><line class="cls-1ngsdhve" x1="64" y1="115.24" x2="64" y2="128"/><line class="cls-1ngsdhve" x1="64" x2="64" y2="12.76"/><g class="cls-r7b6ad3e"></g></g></svg>