<svg id="图层_2" data-name="图层 2" xmlns="http://www.w3.org/2000/svg" viewBox="0 0 128 128"><defs><style>.cls-1{fill:none;stroke:#fd211c;stroke-linejoin:round;}.cls-2{fill:#fd211c;}.cls-3{opacity:0.16;}</style></defs><title>g</title><g id="运行水电厂"><rect class="cls-1" x="0.5" y="0.5" width="127" height="127"/><path class="cls-1" d="M51.68,67q-1.68-1.68-7-6.43L40.15,56.3v47.17H38.57V51.28A124.33,124.33,0,0,1,27.3,80.41l-1.23-1A127.05,127.05,0,0,0,38.57,45.3V45H27.22V43.36H38.57V24.53h1.58V43.36H51.77V45H40.15v9.33C42,56.1,44,57.86,46,59.56q3.43,3.07,6.69,6.16ZM93.39,64Q85.74,87.46,82.3,96.6H99.46v1.59H49.39V96.6H80.72Q84.86,85.17,92,63.52ZM75.26,25.32q8.8,17.52,26.67,32.56l-.88,1.32q-17.61-15-26.4-31.76A103.41,103.41,0,0,1,50.8,57.18l-1-1.32Q66,41.7,73.94,25.32ZM56.08,64l6.86,25.52-1.49.53Q57,73.38,54.5,64.48ZM57.22,56H92v1.67H57.22ZM75.7,87.54Q73,77.07,72.54,75.13,71,69.41,69.46,63.25L71,62.81q.7,2.64,1.63,6.21t2,7.61L77.2,87.1Z"/><g class="cls-1"></g></g></svg>