<svg id="图层_2" data-name="图层 2" xmlns="http://www.w3.org/2000/svg" viewBox="0 0 128 128"><defs><style>.cls-1,.cls-2{fill:none;stroke-linejoin:round;}.cls-1{stroke:#fd3333;}.cls-2{stroke:#fb3433;}.cls-3{fill:#fdff40;}.cls-4{fill:#73ff71;}.cls-5{fill:#fd3333;}.cls-6{fill:#fbfd40;}.cls-7{fill:#08c9fd;}.cls-8{fill:#fb3433;}.cls-9{opacity:0.16;}</style></defs><g id="运行水电厂"><rect class="cls-1" y="70.5" width="128" height="57.5"/><rect class="cls-1" y="70.5" width="128" height="57.5"/><rect class="cls-1" y="70.5" width="128" height="57.5"/><rect class="cls-1" y="70.5" width="128" height="57.5"/><rect class="cls-1" width="128" height="57.5"/><path class="cls-1" d="M35.8,108.32H34.34L32,101.94H25l-2.31,6.38H21.19l6.57-18.14h1.47Zm-7.34-16.1-3,8.4h6.15l-3-8.4Z"/><path class="cls-1" d="M66.59,98.84a5.25,5.25,0,0,1,3.21,1.41A4,4,0,0,1,71,103.19a4.39,4.39,0,0,1-1.87,3.8,9.13,9.13,0,0,1-5.35,1.33h-5V90.18h4.9a8,8,0,0,1,4.69,1.17,4.17,4.17,0,0,1,.72,5.93,4.51,4.51,0,0,1-2.51,1.44ZM60.18,91.5v6.65h3.68a5.78,5.78,0,0,0,3.46-.92,2.92,2.92,0,0,0,1.26-2.52,2.66,2.66,0,0,0-1.32-2.37,7,7,0,0,0-3.74-.84ZM63.52,107A8.08,8.08,0,0,0,68,106a3.24,3.24,0,0,0,1.55-2.88A3,3,0,0,0,68,100.4a7.86,7.86,0,0,0-4.17-.93H60.18V107Z"/><path class="cls-1" d="M106.79,105.8a6.29,6.29,0,0,1-2.46,2.1,7.36,7.36,0,0,1-3.35.76,7.49,7.49,0,0,1-7.09-4.5,11.85,11.85,0,0,1-1-5,11.37,11.37,0,0,1,1-4.9A7.59,7.59,0,0,1,96.72,91,7.94,7.94,0,0,1,101,89.84a7.33,7.33,0,0,1,3.3.76,6.65,6.65,0,0,1,2.53,2.1l-1.1.81a5.69,5.69,0,0,0-2.12-1.71,5.92,5.92,0,0,0-2.63-.64,6.13,6.13,0,0,0-5.83,3.78,10.07,10.07,0,0,0-.82,4.21,10.52,10.52,0,0,0,.82,4.31,6.47,6.47,0,0,0,2.32,2.87,6.21,6.21,0,0,0,3.51,1,6.09,6.09,0,0,0,2.65-.61,5.6,5.6,0,0,0,2.1-1.77Z"/><path class="cls-1" d="M35.8,37.82H34.34L32,31.44H25l-2.31,6.38H21.19l6.57-18.14h1.47Zm-7.34-16.1-3,8.4h6.15l-3-8.4Z"/><path class="cls-1" d="M66.59,28.34a5.25,5.25,0,0,1,3.21,1.41A4,4,0,0,1,71,32.69a4.39,4.39,0,0,1-1.87,3.8,9.13,9.13,0,0,1-5.35,1.33h-5V19.68h4.9a8,8,0,0,1,4.69,1.17A3.86,3.86,0,0,1,70,24.19a3.82,3.82,0,0,1-.92,2.59,4.51,4.51,0,0,1-2.51,1.44ZM60.18,21v6.65h3.68a5.78,5.78,0,0,0,3.46-.92,2.92,2.92,0,0,0,1.26-2.52,2.66,2.66,0,0,0-1.32-2.37A7,7,0,0,0,63.52,21Zm3.34,15.5a8.08,8.08,0,0,0,4.45-1,3.24,3.24,0,0,0,1.55-2.88A3,3,0,0,0,68,29.9,7.86,7.86,0,0,0,63.86,29H60.18V36.5Z"/><path class="cls-1" d="M106.79,35.3a6.29,6.29,0,0,1-2.46,2.1,7.36,7.36,0,0,1-3.35.76,7.49,7.49,0,0,1-7.09-4.5,11.85,11.85,0,0,1-1-5,11.37,11.37,0,0,1,1-4.9,7.59,7.59,0,0,1,2.83-3.26A7.94,7.94,0,0,1,101,19.34a7.33,7.33,0,0,1,3.3.76,6.65,6.65,0,0,1,2.53,2.1l-1.1.81a5.69,5.69,0,0,0-2.12-1.71,5.92,5.92,0,0,0-2.63-.64,6.13,6.13,0,0,0-5.83,3.78,10.07,10.07,0,0,0-.82,4.21A10.52,10.52,0,0,0,95.13,33a6.47,6.47,0,0,0,2.32,2.87,6.21,6.21,0,0,0,3.51,1,6.09,6.09,0,0,0,2.65-.61,5.6,5.6,0,0,0,2.1-1.77Z"/><g class="cls-1"></g></g></svg>