<svg id="图层_2" data-name="图层 2" xmlns="http://www.w3.org/2000/svg" viewBox="0 0 128 128"><defs><style>.cls-rx7hnffnv4ro4rm{fill:none;stroke:#fd3333;stroke-linejoin:round;}.cls-i6fsmker{fill:#fdff40;}.cls-tryjc7ic{fill:#1effff;}.cls-cnf1jv7s{fill:#fd3333;}.cls-hq40p8qd{opacity:0.16;}</style></defs><g id="运行水电厂"><rect class="cls-4v4ro4rm" y="35.25" width="128" height="57.5"/><path class="cls-i6fsmker" d="M105.12,73.07h-1.46l-2.3-6.38H94.3L92,73.07H90.51l6.57-18.14h1.47ZM97.78,57l-3,8.4h6.14l-3-8.4Z"/><path class="cls-tryjc7ic" d="M67.28,63.59A5.25,5.25,0,0,1,70.48,65a4,4,0,0,1,1.16,2.94,4.39,4.39,0,0,1-1.87,3.8,9.13,9.13,0,0,1-5.35,1.33H59.48V54.93h4.89a8,8,0,0,1,4.69,1.17A4.15,4.15,0,0,1,69.78,62a4.48,4.48,0,0,1-2.5,1.44Zm-6.41-7.34V62.9h3.67A5.81,5.81,0,0,0,68,62a2.92,2.92,0,0,0,1.26-2.52A2.66,2.66,0,0,0,68,57.09a7,7,0,0,0-3.75-.84Zm3.33,15.5a8.14,8.14,0,0,0,4.46-1,3.23,3.23,0,0,0,1.54-2.88,3,3,0,0,0-1.49-2.71,7.86,7.86,0,0,0-4.17-.93H60.87v7.53Z"/><path class="cls-cnf1jv7s" d="M36.77,70.55a6.29,6.29,0,0,1-2.46,2.1,7.33,7.33,0,0,1-3.35.76,7.49,7.49,0,0,1-7.09-4.5,11.85,11.85,0,0,1-1-5,11.37,11.37,0,0,1,1-4.9,7.65,7.65,0,0,1,2.83-3.26A7.94,7.94,0,0,1,31,54.59a7.33,7.33,0,0,1,3.3.76,6.68,6.68,0,0,1,2.54,2.1l-1.11.81a5.69,5.69,0,0,0-2.12-1.71,5.89,5.89,0,0,0-2.63-.64,6.16,6.16,0,0,0-5.83,3.78,10.07,10.07,0,0,0-.82,4.21,10.52,10.52,0,0,0,.82,4.31,6.42,6.42,0,0,0,2.33,2.87,6.34,6.34,0,0,0,6.15.4,5.6,5.6,0,0,0,2.1-1.77Z"/><g class="cls-hq40p8qd"></g></g></svg>