<svg id="图层_2" data-name="图层 2" xmlns="http://www.w3.org/2000/svg" viewBox="0 0 128 128"><defs><style>.cls-1{fill:#a06426;}.cls-2{fill:none;stroke:#333;stroke-linejoin:round;}.cls-3{opacity:0.16;}</style></defs><g id="运行水电厂"><circle class="cls-1" cx="10.08" cy="29.97" r="1.18"/><circle class="cls-1" cx="14.13" cy="54.18" r="1.18"/><circle class="cls-1" cx="7.72" cy="35.99" r="1.18"/><circle class="cls-1" cx="8.9" cy="64" r="1.18"/><circle class="cls-1" cx="32.72" cy="54.18" r="1.18"/><circle class="cls-1" cx="8.9" cy="37.04" r="1.18"/><circle class="cls-1" cx="4.97" cy="48.56" r="1.18"/><circle class="cls-1" cx="15.84" cy="42.01" r="1.18"/><circle class="cls-1" cx="14.13" cy="56.54" r="1.18"/><circle class="cls-1" cx="12.43" cy="29.97" r="1.18"/><circle class="cls-1" cx="21.73" cy="34.81" r="1.18"/><circle class="cls-1" cx="11.26" cy="29.97" r="1.18"/><circle class="cls-1" cx="9.29" cy="73.69" r="1.18"/><circle class="cls-1" cx="12.43" cy="55.36" r="1.18"/><circle class="cls-1" cx="15.31" cy="71.07" r="1.18"/><circle class="cls-1" cx="19.37" cy="95.28" r="1.18"/><circle class="cls-1" cx="12.96" cy="77.09" r="1.18"/><circle class="cls-1" cx="37.96" cy="95.28" r="1.18"/><circle class="cls-1" cx="28.14" cy="89.91" r="1.18"/><circle class="cls-1" cx="14.13" cy="78.13" r="1.18"/><circle class="cls-1" cx="21.07" cy="83.11" r="1.18"/><circle class="cls-1" cx="19.37" cy="97.64" r="1.18"/><circle class="cls-1" cx="17.67" cy="71.07" r="1.18"/><circle class="cls-1" cx="26.96" cy="75.91" r="1.18"/><circle class="cls-1" cx="39.39" cy="73.16" r="1.18"/><circle class="cls-1" cx="38.22" cy="59.16" r="1.18"/><circle class="cls-1" cx="4.71" cy="82.72" r="1.18"/><circle class="cls-1" cx="5.89" cy="83.76" r="1.18"/><circle class="cls-1" cx="12.83" cy="88.74" r="1.18"/><circle class="cls-1" cx="18.72" cy="81.54" r="1.18"/><circle class="cls-1" cx="45.02" cy="81.8" r="1.18"/><circle class="cls-1" cx="16.49" cy="71.07" r="1.18"/><circle class="cls-1" cx="17.67" cy="96.46" r="1.18"/><circle class="cls-1" cx="27.09" cy="45.55" r="1.18"/><circle class="cls-1" cx="31.15" cy="69.76" r="1.18"/><circle class="cls-1" cx="24.74" cy="51.57" r="1.18"/><circle class="cls-1" cx="48.56" cy="64.65" r="1.18"/><circle class="cls-1" cx="52.35" cy="57.19" r="1.18"/><circle class="cls-1" cx="57.98" cy="65.83" r="1.18"/><circle class="cls-1" cx="59.68" cy="95.02" r="1.18"/><circle class="cls-1" cx="57.33" cy="93.45" r="1.18"/><circle class="cls-1" cx="62.04" cy="81.41" r="1.18"/><circle class="cls-1" cx="52.61" cy="78.13" r="1.18"/><circle class="cls-1" cx="72.64" cy="79.05" r="1.18"/><circle class="cls-1" cx="70.28" cy="77.48" r="1.18"/><circle class="cls-1" cx="74.86" cy="91.48" r="1.18"/><circle class="cls-1" cx="81.93" cy="78" r="1.18"/><circle class="cls-1" cx="96.59" cy="91.22" r="1.18"/><circle class="cls-1" cx="94.23" cy="89.65" r="1.18"/><circle class="cls-1" cx="98.94" cy="77.61" r="1.18"/><circle class="cls-1" cx="89.52" cy="74.34" r="1.18"/><circle class="cls-1" cx="102.48" cy="63.74" r="1.18"/><circle class="cls-1" cx="117.14" cy="76.96" r="1.18"/><circle class="cls-1" cx="114.78" cy="75.39" r="1.18"/><circle class="cls-1" cx="119.49" cy="63.35" r="1.18"/><circle class="cls-1" cx="110.07" cy="60.07" r="1.18"/><circle class="cls-1" cx="92.92" cy="37.82" r="1.18"/><circle class="cls-1" cx="95.15" cy="50.26" r="1.18"/><circle class="cls-1" cx="102.22" cy="36.78" r="1.18"/><circle class="cls-1" cx="116.88" cy="50" r="1.18"/><circle class="cls-1" cx="114.52" cy="48.43" r="1.18"/><circle class="cls-1" cx="119.23" cy="36.38" r="1.18"/><circle class="cls-1" cx="109.81" cy="33.11" r="1.18"/><circle class="cls-1" cx="107.19" cy="73.69" r="1.18"/><circle class="cls-1" cx="98.42" cy="83.5" r="1.18"/><circle class="cls-1" cx="52.22" cy="70.54" r="1.18"/><circle class="cls-1" cx="73.95" cy="70.28" r="1.18"/><circle class="cls-1" cx="71.59" cy="68.71" r="1.18"/><circle class="cls-1" cx="75.78" cy="62.56" r="1.18"/><circle class="cls-1" cx="113.08" cy="96.72" r="1.18"/><circle class="cls-1" cx="110.72" cy="95.15" r="1.18"/><circle class="cls-1" cx="116.61" cy="84.29" r="1.18"/><circle class="cls-1" cx="106.01" cy="79.84" r="1.18"/><circle class="cls-1" cx="118.97" cy="69.24" r="1.18"/><circle class="cls-1" cx="123.68" cy="79.18" r="1.18"/><circle class="cls-1" cx="62.69" cy="53.79" r="1.18"/><circle class="cls-1" cx="25.91" cy="52.61" r="1.18"/><circle class="cls-1" cx="32.85" cy="57.59" r="1.18"/><circle class="cls-1" cx="29.45" cy="45.55" r="1.18"/><circle class="cls-1" cx="38.74" cy="50.39" r="1.18"/><circle class="cls-1" cx="24.61" cy="63.21" r="1.18"/><circle class="cls-1" cx="30.49" cy="56.02" r="1.18"/><circle class="cls-1" cx="28.27" cy="45.55" r="1.18"/><circle class="cls-1" cx="47.12" cy="40.05" r="1.18"/><circle class="cls-1" cx="52.61" cy="45.02" r="1.18"/><circle class="cls-1" cx="41.49" cy="31.41" r="1.18"/><circle class="cls-1" cx="39.13" cy="37.43" r="1.18"/><circle class="cls-1" cx="40.31" cy="38.48" r="1.18"/><circle class="cls-1" cx="47.25" cy="43.45" r="1.18"/><circle class="cls-1" cx="43.84" cy="31.41" r="1.18"/><circle class="cls-1" cx="53.14" cy="36.25" r="1.18"/><circle class="cls-1" cx="44.89" cy="41.88" r="1.18"/><circle class="cls-1" cx="75.12" cy="48.69" r="1.18"/><circle class="cls-1" cx="80.62" cy="53.66" r="1.18"/><circle class="cls-1" cx="69.5" cy="40.05" r="1.18"/><circle class="cls-1" cx="67.14" cy="46.07" r="1.18"/><circle class="cls-1" cx="90.96" cy="59.16" r="1.18"/><circle class="cls-1" cx="68.32" cy="47.12" r="1.18"/><circle class="cls-1" cx="75.26" cy="52.09" r="1.18"/><circle class="cls-1" cx="81.15" cy="44.89" r="1.18"/><circle class="cls-1" cx="67.01" cy="57.72" r="1.18"/><circle class="cls-1" cx="72.9" cy="50.52" r="1.18"/><circle class="cls-1" cx="89.52" cy="34.55" r="1.18"/><circle class="cls-1" cx="81.54" cy="31.93" r="1.18"/><circle class="cls-1" cx="42.01" cy="68.06" r="1.18"/><circle class="cls-1" cx="57.98" cy="72.51" r="1.18"/><circle class="cls-1" cx="55.62" cy="70.94" r="1.18"/><circle class="cls-1" cx="59.81" cy="64.79" r="1.18"/><circle class="cls-1" cx="46.72" cy="56.02" r="1.18"/><circle class="cls-1" cx="59.16" cy="50.91" r="1.18"/><circle class="cls-1" cx="64.65" cy="55.89" r="1.18"/><circle class="cls-1" cx="53.53" cy="42.27" r="1.18"/><circle class="cls-1" cx="51.17" cy="48.29" r="1.18"/><circle class="cls-1" cx="52.35" cy="49.34" r="1.18"/><circle class="cls-1" cx="59.29" cy="54.31" r="1.18"/><circle class="cls-1" cx="55.89" cy="42.27" r="1.18"/><circle class="cls-1" cx="65.18" cy="47.12" r="1.18"/><circle class="cls-1" cx="51.04" cy="59.94" r="1.18"/><circle class="cls-1" cx="56.93" cy="52.74" r="1.18"/><circle class="cls-1" cx="54.71" cy="42.27" r="1.18"/><circle class="cls-1" cx="33.9" cy="93.58" r="1.18"/><circle class="cls-1" cx="57.33" cy="98.94" r="1.18"/><circle class="cls-1" cx="44.24" cy="90.18" r="1.18"/><circle class="cls-1" cx="34.16" cy="81.41" r="1.18"/><circle class="cls-1" cx="28.79" cy="79.84" r="1.18"/><circle class="cls-1" cx="56.67" cy="85.07" r="1.18"/><circle class="cls-1" cx="62.17" cy="90.04" r="1.18"/><circle class="cls-1" cx="48.69" cy="82.45" r="1.18"/><circle class="cls-1" cx="49.87" cy="83.5" r="1.18"/><circle class="cls-1" cx="56.8" cy="88.47" r="1.18"/><circle class="cls-1" cx="62.69" cy="81.28" r="1.18"/><circle class="cls-1" cx="48.56" cy="94.1" r="1.18"/><circle class="cls-1" cx="54.45" cy="86.9" r="1.18"/><circle class="cls-1" cx="66.36" cy="93.06" r="1.18"/><circle class="cls-1" cx="64" cy="91.48" r="1.18"/><circle class="cls-1" cx="63.35" cy="83.11" r="1.18"/><circle class="cls-1" cx="68.84" cy="88.08" r="1.18"/><circle class="cls-1" cx="56.54" cy="81.54" r="1.18"/><circle class="cls-1" cx="63.48" cy="86.51" r="1.18"/><circle class="cls-1" cx="61.12" cy="84.94" r="1.18"/><circle class="cls-1" cx="28.27" cy="92.4" r="1.18"/><circle class="cls-1" cx="40.7" cy="87.3" r="1.18"/><circle class="cls-1" cx="46.2" cy="92.27" r="1.18"/><circle class="cls-1" cx="35.08" cy="78.66" r="1.18"/><circle class="cls-1" cx="32.72" cy="84.68" r="1.18"/><circle class="cls-1" cx="33.9" cy="85.73" r="1.18"/><circle class="cls-1" cx="40.83" cy="90.7" r="1.18"/><circle class="cls-1" cx="37.43" cy="78.66" r="1.18"/><circle class="cls-1" cx="46.72" cy="83.5" r="1.18"/><circle class="cls-1" cx="32.59" cy="96.33" r="1.18"/><circle class="cls-1" cx="38.48" cy="89.13" r="1.18"/><circle class="cls-1" cx="26.04" cy="89.39" r="1.18"/><circle class="cls-1" cx="16.23" cy="84.02" r="1.18"/><circle class="cls-1" cx="21.99" cy="87.69" r="1.18"/><circle class="cls-1" cx="16.36" cy="86.51" r="1.18"/><circle class="cls-1" cx="28.92" cy="84.81" r="1.18"/><circle class="cls-1" cx="20.68" cy="90.44" r="1.18"/><circle class="cls-1" cx="26.57" cy="83.24" r="1.18"/><circle class="cls-1" cx="70.67" cy="67.93" r="1.18"/><circle class="cls-1" cx="87.69" cy="67.53" r="1.18"/><circle class="cls-1" cx="78.27" cy="64.26" r="1.18"/><circle class="cls-1" cx="98.29" cy="65.18" r="1.18"/><circle class="cls-1" cx="95.93" cy="63.61" r="1.18"/><circle class="cls-1" cx="82.32" cy="71.2" r="1.18"/><circle class="cls-1" cx="74.34" cy="68.58" r="1.18"/><circle class="cls-1" cx="87.17" cy="56.41" r="1.18"/><circle class="cls-1" cx="82.45" cy="74.6" r="1.18"/><circle class="cls-1" cx="88.34" cy="67.4" r="1.18"/><circle class="cls-1" cx="80.1" cy="73.03" r="1.18"/><circle class="cls-1" cx="67.4" cy="71.2" r="1.18"/><circle class="cls-1" cx="79.05" cy="71.72" r="1.18"/><circle class="cls-1" cx="71.07" cy="64" r="1.18"/><circle class="cls-1" cx="68.71" cy="62.43" r="1.18"/><circle class="cls-1" cx="72.9" cy="56.28" r="1.18"/><circle class="cls-1" cx="67.8" cy="61.64" r="1.18"/><circle class="cls-1" cx="75.39" cy="57.98" r="1.18"/><circle class="cls-1" cx="79.44" cy="64.92" r="1.18"/><circle class="cls-1" cx="71.46" cy="62.3" r="1.18"/><circle class="cls-1" cx="79.57" cy="68.32" r="1.18"/><circle class="cls-1" cx="77.22" cy="66.75" r="1.18"/><circle class="cls-1" cx="77.48" cy="96.33" r="1.18"/><circle class="cls-1" cx="75.12" cy="94.76" r="1.18"/><circle class="cls-1" cx="86.77" cy="95.28" r="1.18"/><circle class="cls-1" cx="78.79" cy="87.56" r="1.18"/><circle class="cls-1" cx="76.43" cy="85.99" r="1.18"/><circle class="cls-1" cx="80.62" cy="79.84" r="1.18"/><circle class="cls-1" cx="75.52" cy="85.2" r="1.18"/><circle class="cls-1" cx="83.11" cy="81.54" r="1.18"/><circle class="cls-1" cx="87.17" cy="88.47" r="1.18"/><circle class="cls-1" cx="79.18" cy="85.86" r="1.18"/><circle class="cls-1" cx="87.3" cy="91.88" r="1.18"/><circle class="cls-1" cx="84.94" cy="90.31" r="1.18"/><circle class="cls-1" cx="102.22" cy="92.14" r="1.18"/><circle class="cls-1" cx="102.48" cy="95.41" r="1.18"/><circle class="cls-1" cx="114.13" cy="95.93" r="1.18"/><circle class="cls-1" cx="106.14" cy="88.21" r="1.18"/><circle class="cls-1" cx="103.79" cy="86.64" r="1.18"/><circle class="cls-1" cx="102.87" cy="85.86" r="1.18"/><circle class="cls-1" cx="110.46" cy="82.19" r="1.18"/><circle class="cls-1" cx="114.52" cy="89.13" r="1.18"/><circle class="cls-1" cx="106.54" cy="86.51" r="1.18"/><circle class="cls-1" cx="90.18" cy="81.15" r="1.18"/><circle class="cls-1" cx="87.82" cy="79.57" r="1.18"/><circle class="cls-1" cx="92.01" cy="73.42" r="1.18"/><circle class="cls-1" cx="99.6" cy="69.76" r="1.18"/><circle class="cls-1" cx="95.8" cy="82.06" r="1.18"/><circle class="cls-1" cx="99.73" cy="78.13" r="1.18"/><circle class="cls-1" cx="97.37" cy="76.56" r="1.18"/><circle class="cls-1" cx="96.46" cy="75.78" r="1.18"/><circle class="cls-1" cx="101.3" cy="75.39" r="1.18"/><circle class="cls-1" cx="114.65" cy="92.53" r="1.18"/><circle class="cls-1" cx="112.29" cy="90.96" r="1.18"/><circle class="cls-1" cx="66.36" cy="73.42" r="1.18"/><circle class="cls-1" cx="66.09" cy="63.21" r="1.18"/><ellipse class="cls-1" cx="104.11" cy="67.93" rx="0.59" ry="1.18"/><circle class="cls-1" cx="102.35" cy="66.36" r="1.18"/><circle class="cls-1" cx="97.9" cy="56.67" r="1.18"/><circle class="cls-1" cx="93.71" cy="58.11" r="1.18"/><circle class="cls-1" cx="91.35" cy="56.54" r="1.18"/><ellipse class="cls-1" cx="99.53" cy="60.86" rx="0.59" ry="1.18"/><circle class="cls-1" cx="97.77" cy="59.29" r="1.18"/><circle class="cls-1" cx="87.69" cy="59.55" r="1.18"/><circle class="cls-1" cx="83.5" cy="60.99" r="1.18"/><circle class="cls-1" cx="81.15" cy="59.42" r="1.18"/><circle class="cls-1" cx="89.91" cy="63.74" r="1.18"/><circle class="cls-1" cx="87.56" cy="62.17" r="1.18"/><circle class="cls-1" cx="114" cy="66.88" r="1.18"/><circle class="cls-1" cx="106.01" cy="59.16" r="1.18"/><circle class="cls-1" cx="103.66" cy="57.59" r="1.18"/><circle class="cls-1" cx="107.84" cy="51.44" r="1.18"/><circle class="cls-1" cx="102.74" cy="56.8" r="1.18"/><circle class="cls-1" cx="119.75" cy="56.41" r="1.18"/><circle class="cls-1" cx="110.33" cy="53.14" r="1.18"/><circle class="cls-1" cx="114.39" cy="60.07" r="1.18"/><circle class="cls-1" cx="106.4" cy="57.46" r="1.18"/><circle class="cls-1" cx="107.58" cy="58.5" r="1.18"/><circle class="cls-1" cx="114.52" cy="63.48" r="1.18"/><circle class="cls-1" cx="112.16" cy="61.91" r="1.18"/><circle class="cls-1" cx="104.44" cy="58.5" r="1.18"/><circle class="cls-1" cx="64.13" cy="75.26" r="1.18"/><circle class="cls-1" cx="36.25" cy="78.66" r="1.18"/><circle class="cls-1" cx="65.57" cy="34.16" r="1.18"/><circle class="cls-1" cx="82.72" cy="32.98" r="1.18"/><circle class="cls-1" cx="89.65" cy="37.96" r="1.18"/><circle class="cls-1" cx="87.3" cy="36.38" r="1.18"/><circle class="cls-1" cx="76.56" cy="45.81" r="1.18"/><circle class="cls-1" cx="73.16" cy="42.54" r="1.18"/><circle class="cls-1" cx="73.29" cy="45.94" r="1.18"/><circle class="cls-1" cx="70.94" cy="44.37" r="1.18"/><circle class="cls-1" cx="97.11" cy="43.45" r="1.18"/><circle class="cls-1" cx="93.71" cy="40.18" r="1.18"/><circle class="cls-1" cx="87.56" cy="40.31" r="1.18"/><circle class="cls-1" cx="84.16" cy="37.04" r="1.18"/><circle class="cls-1" cx="84.29" cy="40.44" r="1.18"/><circle class="cls-1" cx="81.93" cy="38.87" r="1.18"/><circle class="cls-1" cx="101.82" cy="30.89" r="1.18"/><circle class="cls-1" cx="98.55" cy="31.02" r="1.18"/><circle class="cls-1" cx="93.06" cy="30.1" r="1.18"/><circle class="cls-1" cx="90.83" cy="31.93" r="1.18"/><circle class="cls-1" cx="88.34" cy="42.67" r="1.18"/><circle class="cls-1" cx="93.84" cy="43.58" r="1.18"/><circle class="cls-1" cx="91.48" cy="42.01" r="1.18"/><circle class="cls-1" cx="42.67" cy="31.41" r="1.18"/><circle class="cls-1" cx="29.45" cy="70.94" r="1.18"/><circle class="cls-1" cx="9.95" cy="40.83" r="1.18"/><circle class="cls-1" cx="5.37" cy="76.56" r="1.18"/><circle class="cls-1" cx="16.62" cy="59.81" r="1.18"/><circle class="cls-1" cx="15.44" cy="45.81" r="1.18"/><circle class="cls-1" cx="22.25" cy="68.45" r="1.18"/><circle class="cls-1" cx="8.38" cy="56.41" r="1.18"/><circle class="cls-1" cx="25.78" cy="51.3" r="1.18"/><circle class="cls-1" cx="29.58" cy="43.84" r="1.18"/><circle class="cls-1" cx="35.21" cy="52.48" r="1.18"/><circle class="cls-1" cx="39.26" cy="68.06" r="1.18"/><circle class="cls-1" cx="29.84" cy="64.79" r="1.18"/><circle class="cls-1" cx="29.45" cy="57.19" r="1.18"/><circle class="cls-1" cx="39.92" cy="40.44" r="1.18"/><circle class="cls-1" cx="10.08" cy="44.24" r="1.18"/><circle class="cls-1" cx="15.97" cy="37.04" r="1.18"/><circle class="cls-1" cx="7.72" cy="42.67" r="1.18"/><circle class="cls-1" cx="18.72" cy="41.23" r="1.18"/><circle class="cls-1" cx="19.89" cy="42.27" r="1.18"/><circle class="cls-1" cx="20.94" cy="46.07" r="1.18"/><circle class="cls-1" cx="21.07" cy="49.47" r="1.18"/><circle class="cls-1" cx="18.72" cy="47.9" r="1.18"/><circle class="cls-1" cx="58.11" cy="35.86" r="1.18"/><circle class="cls-1" cx="59.29" cy="36.91" r="1.18"/><circle class="cls-1" cx="66.22" cy="41.88" r="1.18"/><circle class="cls-1" cx="60.34" cy="40.7" r="1.18"/><circle class="cls-1" cx="65.83" cy="45.68" r="1.18"/><circle class="cls-1" cx="60.47" cy="44.11" r="1.18"/><circle class="cls-1" cx="66.36" cy="36.91" r="1.18"/><circle class="cls-1" cx="58.11" cy="42.54" r="1.18"/><circle class="cls-1" cx="49.34" cy="32.46" r="1.18"/><circle class="cls-1" cx="54.84" cy="37.43" r="1.18"/><circle class="cls-1" cx="49.47" cy="35.86" r="1.18"/><circle class="cls-1" cx="55.36" cy="28.66" r="1.18"/><circle class="cls-1" cx="47.12" cy="34.29" r="1.18"/><circle class="cls-1" cx="55.75" cy="34.68" r="1.18"/><circle class="cls-1" cx="53.4" cy="40.7" r="1.18"/><circle class="cls-1" cx="58.11" cy="34.68" r="1.18"/><circle class="cls-1" cx="56.93" cy="34.68" r="1.18"/><circle class="cls-1" cx="60.34" cy="28.27" r="1.18"/><circle class="cls-1" cx="61.51" cy="29.32" r="1.18"/><circle class="cls-1" cx="62.56" cy="33.11" r="1.18"/><circle class="cls-1" cx="62.69" cy="36.52" r="1.18"/><circle class="cls-1" cx="60.34" cy="34.94" r="1.18"/><circle class="cls-1" cx="65.57" cy="36.38" r="1.18"/><circle class="cls-1" cx="65.7" cy="39.79" r="1.18"/><circle class="cls-1" cx="71.59" cy="32.59" r="1.18"/><circle class="cls-1" cx="76.56" cy="32.2" r="1.18"/><circle class="cls-1" cx="77.74" cy="33.24" r="1.18"/><circle class="cls-1" cx="78.79" cy="37.04" r="1.18"/><circle class="cls-1" cx="78.92" cy="40.44" r="1.18"/><circle class="cls-1" cx="76.56" cy="38.87" r="1.18"/><circle class="cls-1" cx="19.24" cy="54.71" r="1.18"/><circle class="cls-1" cx="35.21" cy="59.16" r="1.18"/><circle class="cls-1" cx="32.85" cy="57.59" r="1.18"/><circle class="cls-1" cx="37.04" cy="51.44" r="1.18"/><circle class="cls-1" cx="23.95" cy="42.67" r="1.18"/><circle class="cls-1" cx="36.38" cy="37.56" r="1.18"/><circle class="cls-1" cx="36.52" cy="40.97" r="1.18"/><circle class="cls-1" cx="28.27" cy="46.59" r="1.18"/><circle class="cls-1" cx="34.16" cy="39.39" r="1.18"/><circle class="cls-1" cx="21.46" cy="76.83" r="1.18"/><circle class="cls-1" cx="11.39" cy="68.06" r="1.18"/><circle class="cls-1" cx="6.02" cy="66.49" r="1.18"/><circle class="cls-1" cx="33.9" cy="71.72" r="1.18"/><circle class="cls-1" cx="39.39" cy="76.7" r="1.18"/><circle class="cls-1" cx="25.91" cy="69.1" r="1.18"/><circle class="cls-1" cx="27.09" cy="70.15" r="1.18"/><circle class="cls-1" cx="34.03" cy="75.12" r="1.18"/><circle class="cls-1" cx="39.92" cy="67.93" r="1.18"/><circle class="cls-1" cx="31.67" cy="73.55" r="1.18"/><circle class="cls-1" cx="53.27" cy="71.59" r="1.18"/><circle class="cls-1" cx="45.02" cy="68.19" r="1.18"/><circle class="cls-1" cx="55.89" cy="66.49" r="1.18"/><circle class="cls-1" cx="48.95" cy="77.09" r="1.18"/><circle class="cls-1" cx="51.3" cy="77.09" r="1.18"/><circle class="cls-1" cx="50.13" cy="77.09" r="1.18"/><circle class="cls-1" cx="43.32" cy="69.37" r="1.18"/><circle class="cls-1" cx="53.14" cy="66.49" r="1.18"/><circle class="cls-1" cx="47.77" cy="70.15" r="1.18"/><circle class="cls-1" cx="53.27" cy="75.12" r="1.18"/><circle class="cls-1" cx="47.9" cy="73.55" r="1.18"/><circle class="cls-1" cx="53.79" cy="66.36" r="1.18"/><circle class="cls-1" cx="45.55" cy="71.98" r="1.18"/><circle class="cls-1" cx="85.99" cy="55.23" r="1.18"/><circle class="cls-1" cx="98.42" cy="52.48" r="1.18"/><circle class="cls-1" cx="90.18" cy="49.08" r="1.18"/><circle class="cls-1" cx="101.04" cy="47.38" r="1.18"/><circle class="cls-1" cx="88.47" cy="50.26" r="1.18"/><circle class="cls-1" cx="98.29" cy="47.38" r="1.18"/><circle class="cls-1" cx="88.87" cy="44.11" r="1.18"/><circle class="cls-1" cx="92.92" cy="51.04" r="1.18"/><circle class="cls-1" cx="84.94" cy="48.43" r="1.18"/><circle class="cls-1" cx="86.12" cy="49.47" r="1.18"/><circle class="cls-1" cx="112.69" cy="44.24" r="1.18"/><circle class="cls-1" cx="107.19" cy="48.95" r="1.18"/><circle class="cls-1" cx="106.01" cy="44.24" r="1.18"/><circle class="cls-1" cx="115.83" cy="41.36" r="1.18"/><circle class="cls-1" cx="106.4" cy="38.09" r="1.18"/><circle class="cls-1" cx="110.46" cy="45.02" r="1.18"/><circle class="cls-1" cx="121.98" cy="46.59" r="1.18"/><circle class="cls-1" cx="115.3" cy="49.6" r="1.18"/><circle class="cls-1" cx="120.15" cy="42.4" r="1.18"/><circle class="cls-1" cx="117.92" cy="43.19" r="1.18"/><circle class="cls-1" cx="102.48" cy="42.4" r="1.18"/><circle class="cls-1" cx="103.66" cy="43.45" r="1.18"/><circle class="cls-1" cx="113.87" cy="28.53" r="1.18"/><circle class="cls-1" cx="119.36" cy="34.81" r="1.18"/><circle class="cls-1" cx="117.66" cy="35.99" r="1.18"/><circle class="cls-1" cx="118.05" cy="29.84" r="1.18"/><circle class="cls-1" cx="122.11" cy="36.78" r="1.18"/><circle class="cls-1" cx="114.13" cy="34.16" r="1.18"/><circle class="cls-1" cx="115.3" cy="35.21" r="1.18"/><circle class="cls-1" cx="93.06" cy="54.45" r="1.18"/><circle class="cls-1" cx="98.94" cy="47.25" r="1.18"/><circle class="cls-1" cx="90.7" cy="52.88" r="1.18"/><circle class="cls-1" cx="17.93" cy="73.95" r="1.18"/><circle class="cls-1" cx="12.3" cy="65.31" r="1.18"/><circle class="cls-1" cx="9.95" cy="71.33" r="1.18"/><circle class="cls-1" cx="11.12" cy="72.38" r="1.18"/><circle class="cls-1" cx="18.06" cy="77.35" r="1.18"/><circle class="cls-1" cx="14.66" cy="65.31" r="1.18"/><circle class="cls-1" cx="23.95" cy="70.15" r="1.18"/><circle class="cls-1" cx="15.71" cy="75.78" r="1.18"/><circle class="cls-1" cx="41.36" cy="61.91" r="1.18"/><circle class="cls-1" cx="45.81" cy="58.9" r="1.18"/><circle class="cls-1" cx="46.33" cy="50.13" r="1.18"/><circle class="cls-1" cx="54.31" cy="55.75" r="1.18"/><circle class="cls-1" cx="42.8" cy="52.22" r="1.18"/><circle class="cls-1" cx="42.8" cy="58.9" r="1.18"/><circle class="cls-1" cx="44.63" cy="51.17" r="1.18"/><circle class="cls-1" cx="48.95" cy="61.64" r="1.18"/><circle class="cls-1" cx="42.67" cy="52.61" r="1.18"/><circle class="cls-1" cx="37.04" cy="51.44" r="1.18"/><circle class="cls-1" cx="41.49" cy="43.71" r="1.18"/><circle class="cls-1" cx="35.08" cy="31.15" r="1.18"/><circle class="cls-1" cx="27.09" cy="28.53" r="1.18"/><circle class="cls-1" cx="28.27" cy="29.58" r="1.18"/><circle class="cls-1" cx="32.85" cy="32.98" r="1.18"/><circle class="cls-1" cx="17.54" cy="34.94" r="1.18"/><circle class="cls-1" cx="27.88" cy="31.54" r="1.18"/><circle class="cls-1" cx="24.34" cy="28.66" r="1.18"/><circle class="cls-1" cx="24.47" cy="32.07" r="1.18"/><circle class="cls-1" cx="22.12" cy="30.49" r="1.18"/><circle class="cls-1" cx="29.45" cy="34.81" r="1.18"/><circle class="cls-1" cx="42.67" cy="44.76" r="1.18"/><circle class="cls-1" cx="41.36" cy="55.36" r="1.18"/><circle class="cls-1" cx="36.12" cy="54.31" r="1.18"/><circle class="cls-1" cx="36.65" cy="45.55" r="1.18"/><circle class="cls-1" cx="44.63" cy="51.17" r="1.18"/><circle class="cls-1" cx="33.11" cy="47.64" r="1.18"/><circle class="cls-1" cx="33.11" cy="54.31" r="1.18"/><circle class="cls-1" cx="34.94" cy="46.59" r="1.18"/><circle class="cls-1" cx="39.26" cy="57.06" r="1.18"/><circle class="cls-1" cx="13.48" cy="65.31" r="1.18"/><circle class="cls-1" cx="6.67" cy="57.59" r="1.18"/><rect class="cls-1" y="22.85" width="128" height="82.31"/><path class="cls-1" d="M35.52,27.22c-1.84,1.85-2.51,7.58-2.28,7.59h5.38l-.95-2.53-1-3.16Z"/><path class="cls-1" d="M29.93,50.35a6.79,6.79,0,0,0-.85,3.76l3-.37-.37-1.45L31.5,51.2Z"/><path class="cls-1" d="M7.21,93.62c-1.47,1.47-2,6-1.82,6.07h4.3l-.76-2-.81-2.53Z"/><path class="cls-1" d="M29.86,80.38c-2.61,2.61-3,5.75-2.71,5.77h7.6l.88-4.56L32.44,81Z"/><path class="cls-1" d="M57.26,54.25c-2.37,1.48-2.87,8.69-2.58,8.7h6.93l-.87-3-1.39-1.56Z"/><path class="cls-1" d="M53.28,82.32c-1.76,1.1-2.12,6.42-1.91,6.43h5.12l-.64-2.18-1-1.16Z"/><path class="cls-1" d="M103.34,78.13c-2.08,1.29-2.51,7.61-2.26,7.62h6.07l-.76-2.59-1.22-1.37Z"/><path class="cls-1" d="M46,42a8.1,8.1,0,0,0-1,4.4h3.56l-.3-2-1-1.7Z"/><path class="cls-1" d="M71.73,71.46c1.8,1.81-.43,7.76-.65,7.78H65.82l.93-2.48,1-3.09Z"/><path class="cls-1" d="M105,91c-1.87,1.88.45,8.09.68,8.11h5.48l-1-2.58-1-3.23Z"/><path class="cls-1" d="M92.09,64.21c-1.67-1.67-6.87-2.27-6.88-2.07V67l2.29-.86,2.87-.91Z"/><path class="cls-1" d="M83.58,69.53c-1.79,1.79-2.28,6.22-2.07,6.24h5.21l-.64-2.7-.84-2.92Z"/><path class="cls-1" d="M69.77,80a4.89,4.89,0,0,0,2,3.27l2.47-2.11-1.42-2h-2.1Z"/><path class="cls-1" d="M65.39,86.58c-1.21,1.22-1.65,5-1.5,5h3.55l-.62-1.67-.67-2.09Z"/><path class="cls-1" d="M94.77,90.74c-1.48,1.48-2,6.09-1.83,6.1h4.32l-.76-2-.81-2.54Z"/><path class="cls-1" d="M117.61,66.22C116.28,68.67,116,73,116.23,73h5l-.88-2.35-1.54-2Z"/><path class="cls-1" d="M111.34,40.78c-1.12,1.13-1.52,4.62-1.38,4.63l4-.13-.65-1.84L112,41.94Z"/><path class="cls-1" d="M97.93,43.62c-1.8,1.8-2.44,7.4-2.22,7.41H101L100,48.56l-1-3.09Z"/><path class="cls-1" d="M115.32,27.83c-1.65,1.65-2.24,6.79-2,6.81h4.82l-.85-2.27-.91-2.84Z"/><path class="cls-1" d="M17.21,33.69c-2.49.52-4.58,4.82-4.4,5l4.38,2.88,1.28-1.29h0Z"/><g class="cls-1"></g></g></svg>