<svg id="图层_2" data-name="图层 2" xmlns="http://www.w3.org/2000/svg" viewBox="0 0 128 128"><defs><style>.cls-rhvw274k,.cls-kzyzcnxb{fill:none;stroke-linejoin:round;}.cls-rhvw274k{stroke:#2e3333;}.cls-kzyzcnxb{stroke:#323333;}.cls-dvid7foatez1s7w{opacity:0.16;}</style></defs><g id="运行水电厂"><line class="cls-rhvw274k" x1="63.79" y1="-0.25" x2="63.79" y2="25.26"/><line class="cls-rhvw274k" x1="63.75" y1="83.49" x2="63.75" y2="109"/><path class="cls-rhvw274k" d="M63.7,25.46a6.55,6.55,0,0,1,6.58,6.26c.27,4.93-2.89,7.86-6.53,7.86"/><path class="cls-rhvw274k" d="M63.7,39.58a6.56,6.56,0,0,1,6.58,6.27c.27,4.92-2.89,7.86-6.53,7.86"/><path class="cls-rhvw274k" d="M63.7,54.35a6.55,6.55,0,0,1,6.58,6.26c.27,4.93-2.89,7.87-6.53,7.87"/><path class="cls-rhvw274k" d="M63.7,69.11a6.56,6.56,0,0,1,6.58,6.27c.27,4.92-2.89,7.86-6.53,7.86"/><line class="cls-kzyzcnxb" x1="42.38" y1="109.4" x2="85.62" y2="109.4"/><line class="cls-kzyzcnxb" x1="50.73" y1="119" x2="79.64" y2="119"/><line class="cls-kzyzcnxb" x1="55.55" y1="128" x2="74.74" y2="128"/><g class="cls-6tez1s7w"></g></g></svg>