<svg id="图层_2" data-name="图层 2" xmlns="http://www.w3.org/2000/svg" viewBox="0 0 128 128"><defs><style>.cls-1{fill:#333;}.cls-1{opacity:0.16;}</style></defs><g id="运行水电厂"><path class="cls-1" d="M127,1V127H1V1H127m1-1H0V128H128V0Z"/><path class="cls-1" d="M57.67,62.18V37.75h1.54v52.5H57.67V63.65H25.33v26.6H23.79V37.75h1.54V62.18Z"/><path class="cls-1" d="M90.35,62.74q6.45.7,10.15,4.23a11.8,11.8,0,0,1,3.71,8.93,12.1,12.1,0,0,1-5.42,10.64q-5.43,3.7-15.5,3.71H71V37.75H83.08q8.82,0,13.54,3.25a10.6,10.6,0,0,1,4.72,9.28,11.65,11.65,0,0,1-3,8,13.51,13.51,0,0,1-8,4.31ZM72.5,39.22V62H84.89q6.87,0,10.89-3.08a10.08,10.08,0,0,0,4-8.47,9.38,9.38,0,0,0-4.37-8.3q-4.38-2.9-12.56-2.9ZM82.87,88.78q9.51,0,14.66-3.32a10.72,10.72,0,0,0,5.14-9.56A10.51,10.51,0,0,0,98,66.66q-4.73-3.22-13.06-3.22H72.5V88.78Z"/><g class="cls-1"></g></g></svg>