<svg id="图层_2" data-name="图层 2" xmlns="http://www.w3.org/2000/svg" viewBox="0 0 128 128"><defs><style>.cls-1{fill:none;stroke:#2e3333;stroke-linejoin:round;}.cls-1{opacity:0.16;}</style></defs><g id="运行水电厂"><line class="cls-1" x1="60.22" y1="-0.25" x2="60.22" y2="29.75"/><line class="cls-1" x1="60.18" y1="98.25" x2="60.18" y2="128.25"/><path class="cls-1" d="M60.12,30a7.71,7.71,0,0,1,7.74,7.37c.32,5.8-3.4,9.25-7.68,9.25"/><path class="cls-1" d="M60.12,46.6A7.71,7.71,0,0,1,67.86,54c.32,5.79-3.4,9.25-7.68,9.25"/><path class="cls-1" d="M60.12,64a7.71,7.71,0,0,1,7.74,7.36c.32,5.8-3.4,9.26-7.68,9.26"/><path class="cls-1" d="M60.12,81.34a7.7,7.7,0,0,1,7.74,7.36c.32,5.8-3.4,9.25-7.68,9.25"/><g class="cls-1"></g></g></svg>