<svg id="图层_2" data-name="图层 2" xmlns="http://www.w3.org/2000/svg" viewBox="0 0 128 128"><defs><style>.cls-1{fill:#333;}.cls-2{opacity:0.16;}</style></defs><title>g</title><g id="运行水电厂"><path class="cls-1" d="M127,1V127H1V1H127m1-1H0V128H128V0Z"/><path class="cls-1" d="M42.09,64.14V89.76H40.55V37.26H69.39v1.47H42.09V62.67H67.5v1.47Z"/><path class="cls-1" d="M71.11,88.71a9.5,9.5,0,0,1-3.33-5.81l1.54-.49a8.71,8.71,0,0,0,2.84,5.07,8.11,8.11,0,0,0,5.42,1.79,7.33,7.33,0,0,0,6.16-2.8q2.17-2.81,2.17-8V37.26h1.54V78.7c0,3.87-.85,6.85-2.55,8.92a8.94,8.94,0,0,1-7.32,3.12A10.09,10.09,0,0,1,71.11,88.71Z"/><g class="cls-1"></g></g></svg>