<svg id="图层_2" data-name="图层 2" xmlns="http://www.w3.org/2000/svg" viewBox="0 0 128 128"><defs><style>.cls-thxmje84lx6wsdj{fill:none;}.cls-thxmje84lx6wsdj,.cls-dew3nhvl26joy46{stroke:#333;stroke-linejoin:round;}.cls-dew3nhvl26joy46,.cls-lfym62gx{fill:#333;}.cls-gcymp75i{opacity:0.16;}</style></defs><g id="运行水电厂"><circle class="cls-4lx6wsdj" cx="64" cy="75.07" r="52.93"/><line class="cls-4lx6wsdj" x1="36.22" y1="98.73" x2="91.78" y2="98.75"/><rect class="cls-526joy46" x="36.22" y="110.32" width="4.34" height="2.17"/><rect class="cls-526joy46" x="44.76" y="110.32" width="4.34" height="2.17"/><rect class="cls-526joy46" x="53.29" y="110.32" width="4.34" height="2.17"/><rect class="cls-526joy46" x="61.83" y="110.33" width="4.34" height="2.17"/><rect class="cls-526joy46" x="70.37" y="110.33" width="4.34" height="2.17"/><rect class="cls-526joy46" x="78.9" y="110.33" width="4.34" height="2.17"/><rect class="cls-526joy46" x="87.44" y="110.33" width="4.34" height="2.17"/><line class="cls-4lx6wsdj" x1="64" x2="64" y2="22.14"/><path class="cls-lfym62gx" d="M61.84,55.78a8.69,8.69,0,0,0-3.23,3.84,14.1,14.1,0,0,0-1.12,5.85,14.27,14.27,0,0,0,1.11,5.85,8.68,8.68,0,0,0,3.16,3.84,8.59,8.59,0,0,0,4.82,1.35,9.37,9.37,0,0,0,7.11-3.3V66.43H67.84v-.66h6.51v7.68a10.36,10.36,0,0,1-7.77,3.69,9.34,9.34,0,0,1-5.18-1.43,9.17,9.17,0,0,1-3.39-4,14.93,14.93,0,0,1-1.18-6.19A14.66,14.66,0,0,1,58,59.29a9.29,9.29,0,0,1,3.45-4.07,9.6,9.6,0,0,1,5.27-1.42,8.85,8.85,0,0,1,3.76.81,8.34,8.34,0,0,1,3,2.31L73,57.4a7.4,7.4,0,0,0-2.73-2.21,8.18,8.18,0,0,0-3.54-.76A8.9,8.9,0,0,0,61.84,55.78Z"/><g class="cls-gcymp75i"></g><g class="cls-gcymp75i"></g><g class="cls-gcymp75i"></g><g class="cls-gcymp75i"></g></g></svg>