<svg id="图层_2" data-name="图层 2" xmlns="http://www.w3.org/2000/svg" viewBox="0 0 128 128"><defs><style>.cls-olrvngbd{fill:none;stroke:#fd211c;stroke-linejoin:round;}.cls-bvhba6qb{fill:#fd211c;}.cls-jqh1xban{opacity:0.16;}</style></defs><g id="运行水电厂"><rect class="cls-olrvngbd" width="128" height="128"/><path class="cls-bvhba6qb" d="M88.42,89.26a22.85,22.85,0,0,1-8.58,6.64,27.15,27.15,0,0,1-11.31,2.33A27.93,27.93,0,0,1,53.09,94,27.25,27.25,0,0,1,43,82a44.21,44.21,0,0,1-3.52-18.35A42.52,42.52,0,0,1,43,45.7,26.78,26.78,0,0,1,53.09,33.9a28.39,28.39,0,0,1,15.44-4.13A26,26,0,0,1,79.27,32.1a28.76,28.76,0,0,1,9.24,6.64L87.1,40.06a26,26,0,0,0-8.54-6.16,24,24,0,0,0-10-2.28,26.13,26.13,0,0,0-14.39,3.91,25.38,25.38,0,0,0-9.41,11.13,40.58,40.58,0,0,0-3.3,17,42.43,42.43,0,0,0,3.3,17.42,25.5,25.5,0,0,0,9.41,11.35,25.91,25.91,0,0,0,14.39,4q11.88,0,18.48-8.53Z"/><g class="cls-jqh1xban"></g></g></svg>