<svg id="图层_2" data-name="图层 2" xmlns="http://www.w3.org/2000/svg" viewBox="0 0 128 128"><defs><style>.cls-om5xh1mw{fill:none;}.cls-om5xh1mw,.cls-o39ftkzo{stroke:#333;stroke-linejoin:round;}.cls-o39ftkzo{fill:#333;}.cls-upzfghpd{opacity:0.16;}</style></defs><g id="运行水电厂"><circle class="cls-om5xh1mw" cx="64" cy="41.97" r="28.87"/><circle class="cls-om5xh1mw" cx="64" cy="85.25" r="28.87"/><line class="cls-om5xh1mw" x1="64" x2="64" y2="11.5"/><line class="cls-om5xh1mw" x1="64" y1="0.11" x2="64" y2="11.62"/><line class="cls-om5xh1mw" x1="64" y1="0.23" x2="64" y2="11.73"/><line class="cls-om5xh1mw" x1="64" y1="0.34" x2="64" y2="11.84"/><line class="cls-om5xh1mw" x1="64" y1="0.45" x2="64" y2="11.96"/><line class="cls-om5xh1mw" x1="64" y1="0.56" x2="64" y2="12.07"/><line class="cls-om5xh1mw" x1="64" y1="0.68" x2="64" y2="12.18"/><line class="cls-om5xh1mw" x1="64" y1="0.79" x2="64" y2="12.29"/><line class="cls-om5xh1mw" x1="64" y1="0.9" x2="64" y2="12.41"/><line class="cls-om5xh1mw" x1="64" y1="1.02" x2="64" y2="12.52"/><line class="cls-om5xh1mw" x1="64" y1="1.13" x2="64" y2="12.63"/><line class="cls-om5xh1mw" x1="64" y1="1.24" x2="64" y2="12.74"/><line class="cls-om5xh1mw" x1="64" y1="1.35" x2="64" y2="12.86"/><line class="cls-om5xh1mw" x1="64" y1="1.47" x2="64" y2="12.97"/><line class="cls-om5xh1mw" x1="64" y1="116.5" x2="64" y2="128"/><line class="cls-om5xh1mw" x1="64" y1="116.38" x2="64" y2="127.89"/><line class="cls-om5xh1mw" x1="64" y1="116.27" x2="64" y2="127.77"/><line class="cls-om5xh1mw" x1="64" y1="116.16" x2="64" y2="127.66"/><line class="cls-om5xh1mw" x1="64" y1="116.04" x2="64" y2="127.55"/><line class="cls-om5xh1mw" x1="64" y1="115.93" x2="64" y2="127.44"/><line class="cls-om5xh1mw" x1="64" y1="115.82" x2="64" y2="127.32"/><line class="cls-om5xh1mw" x1="64" y1="115.71" x2="64" y2="127.21"/><line class="cls-om5xh1mw" x1="64" y1="115.59" x2="64" y2="127.1"/><line class="cls-om5xh1mw" x1="64" y1="115.48" x2="64" y2="126.98"/><line class="cls-om5xh1mw" x1="64" y1="115.37" x2="64" y2="126.87"/><line class="cls-om5xh1mw" x1="64" y1="115.26" x2="64" y2="126.76"/><line class="cls-om5xh1mw" x1="64" y1="115.14" x2="64" y2="126.65"/><line class="cls-om5xh1mw" x1="64" y1="115.03" x2="64" y2="126.53"/><line class="cls-om5xh1mw" x1="64" y1="114.92" x2="64" y2="126.42"/><line class="cls-om5xh1mw" x1="64" y1="114.8" x2="64" y2="126.31"/><line class="cls-om5xh1mw" x1="13.11" y1="120.78" x2="109.07" y2="58.97"/><polygon class="cls-o39ftkzo" points="109.82 91.71 118.08 72.5 101.21 72.65 109.82 91.71"/><line class="cls-om5xh1mw" x1="109.5" y1="58.5" x2="109.5" y2="86.5"/><g class="cls-upzfghpd"></g></g></svg>