<svg id="图层_2" data-name="图层 2" xmlns="http://www.w3.org/2000/svg" viewBox="0 0 128 128"><defs><style>.cls-1{fill:none;stroke:#333;stroke-linejoin:round;}.cls-2{opacity:0.16;}</style></defs><title>g</title><g id="运行水电厂"><line class="cls-1" y1="87.09" x2="128" y2="87.09"/><line class="cls-1" y1="40.97" x2="128" y2="40.91"/><path class="cls-1" d="M1.62,41A29.28,29.28,0,0,1,12.5,63.84,29.31,29.31,0,0,1,1.81,86.51"/><path class="cls-1" d="M11.25,41A29.31,29.31,0,0,1,22.12,63.84,29.31,29.31,0,0,1,11.43,86.51"/><path class="cls-1" d="M71.42,41a29.38,29.38,0,0,1,.18,45.48"/><path class="cls-1" d="M81,41a29.37,29.37,0,0,1,.19,45.48"/><path class="cls-1" d="M36.08,41a29.37,29.37,0,0,1,.19,45.48"/><path class="cls-1" d="M45.71,41a29.38,29.38,0,0,1,.18,45.48"/><path class="cls-1" d="M104.5,41a29.37,29.37,0,0,1,.19,45.48"/><path class="cls-1" d="M114.13,41a29.38,29.38,0,0,1,.18,45.48"/><g class="cls-1"></g></g></svg>