<svg id="图层_2" data-name="图层 2" xmlns="http://www.w3.org/2000/svg" viewBox="0 0 128 128"><defs><style>.cls-1{fill:#333;}.cls-2{opacity:0.16;}</style></defs><title>g</title><g id="运行水电厂"><path class="cls-1" d="M127,1V127H1V1H127m1-1H0V128H128V0Z"/><path class="cls-1" d="M44.75,62.6,62.11,90.25h-2L43.77,63.65,27.53,90.25h-2L42.93,62.46,26.76,37.75h1.89L44,61.41,59,37.75h1.89Z"/><path class="cls-1" d="M88.57,62.74Q95,63.45,98.72,67a11.84,11.84,0,0,1,3.71,8.93A12.11,12.11,0,0,1,97,86.54q-5.41,3.7-15.5,3.71H69.18V37.75H81.29q8.82,0,13.54,3.25a10.61,10.61,0,0,1,4.73,9.28,11.7,11.7,0,0,1-3,8,13.57,13.57,0,0,1-8,4.31ZM70.72,39.22V62H83.11Q90,62,94,58.89a10.07,10.07,0,0,0,4-8.47,9.39,9.39,0,0,0-4.38-8.3q-4.36-2.9-12.56-2.9ZM81.08,88.78q9.53,0,14.66-3.32a10.73,10.73,0,0,0,5.15-9.56,10.52,10.52,0,0,0-4.73-9.24q-4.72-3.22-13-3.22H70.72V88.78Z"/><g class="cls-1"></g></g></svg>