<svg id="图层_2" data-name="图层 2" xmlns="http://www.w3.org/2000/svg" viewBox="0 0 128 128"><defs><style>.cls-1{fill:none;}.cls-1,.cls-2{stroke:#fd211c;stroke-linejoin:round;}.cls-2{fill:#fd211c;}.cls-3{opacity:0.16;}</style></defs><g id="运行水电厂"><rect class="cls-1" width="128" height="128"/><path class="cls-1" d="M56.7,96H55.38V92.86L29.94,95.77V67.87h1.5V94.18l11.44-1.32V60.22H26.25V58.54H42.88V38.83H33.29q-3,7.31-5.37,11.79l-1.23-1a118,118,0,0,0,5.59-12.63Q35,29.68,36.46,24.49l1.58.44q-1.32,4.92-4.14,12.32H58.28v1.58H44.38V58.54H60.74v1.68H44.38V92.6l11-1.23V67.78H56.7ZM79.4,69.19a45.5,45.5,0,0,0,7.79,18.26,57.13,57.13,0,0,0,14.56,14L101,102.9A61,61,0,0,1,86.09,88.46a45.6,45.6,0,0,1-8-18.39,45.37,45.37,0,0,1-6.47,18.09,65.57,65.57,0,0,1-14,15.44l-.88-1.41A62.66,62.66,0,0,0,70.56,87a42.46,42.46,0,0,0,6.11-17.82H59.51V67.52H76.85c.11-1.64.17-2.87.17-3.7V42.18H63V40.5H77.11V24.4h1.67L78.7,40.5H93.57v27h7.3v1.67Zm-1.06-1.67H92.07V42.18H78.7q0,14.07-.18,21.64C78.52,64.65,78.46,65.88,78.34,67.52Z"/><g class="cls-1"></g></g></svg>