<svg id="图层_2" data-name="图层 2" xmlns="http://www.w3.org/2000/svg" viewBox="0 0 128 128"><defs><style>.cls-1{fill:none;stroke:#fd211c;stroke-linejoin:round;}.cls-1{fill:#fd211c;}.cls-1{opacity:0.16;}</style></defs><g id="运行水电厂"><rect class="cls-1" width="128" height="128"/><path class="cls-1" d="M61.18,75.84l.8,1.49L41.21,92.2,40,91.06a8.67,8.67,0,0,0,1.18-1.63,2.57,2.57,0,0,0,.22-1.1V52.43L28.45,54.72l-.18-1.59,13.11-2.29V24.27H43V50.58l16.72-3L60,49.17l-17,3v36.7ZM58.46,32.89H99.73q0,9.33-.84,29t-1,22.92l-.18,3.08a16.41,16.41,0,0,1-1.36,6.65,6.86,6.86,0,0,1-3.83,3.34,21.49,21.49,0,0,1-7.39,1H74.65l-.27-1.67H84.94a22,22,0,0,0,6.74-.79A5.42,5.42,0,0,0,95,93.61a16,16,0,0,0,1.14-5.89l.44-12.94Q97.88,39.41,98,34.48H74.3q-.09.78-.27,8.36l-.26,8.27q-.45,14.78-2.07,23.1A43.42,43.42,0,0,1,66.07,89a86.06,86.06,0,0,1-12.45,14.78L52.3,102.5A88.15,88.15,0,0,0,64.57,88.07,40.43,40.43,0,0,0,70,73.9a154.37,154.37,0,0,0,2-22.79l.61-16.63H58.46Z"/><g class="cls-1"></g></g></svg>