<svg id="图层_2" data-name="图层 2" xmlns="http://www.w3.org/2000/svg" viewBox="0 0 128 128"><defs><style>.cls-1,.cls-2,.cls-3{fill:none;}.cls-1{stroke:#2e3333;}.cls-1,.cls-2,.cls-3,.cls-4{stroke-linejoin:round;}.cls-2{stroke:#323333;}.cls-3,.cls-4{stroke:#333;}.cls-4{fill:#333;}.cls-5{opacity:0.16;}</style></defs><title>g</title><g id="运行水电厂"><line class="cls-1" x1="60.79" y1="-0.13" x2="60.79" y2="25.38"/><line class="cls-1" x1="60.75" y1="83.62" x2="60.75" y2="109.13"/><path class="cls-1" d="M60.7,25.58a6.55,6.55,0,0,1,6.58,6.26c.27,4.93-2.89,7.87-6.53,7.87"/><path class="cls-1" d="M60.7,39.71A6.55,6.55,0,0,1,67.28,46c.27,4.93-2.89,7.87-6.53,7.87"/><path class="cls-1" d="M60.7,54.47a6.56,6.56,0,0,1,6.58,6.27c.27,4.92-2.89,7.86-6.53,7.86"/><path class="cls-1" d="M60.7,69.24a6.55,6.55,0,0,1,6.58,6.26c.27,4.93-2.89,7.87-6.53,7.87"/><line class="cls-1" x1="42.38" y1="109.53" x2="85.62" y2="109.53"/><line class="cls-1" x1="50.73" y1="119.12" x2="79.64" y2="119.12"/><line class="cls-1" x1="55.55" y1="128.13" x2="74.74" y2="128.13"/><line class="cls-1" x1="38.01" y1="118.67" x2="87.02" y2="15.59"/><polygon class="cls-1" points="89.99 9.33 74.16 23 89.4 30.24 89.99 9.33"/><g class="cls-1"></g></g></svg>