<svg id="图层_2" data-name="图层 2" xmlns="http://www.w3.org/2000/svg" viewBox="0 0 128 128"><defs><style>.cls-1{fill:#333;}.cls-1{opacity:0.16;}</style></defs><g id="运行水电厂"><path class="cls-1" d="M127,1V127H1V1H127m1-1H0V128H128V0Z"/><path class="cls-1" d="M29.59,95.06a12,12,0,0,1-4.18-7.3l1.94-.62a10.91,10.91,0,0,0,3.56,6.38,10.25,10.25,0,0,0,6.82,2.25,9.22,9.22,0,0,0,7.75-3.52q2.72-3.52,2.72-10V30.38h1.94v52.1q0,7.3-3.21,11.22t-9.2,3.92A12.64,12.64,0,0,1,29.59,95.06Z"/><path class="cls-1" d="M66.86,30.38V94.54h35.73v1.84H64.92v-66Z"/><g class="cls-1"></g></g></svg>