<svg id="图层_2" data-name="图层 2" xmlns="http://www.w3.org/2000/svg" viewBox="0 0 128 128"><defs><style>.cls-1,.cls-3{fill:#333;}.cls-2{fill:none;}.cls-2,.cls-3{stroke:#333;stroke-linejoin:round;}.cls-4{opacity:0.16;}</style></defs><g id="运行水电厂"><path class="cls-1" d="M127,1V127H1V1H127m1-1H0V128H128V0Z"/><line class="cls-1" x1="127.5" y1="63.63" x2="0.5" y2="63.63"/><line class="cls-1" x1="0.69" y1="81.69" x2="18.38" y2="64.01"/><line class="cls-1" x1="107.5" y1="127.5" x2="127.5" y2="107.5"/><line class="cls-1" x1="0.5" y1="96.5" x2="33.5" y2="63.5"/><line class="cls-1" x1="90.5" y1="127.5" x2="127.5" y2="90.5"/><line class="cls-1" x1="0.5" y1="112.5" x2="49.5" y2="63.5"/><line class="cls-1" x1="70.5" y1="127.5" x2="127.5" y2="70.5"/><line class="cls-1" x1="0.5" y1="127.5" x2="64.5" y2="63.5"/><line class="cls-1" x1="16.5" y1="127.5" x2="80.72" y2="63.6"/><line class="cls-1" x1="33.5" y1="127.5" x2="97.59" y2="63.6"/><line class="cls-1" x1="52.5" y1="127.5" x2="115.97" y2="63.6"/><line class="cls-1" x1="45.32" y1="16.67" x2="60.72" y2="41.99"/><line class="cls-1" x1="45.36" y1="16.73" x2="60.75" y2="42.05"/><line class="cls-1" x1="45.39" y1="16.79" x2="60.79" y2="42.11"/><line class="cls-1" x1="45.36" y1="16.73" x2="60.75" y2="42.05"/><line class="cls-1" x1="45.32" y1="16.67" x2="60.72" y2="41.99"/><line class="cls-1" x1="45.28" y1="16.61" x2="60.68" y2="41.93"/><line class="cls-1" x1="45.24" y1="16.54" x2="60.64" y2="41.87"/><line class="cls-1" x1="45.21" y1="16.48" x2="60.6" y2="41.81"/><line class="cls-1" x1="45.17" y1="16.42" x2="56.73" y2="35.44"/><polygon class="cls-1" points="61.83 43.76 59.17 33.96 54.36 36.89 61.83 43.76"/><line class="cls-1" x1="62.25" y1="12.65" x2="77.64" y2="37.98"/><line class="cls-1" x1="62.28" y1="12.72" x2="77.68" y2="38.04"/><line class="cls-1" x1="62.32" y1="12.78" x2="77.72" y2="38.1"/><line class="cls-1" x1="62.28" y1="12.72" x2="77.68" y2="38.04"/><line class="cls-1" x1="62.25" y1="12.65" x2="77.64" y2="37.98"/><line class="cls-1" x1="62.21" y1="12.59" x2="77.61" y2="37.92"/><line class="cls-1" x1="62.17" y1="12.53" x2="77.57" y2="37.86"/><line class="cls-1" x1="62.13" y1="12.47" x2="77.53" y2="37.79"/><line class="cls-1" x1="62.1" y1="12.41" x2="73.66" y2="31.43"/><polygon class="cls-1" points="78.76 39.75 76.1 29.95 71.28 32.88 78.76 39.75"/><g class="cls-1"></g></g></svg>