<svg id="图层_2" data-name="图层 2" xmlns="http://www.w3.org/2000/svg" viewBox="0 0 128 128"><defs><style>.cls-1{fill:#333;}.cls-1{fill:none;stroke:#333;stroke-linejoin:round;}.cls-1{opacity:0.16;}</style></defs><g id="运行水电厂"><path class="cls-1" d="M127,1V127H1V1H127m1-1H0V128H128V0Z"/><polyline class="cls-1" points="0.5 127.5 63.03 3.97 78.65 63.97 127.5 0.5"/><line class="cls-1" x1="15" y1="99.5" x2="127" y2="99.5"/><line class="cls-1" x1="8" y1="114.5" x2="126.5" y2="114.5"/><line class="cls-1" x1="22" y1="85.3" x2="128" y2="85.5"/><line class="cls-1" x1="29" y1="71.08" x2="128" y2="71.08"/><line class="cls-1" x1="37" y1="56.5" x2="76.53" y2="56.86"/><line class="cls-1" x1="43.65" y1="42.63" x2="73.15" y2="42.63"/><line class="cls-1" x1="51" y1="28.41" x2="69.4" y2="28.41"/><line class="cls-1" x1="84.71" y1="56.29" x2="127.5" y2="56.86"/><line class="cls-1" x1="95.15" y1="42.59" x2="128" y2="42.59"/><line class="cls-1" x1="105.78" y1="28.41" x2="128" y2="28.41"/><g class="cls-1"></g></g></svg>