<svg id="图层_2" data-name="图层 2" xmlns="http://www.w3.org/2000/svg" viewBox="0 0 128 128"><defs><style>.cls-b64djuhq{fill:#333;}.cls-qzj2br07{fill:none;stroke:#333;stroke-linejoin:round;}.cls-e6m6j1gp{opacity:0.16;}</style></defs><g id="运行水电厂"><path class="cls-b64djuhq" d="M127,1V127H1V1H127m1-1H0V128H128V0Z"/><line class="cls-qzj2br07" x1="127.5" y1="64" x2="64" y2="64"/><line class="cls-qzj2br07" x1="64.5" y1="45.88" x2="0.5" y2="45.88"/><line class="cls-qzj2br07" x1="64" y1="127.5" x2="64" y2="45.5"/><line class="cls-qzj2br07" x1="0.5" y1="67.5" x2="20.75" y2="46"/><line class="cls-qzj2br07" x1="43.5" y1="127.5" x2="64.5" y2="104.5"/><line class="cls-qzj2br07" x1="0.5" y1="87.5" x2="38.5" y2="45.5"/><line class="cls-qzj2br07" x1="25.5" y1="127.5" x2="63.5" y2="84.5"/><line class="cls-qzj2br07" x1="0.5" y1="109.5" x2="58.5" y2="45.5"/><line class="cls-qzj2br07" x1="0.5" y1="127.5" x2="64" y2="61"/><line class="cls-qzj2br07" x1="64.5" y1="78.5" x2="76.5" y2="64.5"/><line class="cls-qzj2br07" x1="105.5" y1="127.5" x2="127.5" y2="104.5"/><line class="cls-qzj2br07" x1="64.38" y1="94.88" x2="92.5" y2="64.5"/><line class="cls-qzj2br07" x1="86.5" y1="127.5" x2="127.5" y2="82.5"/><line class="cls-qzj2br07" x1="64" y1="115.75" x2="110.38" y2="64"/><line class="cls-qzj2br07" x1="69.5" y1="127.5" x2="127.5" y2="64.5"/><path class="cls-b64djuhq" d="M127,1V127H1V1H127m1-1H0V128H128V0Z"/><line class="cls-qzj2br07" x1="127.5" y1="64" x2="64" y2="64"/><line class="cls-qzj2br07" x1="64.5" y1="45.88" x2="0.5" y2="45.88"/><line class="cls-qzj2br07" x1="64" y1="127.5" x2="64" y2="45.5"/><line class="cls-qzj2br07" x1="0.5" y1="67.5" x2="20.75" y2="46"/><line class="cls-qzj2br07" x1="43.5" y1="127.5" x2="64.5" y2="104.5"/><line class="cls-qzj2br07" x1="0.5" y1="87.5" x2="38.5" y2="45.5"/><line class="cls-qzj2br07" x1="25.5" y1="127.5" x2="63.5" y2="84.5"/><line class="cls-qzj2br07" x1="0.5" y1="109.5" x2="58.5" y2="45.5"/><line class="cls-qzj2br07" x1="0.5" y1="127.5" x2="64" y2="61"/><line class="cls-qzj2br07" x1="64.5" y1="78.5" x2="76.5" y2="64.5"/><line class="cls-qzj2br07" x1="105.5" y1="127.5" x2="127.5" y2="104.5"/><line class="cls-qzj2br07" x1="64.38" y1="94.88" x2="92.5" y2="64.5"/><line class="cls-qzj2br07" x1="86.5" y1="127.5" x2="127.5" y2="82.5"/><line class="cls-qzj2br07" x1="64" y1="115.75" x2="110.38" y2="64"/><line class="cls-qzj2br07" x1="69.5" y1="127.5" x2="127.5" y2="64.5"/><g class="cls-e6m6j1gp"></g></g></svg>