<svg id="图层_2" data-name="图层 2" xmlns="http://www.w3.org/2000/svg" viewBox="0 0 128 128"><defs><style>.cls-1{fill:#333;}.cls-2{fill:none;stroke:#333;stroke-linejoin:round;}.cls-3{opacity:0.16;}</style></defs><g id="运行水电厂"><path class="cls-1" d="M127,1V127H1V1H127m1-1H0V128H128V0Z"/><line class="cls-1" x1="0.5" y1="64" x2="127.5" y2="64"/><line class="cls-1" x1="127.5" y1="45.5" x2="109.38" y2="63.63"/><line class="cls-1" x1="20.5" y1="0.5" x2="0.5" y2="20.5"/><line class="cls-1" x1="127.5" y1="31.5" x2="95.5" y2="63.5"/><line class="cls-1" x1="37.5" y1="0.5" x2="0.5" y2="37.5"/><line class="cls-1" x1="127.5" y1="14.5" x2="79.5" y2="63.5"/><line class="cls-1" x1="56.5" y1="0.5" x2="0.5" y2="56.5"/><line class="cls-1" x1="127.5" y1="0.5" x2="63.5" y2="63.5"/><line class="cls-1" x1="110.5" y1="0.5" x2="47.03" y2="64.03"/><line class="cls-1" x1="93.5" y1="0.5" x2="30.16" y2="64.03"/><line class="cls-1" x1="75.5" y1="0.5" x2="11.78" y2="64.03"/><line class="cls-1" x1="21.38" y1="78.88" x2="106.63" y2="78.88"/><line class="cls-1" x1="31.69" y1="93.88" x2="95.56" y2="93.88"/><line class="cls-1" x1="42.31" y1="110" x2="84.94" y2="110"/><g class="cls-1"></g></g></svg>