<svg id="图层_2" data-name="图层 2" xmlns="http://www.w3.org/2000/svg" viewBox="0 0 128 128"><defs><style>.cls-1{fill:#333;}.cls-2{opacity:0.16;}</style></defs><title>g</title><g id="运行水电厂"><path class="cls-1" d="M127,1V127H1V1H127m1-1H0V128H128V0Z"/><path class="cls-1" d="M37.37,37.75q9.24,0,14.21,4t5,11.23q0,7.28-5,11.2T37.37,68.06H24.83V90.25H23.29V37.75Zm-.21,28.84q8.61,0,13.22-3.54T55,52.94q0-6.64-4.62-10.19T37.16,39.22H24.83V66.59Z"/><path class="cls-1" d="M64.17,90.25V37.75H77.83q12.94,0,19.91,6.79t7,19.46q0,12.68-7.11,19.46T77.26,90.25Zm12.88-1.47q12.61,0,19.36-6.4T103.17,64q0-12-6.62-18.38t-18.93-6.4H65.71V88.78Z"/><g class="cls-1"></g></g></svg>