<svg id="图层_2" data-name="图层 2" xmlns="http://www.w3.org/2000/svg" viewBox="0 0 128 128"><defs><style>.cls-6ugr4sfi6n2szsw{fill:none;}.cls-6ugr4sfi6n2szsw,.cls-nrnsm5xk{stroke:#333;stroke-linejoin:round;}.cls-nrnsm5xk{fill:#333;}.cls-ysl3dpf7{opacity:0.16;}</style></defs><g id="运行水电厂"><line class="cls-86n2szsw" x1="63.94" y1="-0.04" x2="63.94" y2="51.62"/><line class="cls-86n2szsw" x1="63.94" y1="0.09" x2="63.94" y2="51.74"/><line class="cls-86n2szsw" x1="63.94" y1="0.22" x2="63.94" y2="51.87"/><line class="cls-86n2szsw" x1="63.94" y1="0.09" x2="63.94" y2="51.74"/><line class="cls-86n2szsw" x1="63.94" y1="-0.04" x2="63.94" y2="51.62"/><line class="cls-86n2szsw" x1="63.94" y1="-0.16" x2="63.94" y2="51.49"/><line class="cls-86n2szsw" x1="63.94" y1="-0.29" x2="63.94" y2="51.36"/><line class="cls-86n2szsw" x1="63.94" y1="-0.41" x2="63.94" y2="51.24"/><line class="cls-86n2szsw" x1="63.94" y1="-0.54" x2="63.94" y2="38.26"/><polygon class="cls-nrnsm5xk" points="64 55.27 68.91 38.26 59.09 38.26 64 55.27"/><line class="cls-86n2szsw" x1="63.94" y1="127.96" x2="63.94" y2="76.31"/><line class="cls-86n2szsw" x1="63.94" y1="127.83" x2="63.94" y2="76.18"/><line class="cls-86n2szsw" x1="63.94" y1="127.71" x2="63.94" y2="76.05"/><line class="cls-86n2szsw" x1="63.94" y1="127.83" x2="63.94" y2="76.18"/><line class="cls-86n2szsw" x1="63.94" y1="127.96" x2="63.94" y2="76.31"/><line class="cls-86n2szsw" x1="63.94" y1="128.08" x2="63.94" y2="76.43"/><line class="cls-86n2szsw" x1="63.94" y1="128.21" x2="63.94" y2="76.56"/><line class="cls-86n2szsw" x1="63.94" y1="128.33" x2="63.94" y2="76.68"/><line class="cls-86n2szsw" x1="63.94" y1="128.46" x2="63.94" y2="89.66"/><polygon class="cls-nrnsm5xk" points="64 72.65 68.91 89.66 59.09 89.66 64 72.65"/><g class="cls-ysl3dpf7"></g></g></svg>