<svg id="图层_2" data-name="图层 2" xmlns="http://www.w3.org/2000/svg" viewBox="0 0 128 128"><defs><style>.cls-1,.cls-1{fill:none;stroke-linejoin:round;}.cls-1{stroke:#2e3333;}.cls-1{stroke:#313333;}.cls-1{opacity:0.16;}</style></defs><g id="运行水电厂"><path class="cls-1" d="M117.09,15.77A11,11,0,0,1,128.16,26.3c.45,8.29-4.87,13.23-11,13.23"/><path class="cls-1" d="M117.09,39.53a11,11,0,0,1,11.07,10.53c.45,8.29-4.87,13.23-11,13.23"/><path class="cls-1" d="M117.09,63.93a11,11,0,0,1,11.07,10.53c.45,8.29-4.87,13.23-11,13.23"/><path class="cls-1" d="M117.09,88.33a11,11,0,0,1,11.07,10.53c.45,8.29-4.87,13.23-11,13.23"/><line class="cls-1" x1="19.73" y1="15.86" x2="117.09" y2="15.86"/><line class="cls-1" x1="19.73" y1="16.23" x2="19.73" y2="52.41"/><line class="cls-1" x1="-0.19" y1="52.41" x2="39.65" y2="52.41"/><line class="cls-1" x1="0.08" y1="75.99" x2="39.92" y2="75.99"/><line class="cls-1" x1="19.73" y1="75.81" x2="19.73" y2="112.23"/><line class="cls-1" x1="19.73" y1="112.18" x2="117.09" y2="112.18"/><g class="cls-1"></g></g></svg>