<svg id="图层_2" data-name="图层 2" xmlns="http://www.w3.org/2000/svg" viewBox="0 0 128 128"><defs><style>.cls-1{fill:none;stroke:#333;stroke-linejoin:round;}.cls-2{opacity:0.16;}</style></defs><g id="运行水电厂"><rect class="cls-1" x="0.31" y="26.82" width="127.38" height="78.23"/><line class="cls-1" x1="0.5" y1="42.5" x2="19.5" y2="27.5"/><line class="cls-1" x1="112.08" y1="104.74" x2="128" y2="91.56"/><line class="cls-1" x1="18.22" y1="46.59" x2="42.16" y2="27"/><line class="cls-1" x1="15.86" y1="69.36" x2="52.43" y2="39.88"/><line class="cls-1" x1="48.51" y1="43.05" x2="67.66" y2="27.25"/><line class="cls-1" x1="0.5" y1="61.5" x2="18.28" y2="46.53"/><line class="cls-1" x1="99.32" y1="97.84" x2="127.5" y2="74.5"/><line class="cls-1" x1="90.55" y1="105" x2="104.61" y2="93.43"/><line class="cls-1" x1="0.5" y1="82.5" x2="18.16" y2="67.43"/><line class="cls-1" x1="73.82" y1="94.49" x2="127.5" y2="46.5"/><line class="cls-1" x1="60.2" y1="105.74" x2="76.99" y2="91.94"/><line class="cls-1" x1="0.5" y1="104.5" x2="45.65" y2="66.81"/><line class="cls-1" x1="37.75" y1="73.34" x2="79.05" y2="39.26"/><line class="cls-1" x1="75" y1="42.68" x2="94.16" y2="26.88"/><line class="cls-1" x1="47.51" y1="90.57" x2="79.05" y2="65.13"/><line class="cls-1" x1="79.11" y1="65.19" x2="106.29" y2="42.74"/><line class="cls-1" x1="102.99" y1="45.41" x2="126.56" y2="26.69"/><line class="cls-1" x1="29.97" y1="105" x2="49.13" y2="89.2"/><g class="cls-1"></g></g></svg>